<svg class="svg-floor-map" version="1.2" baseProfile="tiny" id="Слой_1"
	 xmlns="http://www.w3.org/2000/svg" xmlns:xlink="http://www.w3.org/1999/xlink" x="0px" y="0px" viewBox="0 0 793.3 535.6"
	 xml:space="preserve">
<path data-apartment-token="b3_s3_2p-2" fill-rule="evenodd" fill="#FBB040" class="map-floor__apartment-2p map-floor__apartment" data-apartment-type="2p" d="M419.3,35.1h20.9V38c-0.6-0.1-1.3,0.1-1.6,0.4c-0.4,0.2-0.4,0.6-0.2,0.9
	c0.1,0.5,0.9,0.7,1.7,0.7V50h-20.9V35.1z M362.8,3.8v31.3h87L362.8,3.8z M449.8,35.1V3.8h-87L449.8,35.1z M219,50v182.6h225.6
	L219,50z M444.6,232.6V50H219L444.6,232.6z"/>
<path data-apartment-token="b3_s3_2p-3" fill-rule="evenodd" fill="#FBB040" class="map-floor__apartment-2p map-floor__apartment" data-apartment-type="2p" d="M213.7,297.8H49.3v-2L213.7,297.8z M213.7,297.8v-2H49.3L213.7,297.8z M34.4,344.1h2.1
	c0-0.7,0.3-1.4,0.8-1.5c0.2-0.1,0.4-0.1,0.6-0.1c0.6,0,1,0.8,0.9,1.6h10.5v-20.9H34.4V344.1z M49.3,267.8v28h164.4L49.3,267.8z
	 M213.7,295.7v-28H49.3L213.7,295.7z M3.1,266.8v103.4h31.3L3.1,266.8z M34.4,370.3V266.8H3.1L34.4,370.3z M49.3,297.8v172.4h178
	L49.3,297.8z M227.3,470.2V297.8h-178L227.3,470.2z"/>
<path data-apartment-token="b3_s3_1s-3" fill-rule="evenodd" fill="#ABE1FA" class="map-floor__apartment-1s map-floor__apartment" data-apartment-type="1s" d="M287.5,470.2h20.9v10.4c-0.8,0-1.4,0.4-1.4,0.8v0.1h0c0,0,0,0.1,0,0.1
	c-0.1,0.5,0.6,0.9,1.4,0.9v2.6h-20.9V470.2z M232.6,297.8v172.4h104.9L232.6,297.8z M337.4,470.2V297.8H232.6L337.4,470.2z
	 M232.1,485.1v48h95.6L232.1,485.1z M327.7,533.1v-48h-95.6L327.7,533.1z"/>
<path data-apartment-token="b3_s3_1p-1" fill-rule="evenodd" fill="#B0ACD5" class="map-floor__apartment-1p map-floor__apartment" data-apartment-type="1p" stroke="#B0ACD5" stroke-width="0.216" stroke-miterlimit="10" d="M468.7,297.8h160.7
	v172.4L468.7,297.8z M484.3,480.1c0.4,0,0.9,0.1,1.2,0.2c0.3,0.1,0.5,0.2,0.7,0.4c0.6,0.7-0.1,1.8-1.4,1.6c-0.2,0-0.4-0.1-0.5-0.1
	v2.9h20.9v-14.9h-20.9V480.1z M468.7,297.8v172.4h160.7L468.7,297.8z M478.3,485.1l-0.1,48h95.6L478.3,485.1z M573.8,533.1v-48
	h-95.5L573.8,533.1z"/>
<path data-apartment-token="b3_s3_3-1" fill-rule="evenodd" fill="#DEB9D8" class="map-floor__apartment-3 map-floor__apartment" data-apartment-type="3" d="M634.6,84.4H780v148.2L634.6,84.4z M670.5,435.8h-21v11.5h0.5c0.8,0,1.4,0.4,1.4,0.9
	c0,0.3-0.1,0.6-0.5,0.8c-0.3,0.3-0.9,0.4-1.4,0.3v1.4h21V435.8z M634.6,84.4v148.2H780L634.6,84.4z M634.6,232.6v65.2H780
	L634.6,232.6z M780,297.8v-65.2H634.6L780,297.8z M634.6,297.8v138H780L634.6,297.8z M780,435.8v-138H634.6L780,435.8z M644.2,450.7
	V482h82.1L644.2,450.7z M726.2,482v-31.3h-82.1L726.2,482z M709.4,38.2v31.3h80.8L709.4,38.2z M790.2,69.5V38.2h-80.8L790.2,69.5z"
	/>
<path data-apartment-token="b3_s3_1s-2" fill-rule="evenodd" fill="#ABE1FA" class="map-floor__apartment-1s map-floor__apartment" data-apartment-type="1s" d="M550.6,35.1h21.2V50h-21.2v-9.7c0.9,0.4,2.3,0,2.3-0.7v-0.1c0.2-0.5-0.4-1.1-1.4-1.1
	c-0.3,0-0.7,0.1-0.9,0.2V35.1z M543.5,3.8v31.3h87L543.5,3.8z M630.5,35.1V3.8h-87L630.5,35.1z M544.3,50v182.6h85.1L544.3,50z
	 M629.4,232.6V50h-85.1L629.4,232.6z"/>
<path data-apartment-token="b3_s3_1s-1" fill-rule="evenodd" fill="#ABE1FA" class="map-floor__apartment-1s map-floor__apartment" class="map-floor__apartment-1s map-floor__apartment" data-apartment="1s" stroke="#ABE1FA" stroke-width="0.216" stroke-miterlimit="10" d="M449.9,50H539v182.6
	L449.9,50z M511.4,50h20.8v-11c-0.1,0-0.2,0-0.2,0c-0.9,0.2-1.9-0.2-1.9-0.8c0-0.2,0-0.3,0.2-0.5c0.4-0.6,1.1-0.7,2-0.6v-1.9h-20.8
	V50z M453,3.8v31.3h87.4L453,3.8z M540.4,35.1V3.8H453L540.4,35.1z M449.9,50v182.6H539L449.9,50z"/>
<path data-apartment-token="b3_s3_2p-1" fill-rule="evenodd" fill="#FBB040" class="map-floor__apartment-2p map-floor__apartment" data-apartment-type="2p" d="M34.5,186.3H36c-0.2,0.7,0.1,1.6,0.7,1.9c0.4,0.2,1,0.1,1.3-0.2l0.1,0
	c0.6-0.2,0.9-0.9,0.8-1.7h10.5v21.2H34.5V186.3z M49.3,15.1v247.6h164.4L49.3,15.1z M213.7,262.6V15.1H49.3L213.7,262.6z M3.1,160.1
	l0.1,103.4h31.2L3.1,160.1z M34.4,263.6V160.1H3.1L34.4,263.6z"/>
</svg>
