<svg class="svg-floor-map" version="1.2" baseProfile="tiny"
	 xmlns="http://www.w3.org/2000/svg" xmlns:xlink="http://www.w3.org/1999/xlink" x="0px" y="0px" viewBox="0 0 924.2 536"
	 xml:space="preserve">
<path data-apartment-token="b3_s1_a3-1" fill-rule="evenodd" fill="#DEB9D8" class="map-floor__apartment-3 map-floor__apartment" data-apartment-type="3" data-apartment-room="3" data-apartment-area="67,22" fill-rule="evenodd" fill="#DEB9D8" d="M49.8,371.9h166.4v0.4L49.8,371.9z M49.8,371.9v0.4h166.4L49.8,371.9z M216.2,371.9
	v-0.8H49.8L216.2,371.9z M239.6,371.9v-0.8h-23.4L239.6,371.9z M216.2,371.1v0.8h23.4L216.2,371.1z M49.9,371.1v0.8h166.4
	L49.9,371.1z M35,323.3v20.9h14.9v-20.9H39.6c-0.1,0.3-0.1,0.5-0.3,0.7c-0.1,0.3-0.2,0.5-0.4,0.7c-0.2,0.3-0.6,0.5-0.9,0.5
	c-0.7,0-1.1-1-0.9-1.9H35z M239.7,371.1v-29H49.9L239.7,371.1z M49.9,342v29h189.8L49.9,342z M239.7,342v-38.2h-56.9L239.7,342z
	 M182.9,303.9V342h56.9L182.9,303.9z M177.7,342v-47.3H49.9L177.7,342z M49.9,294.8V342h127.8L49.9,294.8z M214.2,394.6v91.9H287
	L214.2,394.6z M49.9,394.6h164.3v126.8L49.9,394.6z M214.2,521.4H49.9V394.6L214.2,521.4z M214.2,394.6H287v91.9L214.2,394.6z
	 M49.9,372.3H287v22.3L49.9,372.3z M287,394.6H49.9v-22.3L287,394.6z M3.7,293.7H35l-0.1,103.6L3.7,293.7z M34.9,397.2H3.6
	l0.1-103.6L34.9,397.2z"/>
<path data-apartment-token="b3_s1_a1p-4" fill-rule="evenodd" fill="#B0ACD5" class="map-floor__apartment-1p map-floor__apartment" data-apartment-type="1p" data-apartment-room="1" data-apartment-area="48,80" data-apartment-price="2 150 000" fill-rule="evenodd" fill="#B0ACD5" stroke="#B0ACD5" stroke-width="0.216" stroke-miterlimit="10" d="M393.9,238.7H232.1V66.2
	L393.9,238.7z M381.2,51.3h-20.9v14.9h20.9V55.9c-0.3-0.1-0.5-0.1-0.7-0.3c-0.3-0.1-0.5-0.2-0.7-0.4c-0.3-0.2-0.5-0.6-0.5-0.9
	c0-0.7,1-1.1,1.9-0.9V51.3z M232.1,66.2h161.9v172.4L232.1,66.2z M304.9,3.3h79.4v48L304.9,3.3z M304.9,3.3v48h79.4L304.9,3.3z"/>
<path data-apartment-token="b3_s1_a2-1" fill-rule="evenodd" fill="#BCD640" class="map-floor__apartment-2 map-floor__apartment sold" data-apartment-type="2" data-apartment-room="2" data-apartment-area="53,56" data-apartment-price="4 500 000" fill-rule="evenodd" fill="#BCD640" stroke="#BCD640" stroke-width="0.216" stroke-miterlimit="10" d="M34.7,290.5H3.5V187.1
	L34.7,290.5z M36.8,261c-0.2-0.9,0.2-1.9,0.9-1.9c0.3,0,0.7,0.2,0.9,0.5c0.2,0.2,0.3,0.4,0.4,0.7c0.1,0.2,0.2,0.4,0.3,0.7h10.4
	v-20.9h-15V261H36.8z M177.5,289.5v-50.9H49.7L177.5,289.5z M49.7,238.7v50.9h127.8L49.7,238.7z M34.7,290.5V187.1H3.5L34.7,290.5z
	 M227,238.7l-0.1-172.4H49.7L227,238.7z M49.7,66.2v172.4H227L49.7,66.2z"/>
<path data-apartment-token="b3_s1_a1s-3" fill-rule="evenodd" fill="#ABE1FA" class="map-floor__apartment-1s map-floor__apartment" data-apartment-type="1s" data-apartment-room="1" data-apartment-area="25,15" data-apartment-price="2 100 000" fill-rule="evenodd" fill="#ABE1FA" d="M727.9,66.2h103.2v172.4L727.9,66.2z M727.9,66.2v172.4h103.2L727.9,66.2z"/>
<path data-apartment-token="b3_s1_a1s-1" fill-rule="evenodd" fill="#ABE1FA" class="map-floor__apartment-1s map-floor__apartment" data-apartment-type="1s" data-apartment-room="1" data-apartment-area="28,80" data-apartment-price="2 850 000" fill-rule="evenodd" fill="#ABE1FA" d="M570.8,499.3c0.9,0.2,1.9-0.2,1.9-0.9c0-0.3-0.2-0.7-0.5-0.9c-0.2-0.2-0.4-0.3-0.7-0.4
	c-0.2-0.1-0.4-0.2-0.7-0.3v-10.2h20.9v14.8h-20.9V499.3z M660.6,532.7v-31.3h-100L660.6,532.7z M560.6,501.3v31.3h100L560.6,501.3z
	 M659.6,486.5V303.8H553.4L659.6,486.5z M553.4,303.8v182.6h106.2L553.4,303.8z"/>
<path data-apartment-token="b3_s1_a1p-5" fill-rule="evenodd" fill="#B0ACD5" class="map-floor__apartment-1p map-floor__apartment" data-apartment-type="1p" data-apartment-room="1" data-apartment-area="39,50" data-apartment-price="1 378 000" fill-rule="evenodd" fill="#B0ACD5" d="M578.6,51.3h20.9v14.9h-20.9V55.9c0.3-0.1,0.5-0.1,0.7-0.3c0.3-0.1,0.5-0.2,0.7-0.4
	c0.3-0.2,0.5-0.6,0.5-0.9c0-0.7-1-1.1-1.9-0.9V51.3z M722.7,238.7V66.2H566.3L722.7,238.7z M566.3,66.2v172.4h156.5L566.3,66.2z
	 M655.3,51.3v-48h-79.4L655.3,51.3z M575.9,3.3v48h79.4L575.9,3.3z"/>
<path data-apartment-token="b3_s1_a1p-3" fill-rule="evenodd" fill="#B0ACD5" class="map-floor__apartment-1p map-floor__apartment sold" data-apartment-type="1p" data-apartment-room="1" data-apartment-area="45,02" fill-rule="evenodd" fill="#B0ACD5" d="M440.4,501.3h-20.9v-14.9h20.9v10.3c-0.3,0.1-0.5,0.1-0.7,0.3c-0.3,0.1-0.5,0.2-0.7,0.4
	c-0.3,0.2-0.5,0.6-0.5,0.9c0,0.7,1,1.1,1.9,0.9V501.3z M454.4,532.5v-31.2H363L454.4,532.5z M363,501.3v31.2h91.4L363,501.3z
	 M448.8,486.5V366.9H291.9L448.8,486.5z M291.9,366.9v119.5h156.8L291.9,366.9z M448.8,366.9v-63.1H244.7L448.8,366.9z M244.7,303.8
	l0.1,63.1h204L244.7,303.8z"/>
<path data-apartment-token="b3_s1_a1s-2" fill-rule="evenodd" fill="#ABE1FA" class="map-floor__apartment-1s map-floor__apartment" data-apartment-type="1s" data-apartment-room="1" data-apartment-area="25,63" data-apartment-price="1 400 000" fill-rule="evenodd" fill="#ABE1FA" d="M547.3,501.3h-20.9v-14.9h20.9v10.3c-0.3,0.1-0.5,0.1-0.7,0.3c-0.3,0.1-0.5,0.2-0.7,0.4
	c-0.3,0.2-0.5,0.6-0.5,0.9c0,0.7,1,1.1,1.9,0.9V501.3z M557.5,532.7v-31.3h-100L557.5,532.7z M457.5,501.3v31.3h100L457.5,501.3z
	 M548.1,486.5V303.8h-94.2L548.1,486.5z M453.9,303.8v182.6h94.2L453.9,303.8z"/>
<path data-apartment-token="b3_s1_a1p-2" fill-rule="evenodd" fill="#B0ACD5" class="map-floor__apartment-1p map-floor__apartment" data-apartment-type="1p" data-apartment-room="1" data-apartment-area="40,14" data-apartment-price="2 800 000" fill-rule="evenodd" fill="#B0ACD5" d="M664.8,303.8h166.3V452L664.8,303.8z M725.3,499.1c-0.9,0.2-1.9-0.2-1.9-0.9
	c0-0.3,0.2-0.7,0.5-0.9c0.2-0.2,0.4-0.3,0.7-0.4c0.2-0.1,0.4-0.2,0.7-0.3v-10.2h-20.9v14.8h20.9V499.1z M663.7,501.2h91.6v31.4
	L663.7,501.2z M755.3,532.7h-91.6v-31.4L755.3,532.7z M664.8,452h89.4v34.4L664.8,452z M754.2,486.5h-89.4V452L754.2,486.5z
	 M831.1,452H664.8V303.8L831.1,452z"/>
<path data-apartment-token="b3_s1_a1p-1" fill-rule="evenodd" fill="#B0ACD5" class="map-floor__apartment-1p map-floor__apartment" data-apartment-type="1p" data-apartment-room="1" data-apartment-area="45,88" data-apartment-price="2 100 000" fill-rule="evenodd" fill="#B0ACD5" d="M851.5,85.8h20.9v14.9h-20.9V90.4c0.3-0.1,0.5-0.1,0.7-0.3c0.3-0.1,0.5-0.2,0.7-0.4
	c0.3-0.2,0.5-0.6,0.5-0.9c0-0.7-1-1.1-1.9-0.9V85.8z M919.7,452V298.7h-83.3L919.7,452z M836.4,298.7V452h83.3L836.4,298.7z
	 M919.7,298.7v-54.8H809.4L919.7,298.7z M809.4,243.8v54.8h110.3L809.4,243.8z M919.7,243.8V100.7h-83.3L919.7,243.8z M836.4,100.7
	v143.2h83.3L836.4,100.7z M906.3,85.8V54.5H846L906.3,85.8z M846,54.5v31.3h60.4L846,54.5z M920.7,498.2v-31.3h-86.5L920.7,498.2z
	 M834.2,466.9v31.3h86.5L834.2,466.9z"/>
</svg>
