<svg class="svg-floor-map" version="1.2" baseProfile="tiny"
	 xmlns="http://www.w3.org/2000/svg" xmlns:xlink="http://www.w3.org/1999/xlink" x="0px" y="0px" viewBox="0 0 632.3 467.6"
	 xml:space="preserve">
<path data-apartment-token="b1_s2_a2-2" class="map-floor__apartment-2 map-floor__apartment" data-apartment-type="2" data-apartment-room="2" data-apartment-area="57,99" data-apartment-price="5 280 000" fill-rule="evenodd" fill="#BCD640" d="M140.7,52.2V35.4h23.4v0.5c-1,0-1.6,0.7-1.4,1.4c0,0.1,0.1,0.3,0.1,0.4
	c0.1,0.5,0.6,0.9,1.3,1v13.6L140.7,52.2z M85.9,52.4H6.7v360.5h79.2V52.4z M200.2,52.4H85.9v193.4h114.2V52.4z M189.5,3.7H91
	L78,13.9v21.5h111.6V3.7z"/>
<path data-apartment-token="b1_s2_a2-1" class="map-floor__apartment-2 map-floor__apartment" data-apartment-type="2" data-apartment-room="2" data-apartment-area="46,74" data-apartment-price="2 150 000" fill-rule="evenodd" fill="#BCD640" stroke="#BCD640" stroke-width="0.216" stroke-miterlimit="22.9256" d="M304.2,412.8v16.5
	h-23.4v-0.5c1,0,1.6-0.7,1.4-1.4c0-0.1-0.1-0.3-0.1-0.4c-0.1-0.5-0.6-0.9-1.3-0.9v-13.4L304.2,412.8z M340.8,251.7h-249v161.1h249
	V251.7z M346.3,429.4H172.2V464h174.1V429.4z"/>
<path data-apartment-token="b1_s2_a1p-1" class="map-floor__apartment-1p map-floor__apartment" data-apartment-type="1p" data-apartment-room="1" data-apartment-area="33,62" data-apartment-price="1 320 000" fill-rule="evenodd" fill="#B0ACD5" d="M414.7,412.8v13.4c-0.7,0-1.2,0.4-1.3,0.9c-0.1,0.1-0.1,0.3-0.1,0.4
	c-0.2,0.7,0.4,1.4,1.4,1.4v0.5h-23.4v-16.6L414.7,412.8z M522.8,251.7H346.7v161.1h176.1V251.7z M523.2,429.4H348.7V464h174.5V429.4
	z"/>
<path data-apartment-token="b1_s2_a3-1" class="map-floor__apartment-3 map-floor__apartment" data-apartment-type="3" data-apartment-room="3" data-apartment-area="73,13" data-apartment-price="5 340 000" fill-rule="evenodd" fill="#DEB9D8" d="M479.5,52.4V38.7c0.7,0,1.2-0.5,1.3-1c0.1-0.1,0.1-0.3,0.1-0.4c0.2-0.7-0.4-1.4-1.4-1.4
	v-0.5h23.4v16.9L479.5,52.4z M528.7,187.1h-79.2v58.7h79.2V187.1z M616.6,187.1h-87.8v225.7h87.8V187.1z M616.6,52.4H346.7v134.7
	h269.9V52.4z M446.4,16.9h-99.7v35.5h99.7V16.9z M463.3,35.4h88.5v-22l-13.4-9.8h-75.2V35.4z"/>
</svg>
