<svg version="1.2" baseProfile="tiny" id="Слой_1"
	 xmlns="http://www.w3.org/2000/svg" xmlns:xlink="http://www.w3.org/1999/xlink" x="0px" y="0px" viewBox="0 0 924.6 536.3"
	 xml:space="preserve">
<path data-apartment-token="b3_s1_a1p-4" fill-rule="evenodd" fill="#B0ACD5" class="map-floor__room-1p map-floor__room" data-room="1p" d="M543.6,482.6c0.9,0.2,1.9-0.2,1.9-0.9c0-0.3-0.2-0.7-0.5-0.9c-0.2-0.2-0.4-0.3-0.7-0.4
	c-0.2-0.1-0.4-0.2-0.7-0.3v-10.3h20.9v14.8h-20.9V482.6z M530.8,297.5v172.4h161.9L530.8,297.5z M692.7,469.9V297.5H530.8
	L692.7,469.9z M540.4,484.8v48h79.4L540.4,484.8z M619.9,532.8v-48h-79.4L619.9,532.8z"/>
<path data-apartment-token="b3_s1_a2-1" fill-rule="evenodd" fill="#BCD640" class="map-floor__room-2 map-floor__room" data-room="2" d="M890.1,275.2v20.9h-15v-20.9h10.4c0.1,0.3,0.2,0.5,0.3,0.7c0.1,0.3,0.2,0.5,0.4,0.7
	c0.2,0.3,0.6,0.5,0.9,0.5c0.7,0,1.2-1,0.9-1.9H890.1z M747.3,246.6v50.9h127.8L747.3,246.6z M875.1,297.5v-50.9H747.3L875.1,297.5z
	 M890.1,245.6v103.4h31.2L890.1,245.6z M921.3,349.1V245.6h-31.2L921.3,349.1z M697.8,297.5l0.1,172.4h177.2L697.8,297.5z
	 M875.1,469.9V297.5H697.8L875.1,469.9z"/>
<path data-apartment-token="b3_s1_a1s-3" fill-rule="evenodd" fill="#ABE1FA" class="map-floor__room-1s map-floor__room" data-room="1s" d="M196.9,469.9H93.7V297.5L196.9,469.9z M196.9,469.9V297.5H93.7L196.9,469.9z"/>
<path data-apartment-token="b3_s1_a1s-1" fill-rule="evenodd" fill="#ABE1FA" class="map-floor__room-1s map-floor__room" data-room="1s" d="M354,36.9c-0.9-0.2-1.9,0.2-1.9,0.9c0,0.3,0.2,0.7,0.5,0.9c0.2,0.2,0.4,0.3,0.7,0.4
	c0.2,0.1,0.4,0.2,0.7,0.3v10.3h-20.9V34.8H354V36.9z M264.2,3.5v31.3h100L264.2,3.5z M364.2,34.8V3.5h-100L364.2,34.8z M265.2,49.7
	v182.6h106.2L265.2,49.7z M371.4,232.3V49.7H265.2L371.4,232.3z"/>
<path data-apartment-token="b3_s1_a1p-5" fill-rule="evenodd" fill="#B0ACD5" class="map-floor__room-1p map-floor__room" data-room="1p" d="M346.2,484.8h-20.9v-14.9h20.9v10.3c-0.3,0.1-0.5,0.1-0.7,0.3c-0.3,0.1-0.5,0.2-0.7,0.4
	c-0.3,0.2-0.5,0.6-0.5,0.9c0,0.7,1,1.1,1.9,0.9V484.8z M202,297.5v172.4h156.5L202,297.5z M358.5,469.9V297.5H202L358.5,469.9z
	 M269.5,484.8v48h79.4L269.5,484.8z M348.9,532.8v-48h-79.4L348.9,532.8z"/>
<path data-apartment-token="b3_s1_a1p-3" fill-rule="evenodd" fill="#B0ACD5" class="map-floor__room-1p map-floor__room" data-room="1p" d="M484.4,34.8h20.9v14.8h-20.9V39.3c0.3-0.1,0.5-0.1,0.7-0.3c0.3-0.1,0.5-0.2,0.7-0.4
	c0.3-0.2,0.5-0.6,0.5-0.9c0-0.7-1-1.1-1.9-0.9V34.8z M470.4,3.6v31.2h91.4L470.4,3.6z M561.8,34.8V3.6h-91.4L561.8,34.8z M476,49.7
	v119.5h156.8L476,49.7z M632.8,169.2V49.7H476L632.8,169.2z M476,169.2v63.1h204.1L476,169.2z M680.1,232.3l-0.1-63.1H476
	L680.1,232.3z"/>
<path data-apartment-token="b3_s1_a1s-2" fill-rule="evenodd" fill="#ABE1FA" class="map-floor__room-1s map-floor__room" data-room="1s" d="M377.5,34.8h20.9v14.8h-20.9V39.3c0.3-0.1,0.5-0.1,0.7-0.3c0.3-0.1,0.5-0.2,0.7-0.4
	c0.3-0.2,0.5-0.6,0.5-0.9c0-0.7-1-1.1-1.9-0.9V34.8z M367.3,3.5v31.3h100L367.3,3.5z M467.2,34.8V3.5h-100L467.2,34.8z M376.6,49.7
	v182.6h94.2L376.6,49.7z M470.8,232.3V49.7h-94.2L470.8,232.3z"/>
<path data-apartment-token="b3_s1_a1p-2" fill-rule="evenodd" fill="#B0ACD5" class="map-floor__room-1p map-floor__room" data-room="1p" d="M199.5,34.9h20.9v14.8h-20.9V39.5c0.3-0.1,0.5-0.1,0.7-0.3c0.3-0.1,0.5-0.2,0.7-0.4
	c0.3-0.2,0.5-0.6,0.5-0.9c0-0.7-1-1.1-1.9-0.9V34.9z M169.5,3.5v31.4h91.6L169.5,3.5z M261.1,34.9V3.5h-91.6L261.1,34.9z
	 M170.6,49.7v34.4H260L170.6,49.7z M260,84.1V49.7h-89.4L260,84.1z M93.7,84.1v148.2H260L93.7,84.1z M260,232.3V84.1H93.7L260,232.3
	z"/>
<path data-apartment-token="b3_s1_a1p-1" fill-rule="evenodd" fill="#B0ACD5" class="map-floor__room-1p map-floor__room" data-room="1p" stroke="#B0ACD5" stroke-width="0.216" stroke-miterlimit="10" d="M5.1,237.5h110.3v54.8
	L5.1,237.5z M18.4,450.4v31.3h60.4L18.4,450.4z M5.1,84.1v153.4h83.3L5.1,84.1z M5.1,237.5v54.8h110.3L5.1,237.5z M5.1,292.3v143.2
	h83.3L5.1,292.3z M4,37.9v31.3h86.5L4,37.9z M73.3,448.3c-0.9,0.2-1.9-0.2-1.9-0.9c0-0.3,0.2-0.7,0.5-0.9c0.2-0.2,0.4-0.3,0.7-0.4
	c0.2-0.1,0.4-0.2,0.7-0.3v-10.3H52.4v14.9h20.9V448.3z M88.4,237.5V84.1H5.1L88.4,237.5z M88.4,435.5V292.3H5.1L88.4,435.5z
	 M78.8,481.7v-31.3H18.4L78.8,481.7z M90.6,69.2V37.9H4L90.6,69.2z"/>
<path data-apartment-token="b3_s1_a3-1" fill-rule="evenodd" fill="#DEB9D8" class="map-floor__room-3 map-floor__room" data-room="3" d="M887.9,212.9c0.2-0.9-0.2-1.9-0.9-1.9c-0.3,0-0.7,0.2-0.9,0.5c-0.2,0.2-0.3,0.4-0.4,0.7
	c-0.1,0.2-0.2,0.4-0.3,0.7h-10.3V192H890v20.9H887.9z M710.8,14.8v126.8h164.3L710.8,14.8z M875.1,141.6V14.8H710.8L875.1,141.6z
	 M638,49.7v91.9h72.8L638,49.7z M710.8,141.6V49.7H638L710.8,141.6z M638,141.6v22.3h237.1L638,141.6z M875.1,163.9v-22.3H638
	L875.1,163.9z M685.3,165.1v29h189.8L685.3,165.1z M875.1,194.2v-29H685.3L875.1,194.2z M685.3,194.2v38.2h56.9L685.3,194.2z
	 M742.2,232.3v-38.2h-56.9L742.2,232.3z M747.3,194.2v47.3h127.8L747.3,194.2z M875.1,241.4v-47.3H747.3L875.1,241.4z M890.1,139
	L890,242.5h31.3L890.1,139z M921.3,242.5l0.1-103.6h-31.3L921.3,242.5z M875.1,163.9H685.3v1.2h189.8V163.9z"/>
</svg>
