<svg class="svg-floor-map" version="1.2" baseProfile="tiny"
	 xmlns="http://www.w3.org/2000/svg" xmlns:xlink="http://www.w3.org/1999/xlink" x="0px" y="0px" viewBox="0 0 667.7 467.2"
	 xml:space="preserve">
<path data-apartment-token="b1_s4_a2-2" class="map-floor__apartment-2 map-floor__apartment" data-apartment-type="2" data-apartment-room="2" data-apartment-area="56,02" data-apartment-price="1 300 000" fill-rule="evenodd" fill="#BCD640" d="M139.9,52V35.4h23.4v0.5c-1,0-1.6,0.7-1.4,1.4c0,0.1,0.1,0.3,0.1,0.4
	c0.1,0.5,0.6,0.9,1.3,0.9V52L139.9,52z M179,3.6l-90,0L77.6,15l0,20.4H179V3.6z M190.7,52H85.1v193.4h105.6V52z M85.1,52H5.9v360.5
	h79.2V52z"/>
<path data-apartment-token="b1_s4_a2-1" class="map-floor__apartment-2 map-floor__apartment sold" data-apartment-type="2" data-apartment-room="2" data-apartment-area="45,32" data-apartment-price="1 520 000" fill-rule="evenodd" fill="#BCD640" d="M303.3,412.3v16.8h-23.6v-0.5c1,0,1.6-0.7,1.4-1.4c0-0.1-0.1-0.3-0.1-0.4
	c-0.1-0.5-0.6-0.9-1.3-1v-13.6L303.3,412.3z M169,429v34.6h174.3v-34.5L169,429z M91,251.3v161.1h240.3V251.8L91,251.3z"/>
<path data-apartment-token="b1_s4_a2-3" class="map-floor__apartment-2 map-floor__apartment" data-apartment-type="2" data-apartment-room="2" data-apartment-area="55,05" data-apartment-price="1 800 000" fill-rule="evenodd" fill="#BCD640" stroke="#BCD640" stroke-width="0.216" stroke-miterlimit="22.9256" d="M629.5,106.8h-16.9
	V83.5h12.6c0.3,0.8,0.9,1,1.4,0.6c0.5,0.2,1,0.1,1.3-0.6h1.6V106.8z M629.5,186h34.7V14.2h-34.7V186z M612.6,164.7V16.5H337.2v170.2
	h58.7l29.9,29.2H507v-51.2H612.6z"/>
<path data-apartment-token="b1_s4_a3-1" class="map-floor__apartment-3 map-floor__apartment" data-apartment-type="3" data-apartment-room="3" data-apartment-area="63,95" data-apartment-price="5 678 000" fill-rule="evenodd" fill="#DEB9D8" d="M409.9,429h-23.8v-16.7h23.8v12.3c-0.7,0-1.3,0.4-1.4,1.1c-0.1,0.2-0.1,0.7,0,1
	c0,0.8,0.6,1.4,1.5,1.4V429z M612.6,171h-99.3v51.4h99.3V171z M424.7,221.8l-29.4,29.8h-58.1v160.7h93.7L424.7,221.8z M612.6,221.8
	H430.8v190.7h181.7V221.8z M520.5,428.9H345.9v34.7h174.6V428.9z M430.8,412.3V221.8l-6.2,0L430.8,412.3z M612.6,222.4l0-0.6h-99.3
	v0.6H612.6z"/>
</svg>
