<svg class="svg-floor-map" version="1.2" baseProfile="tiny"
	 xmlns="http://www.w3.org/2000/svg" xmlns:xlink="http://www.w3.org/1999/xlink" x="0px" y="0px" viewBox="0 0 664.1 468"
	 xml:space="preserve">
<path data-apartment-token="b1_s1_a2-2" class="map-floor__apartment-2 map-floor__apartment" data-apartment-type="2" data-apartment-room="2" data-apartment-area="46,75" data-apartment-price="1 300 000" fill-rule="evenodd" fill="#BCD640" d="M383.6,412.8v13.4c-0.7,0-1.2,0.4-1.3,0.9c-0.1,0.1-0.1,0.3-0.1,0.4
	c-0.2,0.7,0.4,1.4,1.4,1.4v0.5h-23.4v-16.5L383.6,412.8z M574.5,251.7h-249v161.1h249V251.7z M495.3,429.4H321.2v34.7h174.1V429.4z"
	/>
<path data-apartment-token="b1_s1_a2-1" class="map-floor__apartment-2 map-floor__apartment sold" data-apartment-type="2" data-apartment-room="2" data-apartment-area="58,00" data-apartment-price="1 400 000" fill-rule="evenodd" fill="#BCD640" d="M502.6,52.4V38.7c0.7,0,1.2-0.5,1.3-1c0.1-0.1,0.1-0.3,0.1-0.4c0.2-0.7-0.4-1.4-1.4-1.4
	v-0.5H526v16.9L502.6,52.4z M659.6,52.4h-79.2v360.5h79.2V52.4z M466.2,245.8h114.3V52.4H466.2V245.8z M587.9,13.3l-12-9.3h-99.1
	v31.5h111.1V13.3z"/>
<path data-apartment-token="b1_s1_a1p-1" class="map-floor__apartment-1p map-floor__apartment" data-apartment-type="1p" data-apartment-room="1" data-apartment-area="36,89" data-apartment-price="2 320 000" fill-rule="evenodd" fill="#B0ACD5" d="M269.6,412.9v16.5h-23.4v-0.5c1,0,1.6-0.7,1.4-1.4c0-0.1-0.1-0.3-0.1-0.4
	c-0.1-0.5-0.6-0.9-1.3-0.9v-13.4L269.6,412.9z M319.6,252.1H143.5v160.7h176.1V252.1z M143.5,254.8h122.5v-2.6l-30.3-30.1h-92.2
	V254.8z M318.8,429.4H144.3v34.7h174.5V429.4z M266.1,252.1H143.5v2.7h122.5V252.1z"/>
<path data-apartment-token="b1_s1_a3-1" class="map-floor__apartment-3 map-floor__apartment" data-apartment-type="3" data-apartment-room="3" data-apartment-area="76,50" data-apartment-price="4 250 000" fill-rule="evenodd" fill="#DEB9D8" d="M137.2,216.3H136v-33.5h1.2V216.3z M55.7,83.7H42.3c0,0.7-0.4,1.2-0.9,1.3
	c-0.1,0.1-0.3,0.1-0.4,0.1c-0.7,0.2-1.4-0.4-1.4-1.4h-0.5v23.4h16.5L55.7,83.7z M39.1,186.3H4.5V14.6h34.7V186.3z M137.2,412.8H55.7
	V16.9h81.5V412.8z M319.6,187.1H137.2V16.9h182.4V187.1z M136,182.8h134.7l-34.3,33.5H136V182.8z M290.3,187.1H137.2v-4.3h153.1
	V187.1z M290.3,182.8h-19.5l-4.4,4.3h24V182.8z"/>
</svg>
