<svg class="svg-floor-map" version="1.2" baseProfile="tiny"
	 xmlns="http://www.w3.org/2000/svg" xmlns:xlink="http://www.w3.org/1999/xlink" x="0px" y="0px" viewBox="0 0 827.4 433.2"
	 xml:space="preserve">
<path data-apartment-token="b2_s1_a2-2" class="map-floor__apartment-2 map-floor__apartment" data-apartment-type="2" data-apartment-room="2" data-apartment-area="60,33" data-apartment-price="3 540 000" fill-rule="evenodd" fill="#BCD640" d="M27.2,135.4H3.1l24.1,83.3V135.4L27.2,135.4z M3.1,135.4l24.1,83.3H3.1V135.4z
	 M27.2,181.4h12.7v17.7h-9.5c-0.1-0.2-0.2-0.4-0.3-0.5c-0.1-0.5-0.5-0.9-0.9-0.9c-0.2,0-0.4,0-0.6,0.1c-0.4,0.2-0.7,0.6-0.7,1.2
	h-0.8V181.4z M211.9,39.6h-172l172,177.6V39.6L211.9,39.6z M39.9,39.6l172,177.6h-172V39.6z"/>
<path data-apartment-token="b2_s1_a2-1" class="map-floor__apartment-2 map-floor__apartment sold" data-apartment-type="2" data-apartment-room="2" data-apartment-area="58,55" data-apartment-price="3 320 000" fill-rule="evenodd" fill="#BCD640" stroke="#BCD640" stroke-width="0.216" stroke-miterlimit="22.9256" d="M27.2,239.6H28
	c0,0.6,0.3,1,0.7,1.2c0.2,0.1,0.4,0.1,0.6,0.1c0.4,0,0.7-0.4,0.9-0.9c0.1-0.1,0.2-0.3,0.3-0.5h9.5v17.7H27.2V239.6z M211.9,221.6
	v172.2l-172-172.2H211.9L211.9,221.6z M39.9,393.8h172l-172-172.2V393.8z M27.2,220.4v83.3L3.1,220.4H27.2L27.2,220.4z M3.1,303.7
	h24.1L3.1,220.4V303.7z"/>
<path data-apartment-token="b2_s1_a1p-3" class="map-floor__apartment-1p map-floor__apartment" data-apartment-type="1p" data-apartment-room="1" data-apartment-area="40,43" data-apartment-price="1 700 000" data-apartment-price="3 320 000" fill-rule="evenodd" fill="#B0ACD5" stroke="#B0ACD5" stroke-width="0.216" stroke-miterlimit="22.9256" d="M336.3,26.9v0.8
	c-0.6,0-1,0.3-1.2,0.7c-0.1,0.2-0.1,0.4-0.1,0.6c0,0.4,0.3,0.7,0.8,0.9c0.1,0.1,0.3,0.2,0.5,0.3v9.5H319V26.9H336.3z M352.7,39.6
	v149.8L216.3,39.6H352.7L352.7,39.6z M216.3,189.4h136.3L216.3,39.6V189.4z M363.6,2.8v24.1L289.9,2.8H363.6L363.6,2.8z M289.9,26.9
	h73.7L289.9,2.8V26.9z"/>
<path data-apartment-token="b2_s1_a1p-2" class="map-floor__apartment-1p map-floor__apartment" data-apartment-type="1p" data-apartment-room="1" data-apartment-area="39,09" data-apartment-price="1 800 000" fill-rule="evenodd" fill="#B0ACD5" d="M216.3,249.6L216.3,249.6h136.3H216.3z M216.3,249.6h136.3v144.2L216.3,249.6z
	 M231.9,406.6v-0.8c0.6,0,1-0.3,1.2-0.7c0.1-0.2,0.1-0.4,0.1-0.6c0-0.4-0.4-0.7-0.9-0.9c-0.1-0.1-0.3-0.2-0.5-0.3v-9.5h17.7v12.7
	H231.9z M287.3,406.6v24.1l-81.1-24.1H287.3L287.3,406.6z M206.1,430.7h81.1l-81.1-24.1V430.7z M216.3,249.6v144.2h136.3
	L216.3,249.6z"/>
<path data-apartment-token="b2_s1_a1s-4" class="map-floor__apartment-1s map-floor__apartment" data-apartment-type="1s" data-apartment-room="1" data-apartment-area="33,30" data-apartment-price="2 370 000" fill-rule="evenodd" fill="#ABE1FA" d="M613.9,189.2H504.5l-0.1-149.6L613.9,189.2z M542.1,26.9v12.7h17.3v-9.5
	c-0.2-0.1-0.4-0.2-0.5-0.3c-0.5-0.1-0.8-0.5-0.8-0.9c0-0.2,0-0.4,0.1-0.6c0.2-0.4,0.6-0.7,1.2-0.7v-0.8H542.1z M504.3,39.6
	L504.3,39.6h109.6H504.3z M504.3,39.6h109.6v149.6L504.3,39.6z M602,2.8H491.7L602,26.9V2.8L602,2.8z M491.7,2.8L602,26.9H491.7V2.8
	z"/>
<path data-apartment-token="b2_s1_a1p-1" class="map-floor__apartment-1p map-floor__apartment" data-apartment-type="1p" data-apartment-room="1" data-apartment-area="41,77" data-apartment-price="1 500 000" fill-rule="evenodd" fill="#B0ACD5" d="M357.1,249.6L357.1,249.6H500H357.1z M357.1,249.6H500v144.2L357.1,249.6z M441,406.6
	v-0.8c0.6,0,1-0.3,1.2-0.7c0.1-0.2,0.1-0.4,0.1-0.6c0-0.4-0.4-0.7-0.9-0.9c-0.1-0.1-0.3-0.2-0.5-0.3v-9.5h17.7v12.7H441z
	 M484.3,406.6v24.1l-133.6-24.1H484.3L484.3,406.6z M350.7,430.7h133.6l-133.6-24.1V430.7z M357.1,249.6v144.2H500L357.1,249.6z"/>
<path data-apartment-token="b2_s1_a1s-3" class="map-floor__apartment-1s map-floor__apartment" data-apartment-type="1s" data-apartment-room="1" data-apartment-area="33,03" data-apartment-price="2 340 000" fill-rule="evenodd" fill="#ABE1FA" stroke="#ABE1FA" stroke-width="0.216" stroke-miterlimit="22.9256" d="M545.1,406.6v-12.7
	h17.7v9.5c-0.2,0.1-0.4,0.2-0.5,0.3c-0.5,0.1-0.9,0.5-0.9,0.9c0,0.2,0,0.4,0.1,0.6c0.2,0.4,0.6,0.7,1.2,0.7v0.8H545.1z M605.1,406.6
	v24.1l-119-24.1H605.1L605.1,406.6z M486.1,430.7h119l-119-24.1V430.7z M613.9,249.6v144.2L504.5,249.6H613.9L613.9,249.6z
	 M504.5,393.8h109.4L504.5,249.6V393.8z"/>
<path data-apartment-token="b2_s1_a1s-5" class="map-floor__apartment-1s map-floor__apartment" data-apartment-type="1s" data-apartment-room="1" data-apartment-area="32,76" data-apartment-price="1 800 000" data-apartment-token="b2_s1_a1s-5" class="map-floor__apartment-1s map-floor__apartment" data-apartment-type="1s" data-apartment-room="1" data-apartment-area="32,76" data-apartment-price="1 800 000" fill-rule="evenodd" fill="#ABE1FA" stroke="#ABE1FA" stroke-width="0.216" stroke-miterlimit="22.9256" d="M727.9,39.6H618.5
	l109.4,125.8V39.6L727.9,39.6z M618.5,39.6l109.4,125.8H618.5V39.6z M710.6,26.9v0.8c-0.6,0-1,0.3-1.2,0.7c-0.1,0.2-0.1,0.4-0.1,0.6
	c0,0.4,0.4,0.7,0.9,0.9c0.1,0.1,0.3,0.2,0.5,0.3v9.5H693V26.9H710.6z M727.9,165.4H618.5l85.4,23.9L727.9,165.4L727.9,165.4z
	 M618.5,165.4l85.4,23.9h-85.4V165.4z M717.1,2.8H603.8l113.3,24.1V2.8L717.1,2.8z M603.8,2.8l113.3,24.1H603.8V2.8z"/>
<path data-apartment-token="b2_s1_a1s-2" class="map-floor__apartment-1s map-floor__apartment" data-apartment-type="1s" data-apartment-room="1" data-apartment-area="32,45" data-apartment-price="3 450 000" fill-rule="evenodd" fill="#ABE1FA" stroke="#ABE1FA" stroke-width="0.216" stroke-miterlimit="22.9256" d="M696.1,406.6v-12.7
	h17.7v9.5c-0.2,0.1-0.4,0.2-0.5,0.3c-0.5,0.1-0.9,0.5-0.9,0.9c0,0.2,0,0.4,0.1,0.6c0.2,0.4,0.6,0.7,1.2,0.7v0.8H696.1z M726,406.6
	v24.1l-119-24.1H726L726,406.6z M606.9,430.7h119l-119-24.1V430.7z M727.9,273.5v120.4L618.5,273.5H727.9L727.9,273.5z M618.5,393.8
	h109.4L618.5,273.5V393.8z M703.9,249.6h-85.4l0,0H703.9z M727.9,273.5l-24-23.9h-85.4L727.9,273.5z M618.5,249.6v23.9h109.4
	L618.5,249.6z"/>
<path data-apartment-token="b2_s1_a1s-6" class="map-floor__apartment-1s map-floor__apartment" data-apartment-type="1s" data-apartment-room="1" data-apartment-area="31,61" data-apartment-price="2 300 000" fill-rule="evenodd" fill="#ABE1FA" d="M815,167.2h-82.7l82.7,26.5V167.2L815,167.2z M732.3,167.2l82.7,26.5H705.7L732.3,167.2
	z M815,167.2h-82.7V39.6L815,167.2z M791.7,26.9v0.8c-0.6,0-1,0.3-1.2,0.7c-0.1,0.2-0.1,0.4-0.1,0.6c0,0.4,0.3,0.7,0.8,0.9
	c0.1,0.1,0.3,0.2,0.5,0.3v9.5h-17.3V26.9H791.7z M815,193.7H705.7L815,217.2V193.7L815,193.7z M705.7,193.7L815,217.2H705.6
	L705.7,193.7z M815,39.6h-82.7l0,0H815z M732.3,39.6H815v127.6L732.3,39.6z M801.2,2.8h-82.3l82.3,24.1V2.8L801.2,2.8z M718.9,2.8
	l82.3,24.1h-82.3V2.8z"/>
<path data-apartment-token="b2_s1_a1s-1" class="map-floor__apartment-1s map-floor__apartment" data-apartment-type="1s" data-apartment-room="1" data-apartment-area="30,43" data-apartment-price="1 800 000" fill-rule="evenodd" fill="#ABE1FA" d="M705.7,221.6L705.7,221.6H815H705.7z M705.7,221.6H815V245L705.7,221.6z M795.1,406.6
	v-0.8c-0.6,0-1-0.3-1.2-0.7c-0.1-0.2-0.1-0.4-0.1-0.6c0-0.4,0.4-0.7,0.9-0.9c0.1-0.1,0.3-0.2,0.5-0.3v-9.5h-17.7v12.7H795.1z
	 M810.7,406.6h-83.4l83.4,24.1V406.6L810.7,406.6z M727.3,406.6l83.4,24.1h-83.4V406.6z M815,271.7h-82.7L815,393.8V271.7L815,271.7
	z M732.3,271.7L815,393.8h-82.7V271.7z M815,245H705.7L815,271.7V245L815,245z M705.7,245L815,271.7h-82.7L705.7,245z M705.7,221.6
	V245H815L705.7,221.6z"/>
</svg>
