<svg class="svg-floor-map" version="1.2" baseProfile="tiny"
	 xmlns="http://www.w3.org/2000/svg" xmlns:xlink="http://www.w3.org/1999/xlink" x="0px" y="0px" viewBox="0 0 827.4 433.2"
	 xml:space="preserve">
<path data-apartment-token="b2_s1_a2-2" class="map-floor__apartment-2 map-floor__apartment" data-apartment-type="2" data-apartment-room="2" data-apartment-area="60,33" data-apartment-price="3 540 000" fill-rule="evenodd" fill="#BCD640" stroke="#BCD640" stroke-width="0.216" stroke-miterlimit="22.9256" d="M800.5,252h-12.7
	v-17.7h9.5c0.1,0.2,0.2,0.4,0.3,0.5c0.1,0.5,0.5,0.9,0.9,0.9c0.2,0,0.4,0,0.6-0.1c0.4-0.2,0.7-0.6,0.7-1.2h0.8V252z M800.5,298.1
	h24.1l-24.1-83.3V298.1L800.5,298.1z M824.6,214.8h-24.1l24.1,83.3V214.8z M615.8,393.8h172l-172-177.6V393.8L615.8,393.8z
	 M787.8,216.2h-172l172,177.6V216.2z"/>
<path data-apartment-token="b2_s1_a2-1" class="map-floor__apartment-2 map-floor__apartment sold" data-apartment-type="2" data-apartment-room="2" data-apartment-area="58,55" data-apartment-price="3 320 000" fill-rule="evenodd" fill="#BCD640" d="M800.5,213h24.1l-24.1-83.3V213L800.5,213z M824.6,213l-24.1-83.3h24.1V213z
	 M800.5,176.1h-12.7v17.7h9.5c0.1-0.2,0.2-0.4,0.3-0.5c0.1-0.5,0.5-0.9,0.9-0.9c0.2,0,0.4,0,0.6,0.1c0.4,0.2,0.7,0.6,0.7,1.2h0.8
	V176.1z M615.8,211.8V39.6l172,172.2H615.8L615.8,211.8z M787.8,211.8l-172-172.2h172V211.8z"/>
<path data-apartment-token="b2_s1_a1p-3" class="map-floor__apartment-1p map-floor__apartment" data-apartment-type="1p" data-apartment-room="1" data-apartment-area="40,43" data-apartment-price="1 700 000" fill-rule="evenodd" fill="#B0ACD5" stroke="#B0ACD5" stroke-width="0.216" stroke-miterlimit="22.9256" d="M491.4,406.6v-0.8
	c0.6,0,1-0.3,1.2-0.7c0.1-0.2,0.1-0.4,0.1-0.6c0-0.4-0.3-0.7-0.8-0.9c-0.1-0.1-0.3-0.2-0.5-0.3v-9.5h17.3v12.7H491.4z M475.1,393.8
	h136.3L475.1,244.1V393.8L475.1,393.8z M611.4,244.1H475.1l136.3,149.8V244.1z M464.2,430.7h73.7l-73.7-24.1V430.7L464.2,430.7z
	 M537.8,406.6h-73.7l73.7,24.1V406.6z"/>
<path data-apartment-token="b2_s1_a1p-2" class="map-floor__apartment-1p map-floor__apartment" data-apartment-type="1p" data-apartment-room="1" data-apartment-area="39,09" data-apartment-price="1 800 000" fill-rule="evenodd" fill="#B0ACD5" d="M611.4,183.8L611.4,183.8H475.1H611.4z M611.4,183.8H475.1V39.6L611.4,183.8z
	 M540.5,26.9V2.8l81.1,24.1H540.5L540.5,26.9z M621.6,26.9L540.5,2.8h81.1V26.9z M578.1,26.9v12.7h17.7v-9.5
	c-0.2-0.1-0.4-0.2-0.5-0.3c-0.5-0.1-0.9-0.5-0.9-0.9c0-0.2,0-0.4,0.1-0.6c0.2-0.4,0.6-0.7,1.2-0.7v-0.8H578.1z M611.4,183.8V39.6
	H475.1L611.4,183.8z"/>
<path data-apartment-token="b2_s1_a1s-4" class="map-floor__apartment-1s map-floor__apartment" data-apartment-type="1s" data-apartment-room="1" data-apartment-area="33,30" data-apartment-price="2 370 000" fill-rule="evenodd" fill="#ABE1FA" d="M225.7,430.7H336l-110.3-24.1V430.7L225.7,430.7z M336,430.7l-110.3-24.1H336V430.7z
	 M285.7,406.6v-12.7h-17.3v9.5c0.2,0.1,0.4,0.2,0.5,0.3c0.5,0.1,0.8,0.5,0.8,0.9c0,0.2,0,0.4-0.1,0.6c-0.2,0.4-0.6,0.7-1.2,0.7v0.8
	H285.7z M323.4,393.8L323.4,393.8H213.8H323.4z M323.4,393.8H213.8V244.2L323.4,393.8z M323.4,393.8l-0.1-149.6H213.8L323.4,393.8z"
	/>
<path data-apartment-token="b2_s1_a1p-1" class="map-floor__apartment-1p map-floor__apartment" data-apartment-type="1p" data-apartment-room="1" data-apartment-area="41,77" data-apartment-price="1 500 000" fill-rule="evenodd" fill="#B0ACD5" stroke="#B0ACD5" stroke-width="0.216" stroke-miterlimit="22.9256" d="M386.7,26.9v0.8
	c-0.6,0-1,0.3-1.2,0.7c-0.1,0.2-0.1,0.4-0.1,0.6c0,0.4,0.4,0.7,0.9,0.9c0.1,0.1,0.3,0.2,0.5,0.3v9.5H369V26.9H386.7z M343.4,26.9
	H477L343.4,2.8V26.9L343.4,26.9z M477,2.8H343.4L477,26.9V2.8z M327.7,183.8h142.9l0,0H327.7z M327.7,39.6v144.2h142.9L327.7,39.6z
	 M470.6,183.8V39.6H327.7L470.6,183.8z"/>
<path data-apartment-token="b2_s1_a1s-3" class="map-floor__apartment-1s map-floor__apartment" data-apartment-type="1s" data-apartment-room="1" data-apartment-area="33,03" data-apartment-price="2 340 000" fill-rule="evenodd" fill="#ABE1FA" stroke="#ABE1FA" stroke-width="0.216" stroke-miterlimit="22.9256" d="M282.6,26.9v12.7
	h-17.7v-9.5c0.2-0.1,0.4-0.2,0.5-0.3c0.5-0.1,0.9-0.5,0.9-0.9c0-0.2,0-0.4-0.1-0.6c-0.2-0.4-0.6-0.7-1.2-0.7v-0.8H282.6z
	 M222.6,26.9h119l-119-24.1V26.9L222.6,26.9z M341.6,2.8h-119l119,24.1V2.8z M213.8,183.8h109.4L213.8,39.6V183.8L213.8,183.8z
	 M323.3,39.6H213.8l109.4,144.2V39.6z"/>
<path data-apartment-token="b2_s1_a1s-5" class="map-floor__apartment-1s map-floor__apartment" data-apartment-type="1s" data-apartment-room="1" data-apartment-area="32,76" data-apartment-price="1 800 000" fill-rule="evenodd" fill="#ABE1FA" d="M99.8,268.1h109.4l-85.4-23.9L99.8,268.1L99.8,268.1z M209.3,268.1l-85.4-23.9h85.4
	V268.1z M117.1,406.6v-0.8c0.6,0,1-0.3,1.2-0.7c0.1-0.2,0.1-0.4,0.1-0.6c0-0.4-0.4-0.7-0.9-0.9c-0.1-0.1-0.3-0.2-0.5-0.3v-9.5h17.7
	v12.7H117.1z M99.8,393.8h109.4L99.8,268.1V393.8L99.8,393.8z M209.3,268.1H99.8l109.4,125.8V268.1z M110.6,430.7h113.3l-113.3-24.1
	V430.7L110.6,430.7z M223.9,406.6H110.6l113.3,24.1V406.6z"/>
<path data-apartment-token="b2_s1_a1s-2" class="map-floor__apartment-1s map-floor__apartment" data-apartment-type="1s" data-apartment-room="1" data-apartment-area="32,45" data-apartment-price="3 450 000" fill-rule="evenodd" fill="#ABE1FA" stroke="#ABE1FA" stroke-width="0.216" stroke-miterlimit="22.9256" d="M209.3,183.8
	L209.3,183.8h-85.4H209.3z M209.3,183.8h-85.4l-24-23.9L209.3,183.8z M131.6,26.9v12.7h-17.7v-9.5c0.2-0.1,0.4-0.2,0.5-0.3
	c0.5-0.1,0.9-0.5,0.9-0.9c0-0.2,0-0.4-0.1-0.6c-0.2-0.4-0.6-0.7-1.2-0.7v-0.8H131.6z M101.8,26.9h119l-119-24.1V26.9L101.8,26.9z
	 M220.8,2.8h-119l119,24.1V2.8z M99.8,160h109.4L99.8,39.6V160L99.8,160z M209.3,39.6H99.8L209.3,160V39.6z M209.3,183.8V160H99.8
	L209.3,183.8z"/>
<path data-apartment-token="b2_s1_a1s-6" class="map-floor__apartment-1s map-floor__apartment" data-apartment-type="1s" data-apartment-room="1" data-apartment-area="31,61" data-apartment-price="2 300 000" fill-rule="evenodd" fill="#ABE1FA" d="M12.7,266.3h82.7v127.6L12.7,266.3z M53.4,406.6v-12.7H36v9.5c0.2,0.1,0.4,0.2,0.5,0.3
	c0.5,0.1,0.8,0.5,0.8,0.9c0,0.2,0,0.4-0.1,0.6c-0.2,0.4-0.6,0.7-1.2,0.7v0.8H53.4z M12.7,239.8H122L12.7,216.2V239.8L12.7,239.8z
	 M122.2,216.2H12.7L122,239.8L122.2,216.2z M12.7,266.3h82.7l-82.7-26.5V266.3L12.7,266.3z M122,239.8H12.7l82.7,26.5L122,239.8z
	 M95.4,393.8L95.4,393.8H12.7H95.4z M12.7,266.3v127.6h82.7L12.7,266.3z M26.5,430.7h82.3l-82.3-24.1V430.7L26.5,430.7z
	 M108.8,406.6H26.5l82.3,24.1V406.6z"/>
<path data-apartment-token="b2_s1_a1s-1" class="map-floor__apartment-1s map-floor__apartment" data-apartment-type="1s" data-apartment-room="1" data-apartment-area="30,43" data-apartment-price="1 800 000" fill-rule="evenodd" fill="#ABE1FA" d="M122,211.8L122,211.8H12.7H122z M122,211.8H12.7v-23.4L122,211.8z M12.7,161.8V39.6
	l82.7,122.2H12.7L12.7,161.8z M95.4,161.8L12.7,39.6h82.7V161.8z M16.7,26.9h2.4V2.8h-2.4V26.9z M32.6,26.9v0.8c0.6,0,1,0.3,1.2,0.7
	c0.1,0.2,0.1,0.4,0.1,0.6c0,0.4-0.4,0.7-0.9,0.9c-0.1,0.1-0.3,0.2-0.5,0.3v9.5h17.7V26.9H32.6z M19.1,26.9V2.8l83.4,24.1H19.1
	L19.1,26.9z M102.5,26.9L19.1,2.8h83.4V26.9z M12.7,188.4v-26.6L122,188.4H12.7L12.7,188.4z M122,188.4L12.7,161.8h82.7L122,188.4z
	 M122,211.8v-23.4H12.7L122,211.8z"/>
</svg>
