<svg class="svg-floor-map" version="1.2" baseProfile="tiny"
	 xmlns="http://www.w3.org/2000/svg" xmlns:xlink="http://www.w3.org/1999/xlink" x="0px" y="0px" viewBox="0 0 627.6 467.2"
	 xml:space="preserve">
<path  data-apartment-token="b1_s2_a2-2" class="map-floor__apartment-2 map-floor__apartment" data-apartment-type="2" data-apartment-room="2" data-apartment-area="57,99" data-apartment-price="5 280 000" fill-rule="evenodd" fill="#BCD640" d="M487.7,415.1V432h-23.4v-0.5c1,0,1.6-0.7,1.4-1.4c0-0.1-0.1-0.3-0.1-0.4
	c-0.1-0.5-0.6-0.9-1.3-1v-13.7L487.7,415.1z M542.5,415.1h79.2V54.6h-79.2V415.1z M428.3,415.1h114.2V221.7H428.3V415.1z
	 M438.9,463.7h98.5l13-10.2V432H438.9V463.7z"/>
<path data-apartment-token="b1_s2_a2-1" class="map-floor__apartment-2 map-floor__apartment" data-apartment-type="2" data-apartment-room="2" data-apartment-area="46,74" data-apartment-price="2 150 000" fill-rule="evenodd" fill="#BCD640" stroke="#BCD640" stroke-width="0.216" stroke-miterlimit="22.9256" d="M324.3,54.6V38.1
	h23.4v0.5c-1,0-1.6,0.7-1.4,1.4c0,0.1,0.1,0.3,0.1,0.4c0.1,0.5,0.6,0.9,1.3,0.9v13.4L324.3,54.6z M287.6,215.7h249V54.6h-249V215.7z
	 M282.1,38.1h174.1V3.4H282.1V38.1z"/>
<path data-apartment-token="b1_s2_a1p-1" class="map-floor__apartment-1p map-floor__apartment" data-apartment-type="1p" data-apartment-room="1" data-apartment-area="33,62" data-apartment-price="1 320 000" fill-rule="evenodd" fill="#B0ACD5" d="M213.8,54.6V41.2c0.7,0,1.2-0.4,1.3-0.9c0.1-0.1,0.1-0.3,0.1-0.4
	c0.2-0.7-0.4-1.4-1.4-1.4v-0.5h23.4v16.5L213.8,54.6z M105.6,215.7h176.1V54.6H105.6V215.7z M105.2,38.1h174.5V3.4H105.2V38.1z"/>
<path data-apartment-token="b1_s2_a3-1" class="map-floor__apartment-3 map-floor__apartment" data-apartment-type="3" data-apartment-room="3" data-apartment-area="73,13" data-apartment-price="5 340 000" fill-rule="evenodd" fill="#DEB9D8" d="M165.1,463.8H90L76.6,454v-22h88.5V463.8z M125.5,415.1V432h23.4v-0.5
	c-1,0-1.6-0.7-1.4-1.4c0-0.1,0.1-0.3,0.1-0.4c0.1-0.5,0.6-0.9,1.3-1V415L125.5,415.1z M99.7,280.4h79.2v-58.7H99.7V280.4z
	 M11.9,280.4h87.8V54.6H11.9V280.4z M11.9,415.1h269.9V280.4H11.9V415.1z M182,450.5h99.7v-35.5H182V450.5z"/>
</svg>
