<svg class="svg-floor-map"version="1.2" baseProfile="tiny"
	 xmlns="http://www.w3.org/2000/svg" xmlns:xlink="http://www.w3.org/1999/xlink" x="0px" y="0px" viewBox="0 0 631.5 467.8"
	 xml:space="preserve">
<path data-apartment-token="b1_s3_a3-1" class="map-floor__apartment-3 map-floor__apartment" data-apartment-type="3" data-apartment-room="3" data-apartment-area="73,99" data-apartment-price="6 800 000" fill-rule="evenodd" fill="#DEB9D8" d="M129.8,53.3V36.1h23.4v0.5c-1,0-1.6,0.7-1.4,1.4c0,0.1,0.1,0.3,0.1,0.4
	c0.1,0.5,0.6,0.9,1.3,1v14L129.8,53.3z M169,4.4H93.8l-13.4,9.8v22H169V4.4z M109.6,246.5H15.8v167h93.8V246.5z M182.9,187.8h-167
	v58.7h167V187.8z M285.7,17.6H186v35.5h99.7V17.6z M285.7,53.1H15.8v134.7h269.8V53.1z"/>
<path data-apartment-token="b1_s3_a1p-1" class="map-floor__apartment-1p map-floor__apartment" data-apartment-type="1p" data-apartment-room="1" data-apartment-area="32,36" data-apartment-price="1 300 000" fill-rule="evenodd" fill="#B0ACD5" d="M242.7,413.6v16.5h-23.4v-0.5c1,0,1.6-0.7,1.4-1.4c0-0.1-0.1-0.3-0.1-0.4
	c-0.1-0.5-0.6-0.9-1.3-0.9v-13.4L242.7,413.6z M283.3,430.1H108.8v34.7h174.5V430.1z M285.7,252.4H115.5v161.1h170.2V252.4z"/>
<path data-apartment-token="b1_s3_a2-2" class="map-floor__apartment-2 map-floor__apartment" data-apartment-type="2" data-apartment-room="2" data-apartment-area="46,80" data-apartment-price="2 343 000" fill-rule="evenodd" fill="#BCD640" d="M349.6,413.5v13.4c-0.7,0-1.2,0.4-1.3,0.9c-0.1,0.1-0.1,0.3-0.1,0.4
	c-0.2,0.7,0.4,1.4,1.4,1.4v0.5h-23.4v-16.5L349.6,413.5z M459.8,430.1H285.3v34.7h174.5V430.1z M540.6,252.4h-249v161.1h249V252.4z"
	/>
<path data-apartment-token="b1_s3_a2-1" class="map-floor__apartment-2 map-floor__apartment" data-apartment-type="2" data-apartment-room="2" data-apartment-area="57,99" data-apartment-price="3 485 000" fill-rule="evenodd" fill="#BCD640" d="M464.6,53.1V39.9c0.7,0,1.2-0.4,1.3-0.9c0.1-0.1,0.1-0.3,0.1-0.4
	c0.2-0.7-0.4-1.3-1.4-1.3v-0.5h23.4v16.3L464.6,53.1z M442.9,36.7h102V16L533.4,4.6l-90.5,0.3V36.7z M546.5,53.1H432.2v193.4h114.2
	V53.1z M625.7,53.1h-79.2v360.5h79.2V53.1z"/>
</svg>
