<svg version="1.2" baseProfile="tiny" id="Слой_1"
	 xmlns="http://www.w3.org/2000/svg" xmlns:xlink="http://www.w3.org/1999/xlink" x="0px" y="0px" viewBox="0 0 627.1 467.2"
	 xml:space="preserve">
<path data-apartment-token="b1_s3_a3-1" class="map-floor__apartment-3 map-floor__apartment" data-apartment-type="3" fill-rule="evenodd" fill="#DEB9D8" d="M501.7,415.1V432h-23.4v-0.5c1,0,1.6-0.7,1.4-1.4c0-0.1-0.1-0.3-0.1-0.4
	c-0.1-0.5-0.6-0.9-1.3-1V415L501.7,415.1z M462.5,463.8h75.2l13.4-9.8v-22h-88.5V463.8z M521.9,221.7h93.8v-167h-93.8V221.7z
	 M448.6,280.4h167v-58.7h-167V280.4z M345.8,450.5h99.7v-35.5h-99.7V450.5z M345.8,415.1h269.8V280.4H345.8V415.1z"/>
<path data-apartment-token="b1_s3_a1p-1" class="map-floor__apartment-1p map-floor__apartment" data-apartment-type="1p" fill-rule="evenodd" fill="#B0ACD5" d="M388.8,54.6V38.1h23.4v0.5c-1,0-1.6,0.7-1.4,1.4c0,0.1,0.1,0.3,0.1,0.4
	c0.1,0.5,0.6,0.9,1.3,0.9v13.4L388.8,54.6z M348.2,38.1h174.5V3.4H348.2V38.1z M345.8,215.7H516V54.6H345.8V215.7z"/>
<path data-apartment-token="b1_s3_a2-2" class="map-floor__apartment-2 map-floor__apartment" data-apartment-type="2" fill-rule="evenodd" fill="#BCD640" d="M281.9,54.6V41.2c0.7,0,1.2-0.4,1.3-0.9c0.1-0.1,0.1-0.3,0.1-0.4
	c0.2-0.7-0.4-1.4-1.4-1.4v-0.5h23.4v16.5L281.9,54.6z M171.7,38.1h174.5V3.4H171.7V38.1z M90.9,215.7h249V54.6h-249V215.7z"/>
<path data-apartment-token="b1_s3_a2-1" class="map-floor__apartment-2 map-floor__apartment" data-apartment-type="2" fill-rule="evenodd" fill="#BCD640" d="M166.9,415.1v13.2c-0.7,0-1.2,0.4-1.3,0.9c-0.1,0.1-0.1,0.3-0.1,0.4
	c-0.2,0.7,0.4,1.3,1.4,1.3v0.5h-23.4v-16.3L166.9,415.1z M188.6,431.4h-102v20.7l11.5,11.4l90.5-0.3V431.4z M85,415.1h114.2V221.7
	H85V415.1z M5.9,415.1H85V54.6H5.9V415.1z"/>
</svg>
