<svg class="svg-floor-map" version="1.2" baseProfile="tiny"
	 xmlns="http://www.w3.org/2000/svg" xmlns:xlink="http://www.w3.org/1999/xlink" x="0px" y="0px" viewBox="0 0 665 467.2"
	 xml:space="preserve">
<path data-apartment-token="b1_s1_a3-1" class="map-floor__apartment-3 map-floor__apartment" data-apartment-type="3" data-apartment-room="3" data-apartment-area="76,50" data-apartment-price="4 250 000" fill-rule="evenodd" fill="#DEB9D8" d="M609.9,360.1h16.5v23.4h-0.5c0-1-0.7-1.6-1.4-1.4c-0.1,0-0.3,0.1-0.4,0.1
	c-0.5,0.1-0.9,0.6-0.9,1.3h-13.4L609.9,360.1z M626.4,452.7h34.7V280.9h-34.7V452.7z M528.3,450.3h81.5V54.4h-81.5V450.3z
	 M345.9,450.3h182.4V280.1H345.9V450.3z M528.3,251h-99.6l-29.6,29.2l129.2,0V251z"/>
<path data-apartment-token="b1_s1_a1p-1" class="map-floor__apartment-1p map-floor__apartment" data-apartment-type="1p" data-apartment-room="1" data-apartment-area="36,89" data-apartment-price="2 320 000" fill-rule="evenodd" fill="#B0ACD5" d="M396,54.4V37.8h23.4v0.5c-1,0-1.6,0.7-1.4,1.4c0,0.1,0.1,0.3,0.1,0.4
	c0.1,0.5,0.6,0.9,1.3,0.9v13.4L396,54.4z M345.9,215.2H522V54.4H345.9V215.2z M399.5,215.2l30.3,30.1H522v-30.1L399.5,215.2z
	 M346.7,37.9h174.5V3.2H346.7V37.9z"/>
<path data-apartment-token="b1_s1_a2-2" class="map-floor__apartment-2 map-floor__apartment" data-apartment-type="2" data-apartment-room="2" data-apartment-area="46,75" data-apartment-price="1 300 000" fill-rule="evenodd" fill="#BCD640" d="M281.9,54.4V41c0.7,0,1.2-0.4,1.3-0.9c0.1-0.1,0.1-0.3,0.1-0.4c0.2-0.7-0.4-1.4-1.4-1.4
	v-0.5h23.4v16.5L281.9,54.4z M91,215.5h249V54.4H91V215.5z M170.2,37.9h174.1V3.2H170.2V37.9z"/>
<path data-apartment-token="b1_s1_a2-1" class="map-floor__apartment-2 map-floor__apartment sold" data-apartment-type="2" data-apartment-room="2" data-apartment-area="58,00" data-apartment-price="1 400 000" fill-rule="evenodd" fill="#BCD640" d="M162.9,414.8v13.7c-0.7,0-1.2,0.5-1.3,1c-0.1,0.1-0.1,0.3-0.1,0.4
	c-0.2,0.7,0.4,1.4,1.4,1.4v0.5h-23.4v-16.9L162.9,414.8z M5.9,414.9h79.2V54.4H5.9V414.9z M199.4,221.4H85.1v193.4h114.3V221.4z
	 M77.6,454l12,9.3h99.1v-31.5H77.6V454z"/>
</svg>
