<svg class="svg-floor-map" version="1.2" baseProfile="tiny"
	 xmlns="http://www.w3.org/2000/svg" xmlns:xlink="http://www.w3.org/1999/xlink" x="0px" y="0px" viewBox="0 0 700.6 433.2"
	 xml:space="preserve">
<path data-apartment-token="b2_s2_a1s-5" class="map-floor__apartment-1s map-floor__apartment" data-apartment-type="1s" data-apartment-room="1" data-apartment-area="31,48" data-apartment-price="1 220 000" fill-rule="evenodd" fill="#ABE1FA" stroke="#ABE1FA" stroke-width="0.216" stroke-miterlimit="22.9256" d="M48.6,26.8v12.7
	H31.3V30c0.2-0.1,0.4-0.2,0.5-0.3c0.5-0.1,0.8-0.5,0.8-0.9c0-0.2,0-0.4-0.1-0.6c-0.2-0.4-0.6-0.7-1.2-0.7v-0.8H48.6z M118.8,193.6
	v23.5L9.6,193.6H118.8L118.8,193.6z M9.6,217.1h109.2L9.6,193.6V217.1z M92.2,167l26.6,26.5L9.6,167H92.2L92.2,167z M9.6,193.6
	h109.2L9.6,167V193.6z M92.2,39.5V167L9.6,39.5H92.2L92.2,39.5z M9.6,167h82.6L9.6,39.5V167z M97,2.6v24.1L24.3,2.6H97L97,2.6z
	 M24.3,26.8H97L24.3,2.6V26.8z"/>
<path data-apartment-token="b2_s2_a1s-4" class="map-floor__apartment-1s map-floor__apartment" data-apartment-type="1s" data-apartment-room="1" data-apartment-area="30,43" data-apartment-price="1 800 000" fill-rule="evenodd" fill="#ABE1FA" d="M118.8,244.9H9.6l82.6,26.6L118.8,244.9L118.8,244.9z M9.6,244.9l82.6,26.6H9.6V244.9z
	 M33.6,406.4v-0.8c0.6,0,1-0.3,1.2-0.7c0.1-0.2,0.1-0.4,0.1-0.6c0-0.4-0.4-0.7-0.9-0.9c-0.1-0.1-0.3-0.2-0.5-0.3v-9.5h17.7v12.7
	H33.6z M99.3,406.4v24.1L16,406.4H99.3L99.3,406.4z M16,430.6h83.3L16,406.4V430.6z M92.2,271.6v122.2L9.6,271.6H92.2L92.2,271.6z
	 M9.6,393.7h82.6L9.6,271.6V393.7z M118.8,221.5H9.6l0,0H118.8z M118.8,244.9v-23.4H9.6L118.8,244.9z M9.6,221.5v23.4h109.2
	L9.6,221.5z"/>
<path data-apartment-token="b2_s2_a1p-3" class="map-floor__apartment-1p map-floor__apartment" data-apartment-type="1p" data-apartment-room="1" data-apartment-area="39,59" data-apartment-price="1 230 000" fill-rule="evenodd" fill="#B0ACD5" d="M232.9,165.2V39.5H96.9L232.9,165.2z M232.9,165.2H96.7l0.1-125.8L232.9,165.2z
	 M199,26.8v12.7h17.3V30c-0.2-0.1-0.4-0.2-0.5-0.3c-0.5-0.1-0.8-0.5-0.8-0.9c0-0.2,0-0.4,0.1-0.6c0.2-0.4,0.6-0.7,1.2-0.7v-0.8H199z
	 M232.9,165.2v23.9L96.7,165.2H232.9L232.9,165.2z M120.6,189.1h112.3L96.7,165.2L120.6,189.1z M243.9,2.6v24.1L170.2,2.6H243.9
	L243.9,2.6z M170.2,26.8h73.7L170.2,2.6V26.8z"/>
<path data-apartment-token="b2_s2_a1p-2" class="map-floor__apartment-1p map-floor__apartment" data-apartment-type="1p" data-apartment-room="1" data-apartment-area="38,41" data-apartment-price="1 456 000" fill-rule="evenodd" fill="#B0ACD5" stroke="#B0ACD5" stroke-width="0.216" stroke-miterlimit="22.9256" d="M96.7,393.7h136.2
	L96.7,273.4V393.7z M114.6,406.4v-0.8c0.6,0,1-0.3,1.2-0.7c0.1-0.2,0.1-0.4,0.1-0.6c0-0.4-0.4-0.7-0.9-0.9c-0.1-0.1-0.3-0.2-0.5-0.3
	v-9.5h17.7v12.7H114.6z M184.3,406.4v24.1l-83.3-24.1H184.3L184.3,406.4z M101.1,430.6h83.3l-83.3-24.1V430.6z M232.9,273.4v120.4
	L96.7,273.4H232.9L232.9,273.4z M232.9,273.4v-23.9H120.6L232.9,273.4z M120.6,249.5l-23.9,23.9h136.2L120.6,249.5z"/>
<path data-apartment-token="b2_s2_a1p-1" class="map-floor__apartment-1p map-floor__apartment" data-apartment-type="1p" data-apartment-room="1" data-apartment-area="41,52" data-apartment-price="2 200 000" fill-rule="evenodd" fill="#B0ACD5" stroke="#B0ACD5" stroke-width="0.216" stroke-miterlimit="22.9256" d="M228.4,430.6h133.6
	l-133.6-24.1V430.6z M380.4,249.5v144.2l-143-144.2H380.4L380.4,249.5z M318,406.3v-0.7c0.6,0,1-0.3,1.2-0.7
	c0.1-0.2,0.1-0.4,0.1-0.6c0-0.4-0.4-0.7-0.9-0.9c-0.1-0.1-0.3-0.2-0.5-0.3v-9.3h17.7v12.5H318z M361.9,406.4v24.1l-133.6-24.1H361.9
	L361.9,406.4z M237.4,393.7h143l-143-144.2V393.7z"/>
<path data-apartment-token="b2_s2_a1s-6" class="map-floor__apartment-1s map-floor__apartment sold" data-apartment-type="1s" data-apartment-room="1" data-apartment-area="33,28" data-apartment-price="1 540 000" fill-rule="evenodd" fill="#ABE1FA" stroke="#ABE1FA" stroke-width="0.216" stroke-miterlimit="22.9256" d="M418.1,26.8v12.7
	h-18.2V30c0.2-0.1,0.4-0.2,0.5-0.3c0.5-0.1,0.9-0.5,0.9-0.9c0-0.2,0-0.4-0.1-0.6c-0.2-0.4-0.6-0.7-1.3-0.7v-0.8H418.1z M494.3,39.5
	v149.6L384.9,39.5H494.3L494.3,39.5z M384.9,189.1h109.4L384.9,39.5V189.1z M480.6,2.6v24.1L372.1,2.6H480.6L480.6,2.6z M372.1,26.8
	h108.5L372.1,2.6V26.8z"/>
<path data-apartment-token="b2_s2_a1s-3" class="map-floor__apartment-1s map-floor__apartment" data-apartment-type="1s" data-apartment-room="1" data-apartment-area="33,03" data-apartment-price="1 754 000" fill-rule="evenodd" fill="#ABE1FA" stroke="#ABE1FA" stroke-width="0.216" stroke-miterlimit="22.9256" d="M422.2,406.5v-12.7
	h17.7v9.5c-0.2,0.1-0.4,0.2-0.5,0.3c-0.5,0.1-0.9,0.5-0.9,0.9c0,0.2,0,0.4,0.1,0.6c0.2,0.4,0.6,0.7,1.2,0.7v0.8H422.2z M482.8,406.4
	v24.1l-119-24.1H482.8L482.8,406.4z M363.7,430.6h119l-119-24.1V430.6z M494.3,249.5v144.2L384.9,249.5H494.3L494.3,249.5z
	 M384.9,393.7h109.4L384.9,249.5V393.7z"/>
<path data-apartment-token="b2_s2_a1s-7" class="map-floor__apartment-1s map-floor__apartment" data-apartment-type="1s" data-apartment-room="1" data-apartment-area="32,78" data-apartment-price="2 300 000" fill-rule="evenodd" fill="#ABE1FA" d="M608.2,165.2H498.7V39.5L608.2,165.2z M573.1,26.8v12.7h17.7V30
	c-0.2-0.1-0.4-0.2-0.5-0.3c-0.5-0.1-0.9-0.5-0.9-0.9c0-0.2,0-0.4,0.1-0.6c0.2-0.4,0.6-0.7,1.2-0.7v-0.8H573.1z M608.2,165.2
	l-24,23.9l-85.4-23.9H608.2L608.2,165.2z M498.7,189.1h85.4l-85.4-23.9V189.1z M498.7,39.5L498.7,39.5h109.6H498.7z M608.2,165.2
	l0.1-125.8H498.7L608.2,165.2z M596.5,2.6v24.1L482.4,2.6H596.5L596.5,2.6z M482.4,26.8h114.1L482.4,2.6V26.8z"/>
<path data-apartment-token="b2_s2_a1s-2" class="map-floor__apartment-1s map-floor__apartment" data-apartment-type="1s" data-apartment-room="1" data-apartment-area="32,37" data-apartment-price="1 800 000" fill-rule="evenodd" fill="#ABE1FA" d="M608.2,273.4l-23.6-23.6H499L608.2,273.4L608.2,273.4z M584.5,249.7H499l85.2-0.2
	L584.5,249.7z M573.1,406.4v-12.7h17.4v9.5c-0.2,0.1-0.4,0.2-0.5,0.3c-0.5,0.1-0.8,0.5-0.8,0.9c0,0.2,0,0.4,0.1,0.6
	c0.2,0.4,0.6,0.7,1.2,0.7v0.8H573.1z M598.2,406.4H484.6l113.6,24.1V406.4L598.2,406.4z M484.6,406.4l113.6,24.1H484.6V406.4z
	 M608.2,273.4H499l109.2,120.4V273.4L608.2,273.4z M499,273.4l109.2,120.4H498.7L499,273.4z M608.2,273.4H499v-23.6L608.2,273.4z"/>
<path data-apartment-token="b2_s2_a1s-8" class="map-floor__apartment-1s map-floor__apartment" data-apartment-type="1s" data-apartment-room="1" data-apartment-area="29,40" data-apartment-price="1 900 000" fill-rule="evenodd" fill="#ABE1FA" stroke="#ABE1FA" stroke-width="0.216" stroke-miterlimit="22.9256" d="M666.4,26.8v0.8
	c-0.6,0-1,0.3-1.2,0.7c-0.1,0.2-0.1,0.4-0.1,0.6c0,0.4,0.4,0.7,0.9,0.9c0.1,0.1,0.3,0.2,0.5,0.3v9.5h-17.7V26.8H666.4z M688.9,193.6
	v23.5l-102.8-23.5H688.9L688.9,193.6z M586.1,217.1h102.8l-102.8-23.5V217.1z M688.9,167v26.5L612.6,167H688.9L688.9,167z
	 M586.1,193.6h102.8L612.6,167L586.1,193.6z M688.9,39.5V167L612.6,39.5H688.9L688.9,39.5z M612.6,167h76.3L612.6,39.5V167z
	 M675.9,2.6v24.1L598.3,2.6H675.9L675.9,2.6z M598.3,26.8h77.5L598.3,2.6V26.8z"/>
<path data-apartment-token="b2_s2_a1s-1" class="map-floor__apartment-1s map-floor__apartment" data-apartment-type="1s" data-apartment-room="1" data-apartment-area="28,66" data-apartment-price="1 800 000" fill-rule="evenodd" fill="#ABE1FA" stroke="#ABE1FA" stroke-width="0.216" stroke-miterlimit="22.9256" d="M648.5,406.4v-12.7
	h17.7v9.5c-0.2,0.1-0.4,0.2-0.5,0.3c-0.5,0.1-0.9,0.5-0.9,0.9c0,0.2,0,0.4,0.1,0.6c0.2,0.4,0.6,0.7,1.2,0.7v0.8H648.5z M688.9,221.5
	v23.4l-102.8-23.4H688.9L688.9,221.5z M586.1,244.9h102.8l-102.8-23.4V244.9z M683.4,406.4v24.1L600,406.4H683.4L683.4,406.4z
	 M600,430.6h83.4L600,406.4V430.6z M688.9,271.6v122.2l-76.3-122.2H688.9L688.9,271.6z M612.6,393.7h76.3l-76.3-122.2V393.7z
	 M688.9,244.9v26.6l-102.8-26.6H688.9L688.9,244.9z M612.6,271.6h76.3l-102.8-26.6L612.6,271.6z"/>
</svg>
