<svg version="1.2" baseProfile="tiny" id="Слой_1"
	 xmlns="http://www.w3.org/2000/svg" xmlns:xlink="http://www.w3.org/1999/xlink" x="0px" y="0px" viewBox="0 0 669.1 433.2"
	 xml:space="preserve">
<path data-apartment-token="b2_s3_a1s-4" class="map-floor__room-1s map-floor__room" data-room="1s" fill-rule="evenodd" fill="#ABE1FA" stroke="#ABE1FA" stroke-width="0.216" stroke-miterlimit="22.9256" d="M586.5,406.3v-12.7
	h17.7v9.5c-0.2,0.1-0.4,0.2-0.5,0.3c-0.5,0.1-0.9,0.5-0.9,0.9c0,0.2,0,0.4,0.1,0.6c0.2,0.4,0.6,0.7,1.2,0.7v0.8H586.5z M551.5,393.6
	h112.4L551.5,244V393.6L551.5,393.6z M663.9,244H551.5l112.4,149.6V244z M540.9,430.4h72.8l-72.8-24.1V430.4L540.9,430.4z
	 M613.8,406.3h-72.8l72.8,24.1V406.3z"/>
<path data-apartment-token="b2_s3_a1s-3" class="map-floor__room-1s map-floor__room" data-room="1s" fill-rule="evenodd" fill="#ABE1FA" d="M587.2,239.3h76.4l-76.4,0.2V239.3z M587.2,188.2l76.4,51.1h-76.4V188.2L587.2,188.2z
	 M591.7,188.2V39.4l72.1,148.8H591.7L591.7,188.2z M663.8,188.2L591.7,39.4h72.2L663.8,188.2z M663.7,239.3l0.1-51.1h-76.6
	L663.7,239.3z"/>
<path data-apartment-token="b2_s3_a1p-1" class="map-floor__room-1p map-floor__room" data-room="1p" fill-rule="evenodd" fill="#B0ACD5" stroke="#B0ACD5" stroke-width="0.216" stroke-miterlimit="22.9256" d="M569.6,26.6v0.8
	c-0.6,0-1,0.3-1.2,0.7c-0.1,0.2-0.1,0.4-0.1,0.6c0,0.4,0.4,0.7,0.9,0.9c0.1,0.1,0.3,0.2,0.5,0.3v9.5h-17.7V26.6H569.6z M461.6,26.6
	h133.6L461.6,2.5V26.6L461.6,26.6z M595.2,2.5H461.6l133.6,24.1V2.5z M444.3,183.6h142.9L444.7,39.4L444.3,183.6L444.3,183.6z
	 M587.2,39.4H444.7l142.6,144.2V39.4z"/>
<path data-apartment-token="b2_s3_a1s-5" class="map-floor__room-1s map-floor__room" data-room="1s" fill-rule="evenodd" fill="#ABE1FA" stroke="#ABE1FA" stroke-width="0.216" stroke-miterlimit="22.9256" d="M406.8,406.3v-12.7
	h17.1v9.5c-0.2,0.1-0.4,0.2-0.5,0.3c-0.5,0.1-0.8,0.5-0.8,0.9c0,0.2,0,0.4,0.1,0.6c0.2,0.4,0.6,0.7,1.2,0.7v0.8H406.8z M371.4,430.4
	h81.5l-81.5-24.1V430.4L371.4,430.4z M452.8,406.3h-81.5l81.5,24.1V406.3z M330.3,393.6h109.6L330.3,244V393.6L330.3,393.6z
	 M439.9,244H330.3l109.6,149.6V244z"/>
<path data-apartment-token="b2_s3_a1s-6"  class="map-floor__room-1s map-floor__room" data-room="1s" fill-rule="evenodd" fill="#ABE1FA" d="M204.1,430.4h81.5l-81.5-24.1V430.4L204.1,430.4z M285.6,430.4l-81.5-24.1h81.5V430.4z
	 M250.4,406.3v-12.7h-17.7v9.5c0.2,0.1,0.4,0.2,0.5,0.3c0.5,0.1,0.9,0.5,0.9,0.9c0,0.2,0,0.4-0.1,0.6c-0.2,0.4-0.6,0.7-1.2,0.7v0.8
	H250.4z M216.4,393.6V244l109.4,149.6H216.4L216.4,393.6z M325.9,393.6L216.4,244h109.4V393.6z"/>
<path data-apartment-token="b2_s3_a1s-2" class="map-floor__room-1s map-floor__room" data-room="1s" fill-rule="evenodd" fill="#ABE1FA" d="M376.5,26.6h83.3L376.5,2.5V26.6L376.5,26.6z M459.8,26.6L376.5,2.5h83.3V26.6z
	 M406.6,26.6v12.7h17.7v-9.5c-0.2-0.1-0.4-0.2-0.5-0.3c-0.5-0.1-0.9-0.5-0.9-0.9c0-0.2,0-0.4,0.1-0.6c0.2-0.4,0.6-0.7,1.2-0.7v-0.8
	H406.6z M330.3,183.6V39.4l109.6,144.2H330.3L330.3,183.6z M439.9,183.6L330.3,39.4h109.6V183.6z"/>
<path data-apartment-token="b2_s3_a1s-1" class="map-floor__room-1s  map-floor__room" data-room="1s" fill-rule="evenodd" fill="#ABE1FA" d="M199.4,26.6h81l-81-24.1V26.6L199.4,26.6z M280.4,26.6l-81-24.1h81V26.6z M232.7,26.6
	v0.8c0.6,0,1,0.3,1.2,0.7c0.1,0.2,0.1,0.4,0.1,0.6c0,0.4-0.4,0.7-0.9,0.9c-0.1,0.1-0.3,0.2-0.5,0.3v9.5h17.7V26.6H232.7z
	 M216.4,183.6V39.4l109.4,144.2H216.4L216.4,183.6z M325.9,183.6L216.4,39.4h109.4V183.6z"/>
<path data-apartment-token="b2_s3_a2-2" class="map-floor__room-2 map-floor__room" data-room="2" fill-rule="evenodd" fill="#BCD640" d="M212,393.6L212,393.6H40H212z M3.2,298v-83.3L27.3,298H3.2L3.2,298z M212,393.6H40V216
	L212,393.6z M27.3,251.8H40V234h-9.5c-0.1,0.2-0.2,0.4-0.3,0.5c-0.1,0.5-0.5,0.9-0.9,0.9c-0.2,0-0.4,0-0.6-0.1
	c-0.4-0.2-0.7-0.6-0.7-1.2h-0.8V251.8z M27.3,298L3.2,214.7h24.1V298z M212,393.6V216H40L212,393.6z"/>
<path data-apartment-token="b2_s3_a2-1" class="map-floor__room-2 map-floor__room" data-room="2" fill-rule="evenodd" fill="#BCD640" d="M3.2,212.9h24.1L3.2,129.6V212.9L3.2,212.9z M27.3,212.9L3.2,129.6h24.1V212.9z
	 M27.3,193.2h0.8c0-0.6,0.3-1,0.7-1.2c0.2-0.1,0.4-0.1,0.6-0.1c0.4,0,0.7,0.4,0.9,0.9c0.1,0.1,0.2,0.3,0.3,0.5H40v-17.7H27.3V193.2z
	 M40,211.6V39.4l172,172.2H40L40,211.6z M212,211.6L40,39.4h172V211.6z"/>
</svg>
