<svg class="svg-floor-map" version="1.2" baseProfile="tiny"
	 xmlns="http://www.w3.org/2000/svg" xmlns:xlink="http://www.w3.org/1999/xlink" x="0px" y="0px" viewBox="0 0 674.8 433.2"
	 xml:space="preserve">
<path data-apartment-token="b2_s3_a1s-4" class="map-floor__apartment-1s map-floor__apartment" data-apartment-type="1s" data-apartment-room="1" data-apartment-area="33,58" data-apartment-price="1 800 000" fill-rule="evenodd" fill="#ABE1FA" stroke="#ABE1FA" stroke-width="0.216" stroke-miterlimit="22.9256" d="M88.8,26.8v12.7H71
	V30c0.2-0.1,0.4-0.2,0.5-0.3c0.5-0.1,0.9-0.5,0.9-0.9c0-0.2,0-0.4-0.1-0.6c-0.2-0.4-0.6-0.7-1.2-0.7v-0.8H88.8z M123.8,39.5v149.6
	L11.4,39.5H123.8L123.8,39.5z M11.4,189.1h112.4L11.4,39.5V189.1z M134.4,2.6v24.1L61.5,2.6H134.4L134.4,2.6z M61.5,26.8h72.8
	L61.5,2.6V26.8z"/>
<path data-apartment-token="b2_s3_a1s-3" class="map-floor__apartment-1s map-floor__apartment" data-apartment-type="1s" data-apartment-room="1" data-apartment-area="28,07" data-apartment-price="2 500 000" fill-rule="evenodd" fill="#ABE1FA" d="M83.6,244.9H11.5l72.1,148.8V244.9L83.6,244.9z M11.5,244.9l72.1,148.8H11.4L11.5,244.9
	z M88,244.9v-51.1H11.6L88,244.9L88,244.9z M88,193.8H11.6l76.4-0.2V193.8z M88,244.9H11.5l0.1-51.1L88,244.9z"/>
<path data-apartment-token="b2_s3_a1p-1" class="map-floor__apartment-1p map-floor__apartment" data-apartment-type="1p" data-apartment-room="1" data-apartment-area="41,15" data-apartment-price="2 450 000" fill-rule="evenodd" fill="#B0ACD5" stroke="#B0ACD5" stroke-width="0.216" stroke-miterlimit="22.9256" d="M105.7,406.4v-0.8
	c0.6,0,1-0.3,1.2-0.7c0.1-0.2,0.1-0.4,0.1-0.6c0-0.4-0.4-0.7-0.9-0.9c-0.1-0.1-0.3-0.2-0.5-0.3v-9.5h17.7v12.7H105.7z M213.7,406.4
	v24.1L80.1,406.4H213.7L213.7,406.4z M80.1,430.6h133.6L80.1,406.4V430.6z M231,249.5l-0.4,144.2L88,249.5H231L231,249.5z M88,393.7
	h142.6L88,249.5V393.7z"/>
<path data-apartment-token="b2_s3_a1s-5" class="map-floor__apartment-1s map-floor__apartment" data-apartment-type="1s" data-apartment-room="1" data-apartment-area="32,89" data-apartment-price="1 700 000" fill-rule="evenodd" fill="#ABE1FA" d="M303.9,2.6h-81.5l81.5,24.1V2.6L303.9,2.6z M222.4,2.6l81.5,24.1h-81.5V2.6z
	 M268.5,26.8v12.7h-17.1V30c0.2-0.1,0.4-0.2,0.5-0.3c0.5-0.1,0.8-0.5,0.8-0.9c0-0.2,0-0.4-0.1-0.6c-0.2-0.4-0.6-0.7-1.2-0.7v-0.8
	H268.5z M345,39.5H235.4L345,189.1V39.5L345,39.5z M235.4,39.5L345,189.1H235.4V39.5z"/>
<path data-apartment-token="b2_s3_a1s-6"  class="map-floor__apartment-1s map-floor__apartment" data-apartment-type="1s" data-apartment-room="1" data-apartment-area="32,89" data-apartment-price="1 500 000" fill-rule="evenodd" fill="#ABE1FA" d="M471.2,2.6h-81.5l81.5,24.1V2.6L471.2,2.6z M389.7,2.6l81.5,24.1h-81.5V2.6z
	 M442.6,26.8v0.8c-0.6,0-1,0.3-1.2,0.7c-0.1,0.2-0.1,0.4-0.1,0.6c0,0.4,0.4,0.7,0.9,0.9c0.1,0.1,0.3,0.2,0.5,0.3v9.5h-17.7V26.8
	H442.6z M458.8,39.5H349.4l109.4,149.6V39.5L458.8,39.5z M349.4,39.5l109.4,149.6H349.4V39.5z"/>
<path data-apartment-token="b2_s3_a1s-2" class="map-floor__apartment-1s map-floor__apartment" data-apartment-type="1s" data-apartment-room="1" data-apartment-area="32,50" data-apartment-price="1 800 000" fill-rule="evenodd" fill="#ABE1FA" d="M298.8,406.4h-83.3l83.3,24.1V406.4L298.8,406.4z M215.5,406.4l83.3,24.1h-83.3V406.4z
	 M251,406.4v-0.8c0.6,0,1-0.3,1.2-0.7c0.1-0.2,0.1-0.4,0.1-0.6c0-0.4-0.4-0.7-0.9-0.9c-0.1-0.1-0.3-0.2-0.5-0.3v-9.5h17.7v12.7H251z
	 M345,249.5H235.4L345,393.7V249.5L345,249.5z M235.4,249.5L345,393.7H235.4V249.5z"/>
<path data-apartment-token="b2_s3_a1s-1" class="map-floor__apartment-1s  map-floor__apartment" data-apartment-type="1s" data-apartment-room="1" data-apartment-area="32,47" data-apartment-price="2 100 000" fill-rule="evenodd" fill="#ABE1FA" d="M475.9,406.4h-81l81,24.1V406.4L475.9,406.4z M394.9,406.4l81,24.1h-81V406.4z
	 M424.9,406.4v-12.7h17.7v9.5c-0.2,0.1-0.4,0.2-0.5,0.3c-0.5,0.1-0.9,0.5-0.9,0.9c0,0.2,0,0.4,0.1,0.6c0.2,0.4,0.6,0.7,1.2,0.7v0.8
	H424.9z M458.8,249.5H349.4l109.4,144.2V249.5L458.8,249.5z M349.4,249.5l109.4,144.2H349.4V249.5z"/>
<path data-apartment-token="b2_s3_a2-2" class="map-floor__apartment-2 map-floor__apartment" data-apartment-type="2" data-apartment-room="2" data-apartment-area="60,36" data-apartment-price="2 456 000" fill-rule="evenodd" fill="#BCD640" d="M672.1,135.1H648l24.1,83.3V135.1L672.1,135.1z M463.3,39.5h172v177.6L463.3,39.5z
	 M648,181.3h-12.7v17.7h9.5c0.1-0.2,0.2-0.4,0.3-0.5c0.1-0.5,0.5-0.9,0.9-0.9c0.2,0,0.4,0,0.6,0.1c0.4,0.2,0.7,0.6,0.7,1.2h0.8
	V181.3z M648,135.1l24.1,83.3H648V135.1z M463.3,39.5v177.6h172L463.3,39.5z"/>
<path data-apartment-token="b2_s3_a2-1" class="map-floor__apartment-2 map-floor__apartment" data-apartment-type="2" data-apartment-room="2" data-apartment-area="58,54" data-apartment-price="1 800 000" fill-rule="evenodd" fill="#BCD640" d="M635.2,221.5h-172l172,172.2V221.5L635.2,221.5z M463.3,221.5l172,172.2h-172V221.5z
	 M648,257.6h-12.7v-17.7h9.5c0.1,0.2,0.2,0.4,0.3,0.5c0.1,0.5,0.5,0.9,0.9,0.9c0.2,0,0.4,0,0.6-0.1c0.4-0.2,0.7-0.6,0.7-1.2h0.8
	V257.6z M672.1,220.2v83.3L648,220.2H672.1L672.1,220.2z M648,303.5h24.1L648,220.2V303.5z"/>
</svg>
