<svg version="1.2" baseProfile="tiny"
	 xmlns="http://www.w3.org/2000/svg" xmlns:xlink="http://www.w3.org/1999/xlink" x="0px" y="0px" viewBox="36 187.7 668.3 467.2"
	 xml:space="preserve">
<path data-apartment-token="b1_s4_a3-1" class="map-floor__room-3 map-floor__room" data-room="3" fill="#DEB9D8" d="M294.3,224.9h23.8v17.8h-23.8v-13.1c0.7,0,1.3-0.5,1.4-1.1c0.1-0.3,0.1-0.7,0-1c0-0.9-0.6-1.5-1.5-1.5v-1.1
	H294.3z M91.7,432.5H191v51.4H91.7V432.5z M273.4,242.6h93.7v160.7h-58.2l-29.3,29.8L273.4,242.6z M91.7,242.5h187.9v190.7H91.7
	V242.5z M183.7,191.2h174.6v34.7H183.7V191.2z"/>
<path data-apartment-token="b1_s4_a2-2" class="map-floor__room-2 map-floor__room" data-room="2" fill="#BCD640" d="M564.3,597.5v22.4h-23.4v-0.6c1,0,1.6-0.9,1.4-1.8c0-0.2-0.1-0.4-0.1-0.5c-0.1-0.7-0.6-1.2-1.3-1.3v-18.2
	H564.3z M525.2,619.5h101.4v20.4l-11.4,11.5l-90-0.1V619.5z M513.6,409.5h119v193.4h-119V409.5z M619.1,242.5h79.2V603h-79.2V242.5z
	"/>
<path data-apartment-token="b1_s4_a2-1" class="map-floor__room-2 map-floor__room" data-room="2" fill="#BCD640" d="M400.9,247.6v-22.4h23.6v0.6c-1,0-1.6,0.9-1.4,1.8c0,0.2,0.1,0.4,0.1,0.5c0.1,0.7,0.6,1.2,1.3,1.3v18.2
	L400.9,247.6z M361,225.8v-34.4h174.2v34.5L361,225.8z M372.9,403.1V242.5h240.3v161.1L372.9,403.1z"/>
<path data-apartment-token="b1_s4_a2-3" class="map-floor__room-2 map-floor__room" data-room="2" fill="#BCD640" d="M72.3,548.2h24.6v23.2H78.5c-0.4-0.8-1.3-1-2-0.6c-0.7-0.2-1.5-0.1-1.9,0.6h-2.3V548.2z M40,468.9h34.7
	v171.8H40V468.9z M197.2,490.2V439h81.2l29.9,29.2H367v170.2H91.7V490.2H197.2z"/>
</svg>
