<svg class="svg-floor-map" version="1.2" baseProfile="tiny" xmlns="http://www.w3.org/2000/svg" xmlns:xlink="http://www.w3.org/1999/xlink" x="0px" y="0px" viewBox="0 0 793.3 536.4" xml:space="preserve">
<path data-apartment-token="b3_s3_2p-2" fill-rule="evenodd" fill="#FBB040" class="map-floor__apartment-2p map-floor__apartment" data-apartment-type="2p" data-apartment-room="2" data-apartment-area="57,93" data-apartment-price="8 200 000" fill="#FBB040" d="M374,500.7h-20.9v-2.8c0.6,0.1,1.3-0.1,1.6-0.4c0.4-0.2,0.4-0.6,0.2-0.9
	c-0.1-0.5-0.9-0.7-1.7-0.7v-10H374V500.7z M430.6,532v-31.3h-87L430.6,532z M343.6,500.7V532h87L343.6,500.7z M574.3,485.8V303.2
	H348.7L574.3,485.8z M348.7,303.2v182.6h225.6L348.7,303.2z"/>
<path data-apartment-token="b3_s3_2p-3" fill-rule="evenodd" fill="#FBB040" class="map-floor__apartment-2p map-floor__apartment" data-apartment-type="2p" data-apartment-room="2" data-apartment-area="51,20" data-apartment-price="3 300 000" fill="#FBB040" d="M758.9,212.6H744v-20.9h10.5c-0.1,0.9,0.4,1.6,0.9,1.6c0.2,0,0.4,0,0.6-0.1
	c0.5-0.1,0.8-0.8,0.8-1.5h2V212.6z M744,268v-28H579.6L744,268z M579.6,240v28H744L579.6,240z M744,240v-2H579.6L744,240z
	 M579.6,238v2H744L579.6,238z M790.2,269V165.5h-31.3L790.2,269z M758.9,165.5V269h31.3L758.9,165.5z M744,238V65.6H566L744,238z
	 M566,65.6V238h178L566,65.6z"/>
<path data-apartment-token="b3_s3_1s-3" fill-rule="evenodd" fill="#ABE1FA" class="map-floor__apartment-1s map-floor__apartment" data-apartment-type="1s" data-apartment-room="1" data-apartment-area="27,60" data-apartment-price="1 600 000" fill="#ABE1FA" d="M505.8,65.6h-20.9V55.2c0.8,0,1.4-0.4,1.4-0.8v-0.1h0c0,0,0-0.1,0-0.1
	c0.1-0.5-0.6-0.9-1.4-0.9v-2.6h20.9V65.6z M560.8,238V65.6H455.9L560.8,238z M455.9,65.6V238h104.9L455.9,65.6z M561.2,50.7v-48
	h-95.6L561.2,50.7z M465.6,2.7v48h95.6L465.6,2.7z"/>
<path data-apartment-token="b3_s3_1p-1" fill-rule="evenodd" fill="#B0ACD5" class="map-floor__apartment-1p map-floor__apartment" data-apartment-type="1p" data-apartment-room="1" data-apartment-area="40,80" data-apartment-price="2 500 000" fill="#B0ACD5" stroke="#B0ACD5" stroke-width="0.216" stroke-miterlimit="10" d="M324.6,238H163.9V65.6
	L324.6,238z M309,55.7c-0.4,0-0.9-0.1-1.2-0.2c-0.3-0.1-0.5-0.2-0.7-0.4c-0.6-0.7,0.1-1.8,1.4-1.6c0.2,0,0.4,0.1,0.5,0.1v-2.9h-20.9
	v14.9H309V55.7z M324.6,238V65.6H163.9L324.6,238z M315,50.7l0.1-48h-95.6L315,50.7z M219.5,2.7v48H315L219.5,2.7z"/>
<path data-apartment-token="b3_s3_3-1" fill-rule="evenodd" fill="#DEB9D8" class="map-floor__apartment-3 map-floor__apartment" data-apartment-type="3" data-apartment-room="3" data-apartment-area="74,73" data-apartment-price="2 100 000" fill="#DEB9D8" d="M158.8,451.4H13.3V303.2L158.8,451.4z M122.8,100h21V88.5h-0.5c-0.8,0-1.4-0.4-1.4-0.9
	c0-0.3,0.1-0.6,0.5-0.8c0.3-0.3,0.9-0.4,1.4-0.3v-1.4h-21V100z M158.8,451.4V303.2H13.3L158.8,451.4z M158.8,303.2V238H13.3
	L158.8,303.2z M13.3,238v65.2h145.4L13.3,238z M158.8,238V100H13.3L158.8,238z M13.3,100v138h145.4L13.3,100z M149.2,85.1V53.8H67.1
	L149.2,85.1z M67.1,53.8v31.3h82.1L67.1,53.8z M83.9,497.6v-31.3H3.1L83.9,497.6z M3.1,466.2v31.3h80.8L3.1,466.2z"/>
<path data-apartment-token="b3_s3_1s-2" fill-rule="evenodd" fill="#ABE1FA" class="map-floor__apartment-1s map-floor__apartment" data-apartment-type="1s" data-apartment-room="1" data-apartment-area="23,08" data-apartment-price="1 400 000" fill="#ABE1FA" d="M242.7,500.7h-21.2v-14.8h21.2v9.6c-0.9-0.4-2.3,0-2.3,0.7v0.1
	c-0.2,0.5,0.4,1.1,1.4,1.1c0.3,0,0.7-0.1,0.9-0.2V500.7z M249.8,532v-31.3h-87L249.8,532z M162.8,500.7V532h87L162.8,500.7z
	 M249,485.8V303.2h-85.1L249,485.8z M163.9,303.2v182.6H249L163.9,303.2z"/>
<path data-apartment-token="b3_s3_1s-1" fill-rule="evenodd" fill="#ABE1FA" class="map-floor__apartment-1s map-floor__apartment" class="map-floor__apartment-1s map-floor__apartment" data-apartment="1s" data-apartment-room="1" data-apartment-area="24,19" data-apartment-price="1 800 000" fill="#ABE1FA" stroke="#ABE1FA" stroke-width="0.216" stroke-miterlimit="10" d="M343.4,485.8h-89.2
	V303.2L343.4,485.8z M281.9,485.8h-20.8v11c0.1,0,0.2,0,0.2,0c0.9-0.2,1.9,0.2,1.9,0.8c0,0.2,0,0.3-0.2,0.5c-0.4,0.6-1.1,0.7-2,0.6
	v1.9h20.8V485.8z M340.3,532v-31.3H253L340.3,532z M253,500.7V532h87.4L253,500.7z M343.4,485.8V303.2h-89.2L343.4,485.8z"/>
<path data-apartment-token="b3_s3_2p-1" fill-rule="evenodd" fill="#FBB040" class="map-floor__apartment-2p map-floor__apartment" data-apartment-type="2p" data-apartment-room="2" data-apartment-area="58,45" data-apartment-price="2 100 000" fill="#FBB040" d="M758.9,349.5h-1.5c0.2-0.7-0.1-1.6-0.7-1.9c-0.4-0.2-1-0.1-1.4,0.2l-0.1,0
	c-0.6,0.2-0.9,0.9-0.8,1.7H744v-21.2h14.9V349.5z M744,520.7V273.2H579.6L744,520.7z M579.6,273.2v247.6H744L579.6,273.2z
	 M790.2,375.6l-0.1-103.4h-31.2L790.2,375.6z M758.9,272.2v103.4h31.3L758.9,272.2z"/>
</svg>
