<svg class="commercial-gp1-map-svg" xml:space="preserve" viewBox="0 0 1771 369.4" y="0px" x="0px" xmlns:xlink="http://www.w3.org/1999/xlink" xmlns="http://www.w3.org/2000/svg" baseProfile="tiny" version="1.2">
  <g class="commercial-space-group space-freely">
   <path class="commercial-space-path" d="M1718.6,263.6L1718.6 217.6 1700.6 217.6 1700.6 160.5 1688.8 160.5 1688.8 156.6 1700.6 156.6 1700.6 156.5 1754 156.5 1754 11.3 1610.4 11.3 1610.4 37.4 1604 37.4 1604 11.7 1561.6 11.7 1561.6 65.8 1604 65.8 1604 61.9 1610.4 61.9 1610.4 156.5 1610.5 156.5 1610.5 308 1685.8 308 1700.6 308 1754 308 1754 263.6 z"/>
                    	
    <rect height="74.2" width="74.2" stroke-miterlimit="10" stroke-width="1.15" stroke="#262424" fill="#FFFFFF" transform="matrix(0.7071 0.7071 -0.7071 0.7071 567.1703 -1158.7734)" y="68.1" x="1645.2"/>
  </g>
  <g class="commercial-space-group space-freely">
   <path class="commercial-space-path" d="M1604,178.9L1604 69.8 1557.7 69.8 1557.7 45.6 1532.7 45.6 1532.7 41.7 1557.7 41.7 1557.7 11.3 1502 11.3 1502 43.2 1509.2 43.2 1509.2 45.9 1500.9 45.9 1500.9 45.6 1499.9 45.6 1499.9 11.3 1495.9 11.3 1493.3 11.3 1493.3 37 1490 37 1490 11.3 1373.4 11.3 1373.4 166.4 1490.8 166.4 1495.4 166.4 1540.8 166.4 1540.8 168.8 1540.8 170.2 1540.8 174 1537.3 174 1537.3 170.2 1495.4 170.2 1495.4 189.9 1537.2 189.9 1537.2 187 1540.7 187 1540.7 189.9 1540.7 190.8 1540.7 308 1604.8 308 1604.8 178.9 z"/>
                    	
    <rect height="74.2" width="74.2" stroke-miterlimit="10" stroke-width="1.15" stroke="#262424" fill="#FFFFFF" transform="matrix(0.7071 0.7071 -0.7071 0.7071 499.0258 -994.2579)" y="68.1" x="1412.6"/>
  </g>
  <g class="commercial-space-group space-busy">
   <path class="commercial-space-path" d="M1325.7,11.8L1325.7 43.4 1325.7 45.1 1325.7 45.6 1319.6 45.6 1319.6 43.4 1323.4 43.4 1323.4 11.8 1280.2 11.8 1280.2 38.8 1278.2 38.8 1278.2 43.4 1295.1 43.4 1295.1 45.6 1262.3 45.6 1262.3 43.4 1276.6 43.4 1276.6 38.8 1274.2 38.8 1274.2 11.8 1230.7 11.8 1230.7 43.4 1238.1 43.4 1238.1 45.6 1230.7 45.6 1229.3 45.6 1228.6 45.6 1228.6 11.8 1186.2 11.8 1186.2 39.2 1180.1 39.2 1180.1 11.8 1113.6 11.8 1113.6 183.8 1141.3 183.8 1143.1 183.8 1143.4 183.8 1143.4 196.8 1141.3 196.8 1141.3 185.9 1113.6 185.9 1113.6 214.4 1141.3 214.4 1141.3 209.2 1143.4 209.2 1143.4 214.4 1143.4 216.4 1141.3 216.4 1113.6 216.4 1113.6 307.5 1180.1 307.5 1180.1 285.8 1186.4 285.8 1186.4 307.5 1274.1 307.5 1274.1 285.7 1280.2 285.7 1280.2 307.5 1366.6 307.5 1366.6 11.8 z"/>
                    	
    <rect height="74.2" width="74.2" stroke-miterlimit="10" stroke-width="1.15" stroke="#262424" fill="#FFFFFF" transform="matrix(0.7071 0.7071 -0.7071 0.7071 438.6257 -848.4393)" y="68.1" x="1206.3"/>
  </g>
  <g class="commercial-space-group space-freely">
   <path class="commercial-space-path" d="M1095.1,39.4L1095.1 11.8 1028.3 11.8 1028.3 39.4 1022.5 39.4 1022.5 10.8 957.7 10.8 957.7 11.2 957.7 11.2 957.7 43.7 957.7 45.6 955.2 45.6 951.2 45.6 951.2 43.7 955.2 43.7 955.2 11.2 912.1 11.2 912.1 39.2 909.9 39.2 909.9 43.6 926.6 43.6 926.6 45.6 894.3 45.6 894.3 43.6 908.3 43.6 908.3 39.2 905.6 39.2 905.6 11.2 862.7 11.2 862.7 43.4 869.9 43.4 869.9 45.6 862.7 45.6 861 45.6 860.6 45.6 860.6 11.2 852 11.2 852 11.7 792 11.7 792 166 852 166 860.4 166 958.1 166 958.1 173.8 954.5 173.8 954.5 170 912.3 170 912.3 190 954.5 190 954.5 186.5 958.1 186.5 958.1 308.2 1021.7 308.2 1021.7 285.5 1028.4 285.5 1028.4 308.2 1095.5 308.2 1095.5 39.4 z"/>
                    	
    <rect height="74.2" width="74.2" stroke-miterlimit="10" stroke-width="1.15" stroke="#262424" fill="#FFFFFF" transform="matrix(0.7071 0.7071 -0.7071 0.7071 374.7069 -694.1257)" y="68.1" x="988.1"/>
  </g>
  <g class="commercial-space-group space-busy">
   <path class="commercial-space-path" d="M732.9,11.8h-1.1h-33.1v27h-6.9V11.3H604v28H602v6.4h-4.6h-17.8v-2.2h17.9V43h2.7v-3.8h-2.7v-28H538v32.2
                    		h17.5v2.2h-16.9v261.9h58.9v-23.7h6.5v24.4h87.8V182.4h6.9h0.8h32.3v16.2h-3.5v-11.8h-29.9v26.7h29.9v-3.8h3.5v3.8h53.4V11.8H732.9
                    		z"/>
                    	
    <rect height="74.2" width="74.2" stroke-miterlimit="10" stroke-width="1.15" stroke="#262424" fill="#FFFFFF" transform="matrix(0.7071 0.7071 -0.7071 0.7071 278.0031 -460.6621)" y="68.1" x="657.9"/>
  </g>
  <g class="commercial-space-group space-freely">
   <path class="commercial-space-path" d="M531.6,43.4V10.8h-56.7v28.4h-1.9v4.2h20.1v2.2h-20.1h-1.7h-0.7v-6.4h-1.9V10.8h-27v0.5h-88.4v28h-6.4V10.8
                    		h-41.6v32.9v1.7h-2h-6.2v-1.7h6.2V10.8h-43.7v32.9h14.6v2h-14.6v102.2h0.6v79.4h3.9v3.6h-3.9V252h42.6v-21.1h-23.5v-3.6h67.8v-48.1
                    		h6.2h1.1h87.3v129.1h90V45.6h-13.8v-2.2H531.6z"/>
                    	
    <rect height="74.2" width="74.2" stroke-miterlimit="10" stroke-width="1.15" stroke="#262424" fill="#FFFFFF" transform="matrix(0.7071 0.7071 -0.7071 0.7071 191.0889 -250.8326)" y="68.1" x="361.2"/>
  </g>
  <g class="commercial-space-group space-busy">
   <path class="commercial-space-path" d="M253.3,203.9L253.3 175.4 228.9 175.4 228.9 186.2 226.8 186.2 226.8 173.4 227.4 173.4 228.9 173.4 253.3 173.4 253.3 45.6 240.1 45.6 240.1 43.4 253.3 43.4 253.3 11.4 240.9 11.4 240.9 10.8 216.2 10.8 216.2 11.4 210.6 11.4 210.6 43.4 216.8 43.4 216.8 45.6 210.6 45.6 209.1 45.6 208.3 45.6 208.3 11.4 166.5 11.4 166.5 38.8 160.5 38.8 160.5 11.4 17.1 11.4 17.1 160.4 49.2 160.4 51.2 160.4 51.2 162.4 51.2 175.8 49.2 175.8 49.2 162.4 17.1 162.4 17.1 206.5 49.4 206.5 49.4 194.7 51.2 194.7 51.2 206.5 51.2 208.7 49.4 208.7 17.1 208.7 17.1 307.5 161.6 307.5 161.6 284.3 165.5 284.3 165.5 307.5 253.3 307.5 253.3 205.9 229 205.9 227.3 205.9 226.8 205.9 226.8 198.9 229 198.9 229 203.9 z"/>
                    	
    <rect height="74.2" width="74.2" stroke-miterlimit="10" stroke-width="1.15" stroke="#262424" fill="#FFFFFF" transform="matrix(0.7071 0.7071 -0.7071 0.7071 122.3263 -84.825)" y="68.1" x="126.4"/>
  </g>
</svg>