<svg class="commercial-gp1-map-svg" xml:space="preserve" viewBox="0 0 1949.6 411.4" y="0px" x="0px" xmlns:xlink="http://www.w3.org/1999/xlink" xmlns="http://www.w3.org/2000/svg" baseProfile="tiny" version="1.2">
  <g class="commercial-space-group space-freely">
   <path class="commercial-space-path" d="M232.7,178.5L144.1 178.5 144.1 171.2 158.8 171.2 158.8 137.4 158.8 130.3 158.8 129.1 158.8 63.2 158.8 61.3 158.8 20.4 20.1 20.4 20.1 63.2 79.2 63.2 79.2 130.3 105.1 130.3 105.1 137.4 65.3 137.4 65.3 171.2 65.3 204.3 18.6 204.3 18.6 327.4 165.2 327.4 165.2 287.2 232.7 287.2 z"/>
                    	
    <rect height="87" width="87" stroke-miterlimit="10" stroke-width="1.15" stroke="#262424" fill="#FFFFFF" transform="matrix(0.7071 0.7071 -0.7071 0.7071 203.6034 -10.5553)" y="197" x="71.1"/>
  </g>
  <g class="commercial-space-group space-freely">
   <path class="commercial-space-path" d="M456.2,165.4L456.2 127 488.2 127 488.2 47 349 47 349 156.4 240.3 156.4 240.3 287.2 303.7 287.2 303.7 327.4 422.6 327.4 422.6 287 488.2 287 488.2 165.4 z"/>
                    	
    <rect height="87" width="87" stroke-miterlimit="10" stroke-width="1.15" stroke="#262424" fill="#FFFFFF" transform="matrix(0.7071 0.7071 -0.7071 0.7071 276.533 -193.6075)" y="193.5" x="328.5"/>
  </g>
  <g class="commercial-space-group space-busy">
   <path class="commercial-space-path" d="M640.9,158.7L640.9 47 495.6 47 495.6 127 527.6 127 527.6 165.4 495.6 165.4 495.6 287 561.1 287 561.1 327.4 687.2 327.4 687.2 287.2 751 287.2 751 158.7 z"/>
                    	
    <rect height="87" width="87" stroke-miterlimit="10" stroke-width="1.15" stroke="#262424" fill="#FFFFFF" transform="matrix(0.7071 0.7071 -0.7071 0.7071 352.4086 -376.7874)" y="193.5" x="587.5"/>
  </g>
  <g class="commercial-space-group space-busy">
   <path class="commercial-space-path" d="M930.5,165.7L930.5 127.6 962.3 127.6 962.3 102.7 962.3 98 962.3 47 836.5 47 836.5 98 758.3 98 758.3 120.2 758.3 127.6 758.3 287.2 822.5 287.2 822.5 326.8 890.4 326.8 890.4 287.2 928.4 287.2 930.5 287.2 962.4 287.2 962.4 165.7 z"/>
                    	
    <rect height="87" width="87" stroke-miterlimit="10" stroke-width="1.15" stroke="#262424" fill="#FFFFFF" transform="matrix(0.7071 0.7071 -0.7071 0.7071 418.6877 -536.7994)" y="193.5" x="813.8"/>
  </g>
  <g class="commercial-space-group space-freely">
   <path class="commercial-space-path" d="M1109,98L1109 47.1 987.4 47.1 987.4 127 1019.3 127 1019.3 165.4 987.2 165.4 987.2 287.2 1062.7 287.2 1062.7 327.4 1130.6 327.4 1130.6 287.2 1195.7 287.2 1195.7 173.9 1195.7 165.4 1195.7 98 z"/>
                    	
    <rect height="87" width="87" stroke-miterlimit="10" stroke-width="1.15" stroke="#262424" fill="#FFFFFF" transform="matrix(0.7071 0.7071 -0.7071 0.7071 491.0321 -711.4543)" y="193.5" x="1060.8"/>
  </g>
  <g class="commercial-space-group space-freely">
   <path class="commercial-space-path" d="M1456.9,127L1456.9 47.1 1426.3 47.1 1341 47.1 1310.4 47.1 1310.4 156.3 1203.6 156.3 1203.6 287.2 1264.2 287.2 1264.2 327.4 1390.8 327.4 1390.8 287.2 1456.7 287.2 1456.7 165.4 1426.3 165.4 1426.3 127 z"/>
                    	
    <rect height="87" width="87" stroke-miterlimit="10" stroke-width="1.15" stroke="#262424" fill="#FFFFFF" transform="matrix(0.7071 0.7071 -0.7071 0.7071 557.2029 -871.2048)" y="193.5" x="1286.8"/>
  </g>
  <g class="commercial-space-group space-freely">
   <path class="commercial-space-path" d="M1611,154.9L1611 127 1611 47.1 1464.4 47.1 1464.4 127 1495.5 127 1495.5 154.9 1495.5 165.4 1464.6 165.4 1464.6 286.9 1495.5 286.9 1506.5 286.9 1529.4 286.9 1529.4 327.4 1651.9 327.4 1651.9 286.9 1652.3 286.9 1719.3 286.9 1719.3 154.9 z"/>
                    	
    <rect height="87" width="87" stroke-miterlimit="10" stroke-width="1.15" stroke="#262424" fill="#FFFFFF" transform="matrix(0.7071 0.7071 -0.7071 0.7071 633.8374 -1056.2167)" y="193.5" x="1548.4"/>
  </g>
  <g class="commercial-space-group space-freely">
   <path class="commercial-space-path" d="M1900.8,98L1900.8 59.1 1933.5 59.1 1933.5 15 1900.8 15 1898.2 15 1794.6 15 1794.6 98 1726.6 98 1726.6 287.2 1791.3 287.2 1791.3 327.4 1932.1 327.4 1932.1 157.6 1900.8 157.6 1900.8 111.6 z"/>
                    	
    <rect height="87" width="87" stroke-miterlimit="10" stroke-width="1.15" stroke="#262424" fill="#FFFFFF" transform="matrix(0.7071 0.7071 -0.7071 0.7071 708.4017 -1236.2308)" y="193.5" x="1803"/>
  </g>
</svg>
