<svg version="1.2" baseProfile="tiny" class="commercial-legend__image"
	 xmlns="http://www.w3.org/2000/svg" xmlns:xlink="http://www.w3.org/1999/xlink" x="0px" y="0px" viewBox="516.5 714.9 330 123.1"
	 xml:space="preserve">
<g>
	<path class="commercial-legend__svg-building building-gp2" data-building="2" fill="#ff0000" d="M569.6,772.7c1.4,0,2.8,0,4.3,0c0,0.4,0,0.9,0,1.3c1.5,0,3,0,4.5,0c0-0.4,0-0.9,0-1.3c3.8,0,7.5,0,11.3,0
		c0,0.4,0,0.9,0,1.3c1.4,0,2.8,0,4.2,0c0-0.4,0-0.9,0-1.3c8.8,0,17.6,0,26.4,0c0,0.4,0,0.9,0,1.3c1.1,0,2.1,0,3.2,0
		c0-0.4,0-0.9,0-1.3c1.8,0,3.6,0,5.5,0c0,0.4,0,0.9,0,1.3c0.9,0,1.9,0,2.8,0c0-0.4,0-0.9,0-1.3c7.1,0,14.2,0,21.3,0
		c0,0.4,0,0.9,0,1.3c1,0,2,0,3,0c0-0.4,0-0.9,0-1.3c1.6,0,3.2,0,4.7,0c0,0.4,0,0.9,0,1.3c2.9,0,5.8,0,8.7,0c0,1.8,0,3.6,0,5.5
		c0.5,0,1,0,1.5,0c0,2.8,0,5.7,0,8.5c-0.5,0-1,0-1.5,0c0,1.8,0,3.6,0,5.4c-4.4,0-8.8,0-13.2,0c0,0.4,0,0.9,0,1.3
		c-8.1,0-16.2,0-24.3,0c0-0.4,0-0.8,0-1.3c-1,0-2.1,0-3.1,0c0,0.4,0,0.8,0,1.3c-1.7,0-3.4,0-5,0c0-0.4,0-0.8,0-1.3
		c-1.1,0-2.2,0-3.3,0c0,0.4,0,0.8,0,1.3c-8.8,0-17.5,0-26.3,0c0-0.4,0-0.8,0-1.3c-1.2,0-2.3,0-3.5,0c0,0.4,0,0.8,0,1.3
		c-1.3,0-2.6,0-3.8,0c0-0.4,0-0.8,0-1.3c-1.6,0-3.1,0-4.7,0c0,0.4,0,0.8,0,1.3c-1.4,0-2.8,0-4.2,0c0-0.4,0-0.8,0-1.3
		c-1.5,0-3,0-4.5,0c0,0.4,0,0.8,0,1.3c-1.3,0-2.5,0-3.8,0c0-0.4,0-0.8,0-1.3c-3.1,0-6.1,0-9.2,0c0-1.8,0-3.6,0-5.4
		c-0.4,0-0.9,0-1.3,0c0-2.8,0-5.7,0-8.5c0.4,0,0.9,0,1.3,0c0-1.8,0-3.6,0-5.5c2.9,0,5.8,0,8.8,0
		C569.5,773.6,569.6,773.2,569.6,772.7z"/>
</g>
<g>
	<path class="commercial-legend__svg-building building-gp1" data-building="1" fill="#6C6966" d="M761.8,772.8c7.1,0,14.2,0,21.3,0c0,0.4,0,0.9,0,1.3c1,0,2,0,3,0c0-0.4,0-0.9,0-1.3c1.6,0,3.1,0,4.7,0
		c0,0.4,0,0.9,0,1.3c2.9,0,5.8,0,8.7,0c0,1.8,0,3.6,0,5.4c0.5,0,1,0,1.5,0c0,2.8,0,5.7,0,8.5c-0.5,0-1,0-1.5,0c0,1.8,0,3.6,0,5.4
		c-4.4,0-8.8,0-13.2,0c0,0.4,0,0.8,0,1.3c-8.1,0-16.2,0-24.3,0c0-0.4,0-0.8,0-1.3c-1,0-2.1,0-3.1,0c0,0.4,0,0.8,0,1.2
		c-1.7,0-3.4,0-5,0c0-0.4,0-0.8,0-1.3c-1.1,0-2.2,0-3.3,0c0,0.4,0,0.8,0,1.3c-8.7,0-17.5,0-26.3,0c0-0.4,0-0.8,0-1.3
		c-1.2,0-2.4,0-3.5,0c0,0.4,0,0.8,0,1.3c-1.3,0-2.5,0-3.8,0c0-0.4,0-0.8,0-1.3c-1.6,0-3.1,0-4.7,0c0,0.4,0,0.8,0,1.3
		c-1.4,0-2.8,0-4.2,0c0-0.4,0-0.8,0-1.3c-1.5,0-3,0-4.5,0c0,0.4,0,0.8,0,1.3c-1.3,0-2.5,0-3.8,0c0-0.4,0-0.8,0-1.2
		c-3.1-0.1-6.1,0-9.2,0c0-1.8,0-3.6,0-5.4c-0.4,0-0.9,0-1.3,0c0-2.8,0-5.6,0-8.5c0.4,0,0.9,0,1.3,0c0.1-1.8,0-3.6,0-5.5
		c2.9,0,5.8,0,8.7,0c0-0.4,0-0.9,0-1.3c1.4,0,2.8,0,4.3,0c0,0.4,0,0.9,0,1.3c1.5,0,3,0,4.5,0c0-0.4,0-0.9,0-1.3c3.8,0,7.5,0,11.3,0
		c0,0.4,0,0.9,0,1.3c1.4,0,2.8,0,4.3,0c0-0.4,0-0.9,0-1.3c8.8,0,17.6,0,26.4,0c0,0.4,0,0.9,0,1.3c1.1,0,2.1,0,3.2,0
		c0-0.4,0-0.9,0-1.3c1.8,0,3.7,0,5.5,0c0,0.4,0,0.9,0,1.3c0.9,0,1.9,0,2.8,0C761.8,773.6,761.8,773.2,761.8,772.8z"/>
</g>
</svg>
