<svg width="509pt" height="509pt" viewBox="0 0 509 509" version="1.1" xmlns="http://www.w3.org/2000/svg">
<g id="#ffffffff">
<path fill="#ffffff" opacity="1.00" d=" M 50.88 88.00 C 79.16 88.00 107.43 87.99 135.71 88.01 C 135.70 128.36 135.70 168.71 135.71 209.06 C 214.90 209.07 294.10 209.07 373.29 209.06 C 373.30 168.71 373.30 128.36 373.29 88.01 C 401.56 87.99 429.84 88.00 458.12 88.00 C 458.13 108.18 458.11 128.36 458.12 148.54 C 475.08 148.53 492.04 148.53 509.00 148.54 L 509.00 360.47 C 492.04 360.46 475.08 360.47 458.12 360.46 C 458.11 380.64 458.13 400.82 458.12 421.00 C 429.84 421.00 401.56 421.01 373.29 420.99 C 373.30 385.68 373.30 350.38 373.29 315.07 C 294.10 315.06 214.90 315.06 135.71 315.07 C 135.70 350.38 135.70 385.68 135.71 420.99 C 107.43 421.01 79.16 421.00 50.88 421.00 C 50.87 400.82 50.90 380.64 50.87 360.46 C 33.91 360.47 16.96 360.47 0.00 360.46 L 0.00 148.53 C 16.96 148.54 33.91 148.52 50.87 148.54 C 50.90 128.36 50.87 108.18 50.88 88.00 M 84.82 118.27 C 84.83 209.09 84.81 299.91 84.83 390.74 C 90.49 390.73 96.16 390.73 101.82 390.73 C 101.83 299.91 101.83 209.09 101.82 118.27 C 96.15 118.27 90.49 118.27 84.82 118.27 M 407.18 118.27 C 407.17 209.09 407.17 299.91 407.18 390.73 C 412.84 390.73 418.51 390.73 424.17 390.73 C 424.18 299.91 424.18 209.09 424.17 118.27 C 418.51 118.26 412.84 118.27 407.18 118.27 M 33.94 178.80 C 33.94 229.27 33.94 279.73 33.94 330.20 C 39.59 330.20 45.23 330.20 50.88 330.20 C 50.88 279.73 50.89 229.27 50.88 178.80 C 45.23 178.80 39.59 178.80 33.94 178.80 M 458.12 178.80 C 458.11 229.27 458.11 279.73 458.12 330.20 C 463.76 330.20 469.41 330.20 475.06 330.20 C 475.06 279.73 475.06 229.27 475.06 178.80 C 469.41 178.80 463.76 178.80 458.12 178.80 M 135.70 239.34 C 135.67 254.46 135.76 269.59 135.66 284.71 C 214.87 284.92 294.08 284.74 373.29 284.80 C 373.30 269.65 373.29 254.49 373.30 239.34 C 294.10 239.33 214.90 239.33 135.70 239.34 Z" />
</g>
</svg>
