<svg version="1.1" xmlns="http://www.w3.org/2000/svg" xmlns:xlink="http://www.w3.org/1999/xlink" x="0px" y="0px"
	 viewBox="0 0 30 30" style="enable-background:new 0 0 30 30;" xml:space="preserve">
<style type="text/css">
	.st0{fill:#68A657;}
</style>
<path class="st0" d="M15.3,11.8c2.1,0.1,4.2-0.5,5.8-1.9c1.1-1.1,1.7-2.7,1.6-4.3c0-1.6-0.7-3.1-1.9-4.2c-1.2-1-2.8-1.4-5.3-1.4
	c-1.8,0-3.6,0.1-5.3,0.4v13.8H8v2h2v2h4v-2h5v-2h-5v-2.4C14.4,11.8,14.9,11.8,15.3,11.8z M14,3.2c0.5-0.2,1-0.2,1.5-0.2
	c2,0,3.1,1,3.1,2.6c0,1.8-1.2,2.9-3.4,2.9c-0.4,0-0.8,0-1.3-0.1V3.2z M3,28.7l-1.3-1.6l8.1-6.6l9,3.6l8.7-4.4l0.9,1.8l-9.5,4.8
	l-8.7-3.5L3,28.7z M12.4,21.7c0,1.3-1.1,2.3-2.4,2.3S7.6,23,7.7,21.7c0-1.3,1.1-2.3,2.3-2.3C11.3,19.4,12.4,20.4,12.4,21.7
	C12.4,21.7,12.4,21.7,12.4,21.7z M21.2,25.3c0,1.3-1.1,2.3-2.4,2.3c-1.3,0-2.3-1.1-2.3-2.4c0-1.3,1.1-2.3,2.3-2.3
	C20.1,22.9,21.2,24,21.2,25.3C21.2,25.3,21.2,25.3,21.2,25.3L21.2,25.3z M30,20.5c0,1.3-1.1,2.3-2.4,2.3c-1.3,0-2.3-1.1-2.3-2.4
	c0-1.3,1.1-2.3,2.3-2.3C28.9,18.2,30,19.2,30,20.5L30,20.5z M4.7,27.7C4.7,29,3.6,30,2.3,30C1,30,0,28.9,0,27.6
	c0-1.3,1.1-2.3,2.3-2.3C3.7,25.3,4.7,26.3,4.7,27.7L4.7,27.7z"/>
</svg>
