<svg width="121pt" height="124pt" viewBox="0 0 121 124" version="1.1" xmlns="http://www.w3.org/2000/svg">
<g id="#efefefef">
<path id="risen-north" fill="#efefef" opacity="0.94" d=" M 73.06 10.03 C 68.98 7.81 71.32 0.08 75.95 0.46 C 77.36 0.60 80.89 1.30 79.11 3.45 C 77.60 2.97 75.62 1.32 74.27 3.08 C 73.36 4.38 73.09 6.05 73.38 7.60 C 74.32 9.16 76.26 9.00 77.82 9.20 C 77.44 11.77 74.53 10.74 73.06 10.03 Z" />
<path id="risen-star" fill="#efefef" opacity="0.94" d=" M 73.75 12.95 C 73.84 25.29 72.60 37.64 72.07 49.98 C 78.38 47.98 84.62 45.76 90.97 43.92 C 86.15 48.42 81.12 52.69 76.32 57.21 C 87.33 62.74 98.26 68.41 109.29 73.89 C 96.95 73.64 84.61 72.69 72.27 72.07 C 74.31 78.40 76.42 84.70 78.42 91.04 C 73.91 86.20 69.55 81.23 65.12 76.32 C 59.32 87.20 54.06 98.37 48.18 109.20 C 48.77 96.89 49.55 84.59 50.09 72.28 C 43.83 74.28 37.61 76.43 31.32 78.34 C 36.11 73.81 41.08 69.48 45.97 65.07 C 34.95 59.40 23.86 53.88 12.86 48.19 C 25.23 48.73 37.60 49.54 49.98 50.09 C 48.03 43.81 45.63 37.67 44.08 31.28 C 48.37 36.25 52.82 41.07 57.19 45.97 C 62.64 34.93 68.55 24.11 73.75 12.95 M 59.73 45.52 C 59.24 47.22 57.57 48.01 55.96 47.24 C 52.93 44.91 50.86 41.59 48.14 38.94 C 49.53 42.60 51.03 46.23 52.05 50.03 C 51.39 50.75 50.73 51.47 50.07 52.19 C 40.47 51.55 30.80 51.49 21.24 50.39 L 21.18 50.50 C 29.58 53.94 37.45 58.58 45.59 62.57 C 47.16 63.05 47.27 64.78 47.82 66.07 C 44.89 68.74 42.01 71.49 38.87 73.93 C 42.54 72.63 46.18 71.13 50.00 70.39 C 53.22 71.06 51.84 74.76 51.97 77.05 C 51.25 85.04 51.69 93.17 50.01 101.05 C 54.71 92.58 58.90 83.80 63.28 75.15 C 63.95 75.03 65.30 74.79 65.97 74.67 C 68.98 77.16 71.42 80.30 73.99 83.25 C 72.54 79.58 71.13 75.86 70.34 71.99 C 71.01 70.02 73.41 70.10 75.10 70.15 C 83.75 70.80 92.44 70.91 101.08 71.71 C 92.62 68.20 84.66 63.61 76.45 59.57 C 74.65 59.05 74.12 56.83 75.30 55.45 C 77.72 52.81 80.54 50.59 83.24 48.25 C 79.58 49.85 75.73 50.95 71.90 52.06 C 70.68 51.04 69.80 49.70 70.14 48.03 C 70.72 39.01 70.95 29.96 71.72 20.96 C 68.39 29.44 63.65 37.30 59.73 45.52 Z" />
<path id="risen-west" fill="#efefef" opacity="0.94" d=" M 2.75 40.96 C 5.21 40.68 9.90 41.30 8.91 44.82 C 8.43 45.22 7.45 46.01 6.96 46.40 C 8.63 47.76 8.23 50.84 5.93 51.20 C 3.93 51.50 -0.10 50.92 0.82 48.05 C 2.49 48.74 4.25 50.41 5.95 48.82 C 6.06 46.85 3.32 47.11 3.07 45.38 C 4.53 45.14 6.16 45.23 7.24 44.02 C 6.09 42.15 2.79 43.66 2.75 40.96 Z" />
<path id="risen-east" fill="#efefef" opacity="0.94" d=" M 114.02 70.63 C 116.03 71.35 118.60 71.38 120.05 73.14 C 121.26 74.43 119.69 75.81 119.14 76.96 C 119.68 78.48 119.70 80.69 117.84 81.31 C 115.70 81.94 113.52 80.76 111.41 80.38 C 112.29 77.13 113.17 73.89 114.02 70.63 M 114.72 73.70 L 115.69 75.04 C 114.46 76.07 114.34 77.68 113.94 79.13 C 114.95 79.35 115.95 79.57 116.96 79.78 C 117.44 78.41 116.98 76.30 114.81 76.84 C 116.02 76.08 117.54 75.65 118.36 74.39 C 117.52 72.93 116.15 72.90 114.72 73.70 Z" />
<path id="risen-south" fill="#efefef" opacity="0.94" d=" M 42.00 111.71 C 42.53 111.80 43.60 112.00 44.14 112.10 C 43.79 113.41 43.42 114.72 43.05 116.03 C 44.62 117.20 45.39 115.19 46.46 114.52 C 48.91 111.93 53.98 114.45 53.53 117.97 C 53.52 120.86 51.53 124.50 48.14 123.77 C 44.97 123.67 43.96 120.34 44.17 117.72 C 41.05 117.74 43.02 122.96 39.41 121.63 C 40.20 118.30 41.15 115.02 42.00 111.71 M 47.61 116.35 C 46.39 117.87 45.68 121.17 48.02 121.99 C 50.61 122.42 51.55 118.92 51.16 116.95 C 51.31 115.17 48.21 114.62 47.61 116.35 Z" />
</g>
</svg>
