<svg width="600pt" height="251pt" viewBox="0 0 600 251" version="1.1" xmlns="http://www.w3.org/2000/svg">
<g id="#ff0000ff">
<path fill="#ff0000" opacity="1.00" d=" M 124.31 0.00 L 126.67 0.00 C 155.95 0.13 185.26 10.36 207.58 29.44 C 228.64 47.10 243.23 72.10 248.71 99.00 C 357.14 99.01 465.56 98.98 573.99 99.01 C 581.11 98.92 588.51 101.29 593.43 106.61 C 597.42 110.73 599.33 116.38 600.00 121.98 L 600.00 124.69 C 599.48 133.32 595.55 142.34 587.72 146.68 C 579.24 151.65 569.07 149.54 559.74 150.01 C 559.73 159.34 559.74 168.66 559.74 177.99 C 559.74 186.21 556.13 194.53 549.57 199.61 C 539.78 207.42 524.19 206.48 515.43 197.53 C 510.89 192.90 508.74 186.34 508.70 179.93 C 508.64 169.96 508.68 159.99 508.68 150.02 C 500.50 149.98 492.31 150.00 484.13 150.01 C 484.12 159.33 484.13 168.65 484.13 177.97 C 484.13 186.29 480.44 194.71 473.73 199.77 C 464.25 207.17 449.52 206.46 440.68 198.37 C 435.63 193.75 433.14 186.85 433.09 180.09 C 433.01 170.06 433.09 160.04 433.06 150.01 C 371.75 149.99 310.44 150.01 249.13 150.00 C 243.73 178.57 228.15 205.19 205.39 223.37 C 183.85 240.91 156.27 250.39 128.58 251.00 L 122.58 251.00 C 92.28 250.31 62.16 238.80 39.90 218.09 C 14.73 195.22 0.36 161.52 0.00 127.62 L 0.00 123.38 C 0.23 113.63 1.38 103.88 3.72 94.40 C 10.10 67.90 25.53 43.67 46.99 26.85 C 68.78 9.51 96.54 0.23 124.31 0.00 M 114.48 49.77 C 92.26 52.54 71.48 65.80 60.35 85.33 C 49.77 103.45 47.48 125.89 52.94 146.03 C 57.35 162.31 67.54 176.99 81.45 186.56 C 110.06 206.57 152.54 204.18 178.04 180.03 C 200.30 159.52 207.09 125.00 196.09 97.09 C 189.33 79.75 175.99 65.05 159.27 56.82 C 145.53 49.93 129.67 47.70 114.48 49.77 Z" />
</g>
</svg>
