<svg width="309pt" height="309pt" viewBox="0 0 309 309" version="1.1" xmlns="http://www.w3.org/2000/svg">
<g id="#50bb34ff">
<path fill="#50bb34" opacity="1.00" d=" M 60.31 0.00 L 63.64 0.00 C 69.87 0.85 74.91 6.56 74.72 12.90 C 74.79 87.13 74.74 161.37 74.75 235.61 C 148.51 235.66 222.27 235.59 296.04 235.64 C 302.56 235.37 308.44 240.74 309.00 247.20 L 309.00 250.18 C 308.11 256.43 302.39 261.59 295.98 261.25 C 283.91 261.26 271.83 261.24 259.76 261.25 C 259.69 273.15 259.85 285.05 259.70 296.95 C 259.57 302.99 254.57 308.14 248.68 309.00 L 245.41 309.00 C 239.47 308.19 234.47 303.01 234.32 296.95 C 234.13 285.05 234.32 273.15 234.24 261.25 C 178.81 261.26 123.38 261.24 67.95 261.26 C 63.81 261.17 59.28 261.84 55.59 259.55 C 51.55 257.26 49.09 252.66 49.25 248.05 C 49.26 189.83 49.23 131.62 49.26 73.41 C 36.86 73.28 24.45 73.51 12.04 73.31 C 6.02 73.23 0.98 68.23 0.00 62.43 L 0.00 58.80 C 0.89 52.93 6.00 47.86 12.07 47.81 C 24.45 47.66 36.85 47.79 49.23 47.76 C 49.31 35.86 49.16 23.96 49.30 12.06 C 49.42 6.02 54.42 0.86 60.31 0.00 Z" />
<path fill="#50bb34" opacity="1.00" d=" M 90.56 60.93 C 90.16 54.05 96.20 47.61 103.13 47.77 C 151.07 47.73 199.02 47.75 246.97 47.76 C 253.99 47.50 260.14 53.96 259.75 60.93 C 259.74 109.97 259.77 159.01 259.73 208.05 C 259.84 213.73 255.67 219.11 250.13 220.42 C 242.44 222.64 234.00 216.06 234.28 208.06 C 234.22 163.18 234.25 118.29 234.26 73.41 C 190.52 73.31 146.77 73.44 103.03 73.34 C 96.41 73.42 90.57 67.51 90.56 60.93 Z" />
</g>
</svg>
