<svg width="128pt" height="32pt" viewBox="0 0 128 32" version="1.1" xmlns="http://www.w3.org/2000/svg">
<g id="#333333ff">
<path fill="#333333" opacity="1.00" d=" M 14.48 0.00 L 17.85 0.00 C 25.21 0.75 31.88 6.72 32.52 14.23 C 33.74 22.91 26.61 31.07 18.09 32.00 L 14.81 32.00 C 7.29 31.32 0.88 25.17 0.00 17.65 L 0.00 14.49 C 0.76 6.99 7.07 0.90 14.48 0.00 Z" />
<path fill="#333333" opacity="1.00" d=" M 62.31 0.00 L 65.55 0.00 C 73.32 0.73 80.06 7.36 80.29 15.27 C 80.94 23.74 73.69 31.36 65.38 32.00 L 62.81 32.00 C 54.99 31.47 48.05 24.92 47.71 16.99 C 46.88 8.51 54.03 0.84 62.31 0.00 Z" />
<path fill="#333333" opacity="1.00" d=" M 109.91 0.00 L 113.09 0.00 C 120.73 0.64 127.29 6.95 128.00 14.62 L 128.00 17.21 C 127.39 24.84 120.98 31.10 113.45 32.00 L 110.20 32.00 C 102.18 31.28 95.11 24.20 95.36 15.99 C 95.16 7.89 102.00 0.88 109.91 0.00 Z" />
</g>
</svg>
