<svg width="330pt" height="330pt" viewBox="0 0 330 330" version="1.1" xmlns="http://www.w3.org/2000/svg">
<g id="#ffffffff">
<path fill="#ffffff" opacity="1.00" d=" M 0.00 44.00 C 110.00 44.00 220.00 44.00 330.00 44.00 L 330.00 286.00 C 220.00 286.00 110.00 286.00 0.00 286.00 L 0.00 44.00 M 22.00 66.00 C 22.00 84.33 22.00 102.67 22.00 121.00 C 33.01 121.03 44.03 120.95 55.04 121.03 C 60.85 120.87 66.07 126.06 65.98 131.86 C 66.02 157.58 66.01 183.31 65.98 209.03 C 66.13 214.86 60.91 220.10 55.09 219.98 C 44.06 220.03 33.03 219.98 22.00 220.00 C 22.00 234.67 22.00 249.33 22.00 264.00 C 66.00 264.00 110.00 264.00 154.00 264.00 C 154.00 256.41 154.00 248.82 154.00 241.23 C 133.93 238.36 115.24 227.19 103.21 210.88 C 91.95 195.87 86.55 176.64 88.34 157.96 C 89.92 139.75 98.38 122.29 111.56 109.64 C 123.06 98.47 138.13 91.08 154.00 88.77 C 154.00 81.18 154.00 73.59 154.00 66.00 C 110.00 66.00 66.00 66.00 22.00 66.00 M 176.00 66.00 C 176.00 73.59 176.00 81.18 176.00 88.77 C 195.58 91.57 213.86 102.27 225.90 117.96 C 236.90 132.06 242.70 150.11 241.93 167.99 C 241.29 186.92 233.23 205.44 219.92 218.89 C 208.24 230.88 192.56 238.83 176.00 241.23 C 176.00 248.82 176.00 256.41 176.00 264.00 C 220.00 264.00 264.00 264.00 308.00 264.00 C 308.00 249.33 308.00 234.67 308.00 220.00 C 296.98 219.98 285.96 220.03 274.95 219.98 C 269.13 220.12 263.89 214.91 264.04 209.08 C 263.97 183.36 263.99 157.63 264.02 131.91 C 263.90 126.13 269.07 120.94 274.84 121.02 C 285.89 120.96 296.95 121.02 308.00 121.00 C 308.00 102.67 308.00 84.33 308.00 66.00 C 264.00 66.00 220.00 66.00 176.00 66.00 M 113.07 146.92 C 107.63 162.28 109.53 180.03 118.20 193.84 C 126.03 206.64 139.29 215.90 153.99 218.92 C 154.01 182.97 154.01 147.03 153.99 111.08 C 135.34 114.86 119.19 128.88 113.07 146.92 M 176.01 111.08 C 175.99 147.03 175.99 182.97 176.01 218.92 C 194.39 215.23 210.33 201.54 216.65 183.88 C 222.51 168.14 220.56 149.74 211.46 135.62 C 203.60 123.08 190.48 114.09 176.01 111.08 M 22.00 143.00 C 22.00 161.33 22.00 179.67 22.00 198.00 C 29.33 198.00 36.67 198.00 44.00 198.00 C 44.00 179.67 44.00 161.33 44.00 143.00 C 36.67 143.00 29.33 143.00 22.00 143.00 M 286.00 143.00 C 286.00 161.33 286.00 179.67 286.00 198.00 C 293.33 198.00 300.67 198.00 308.00 198.00 C 308.00 179.67 308.00 161.33 308.00 143.00 C 300.67 143.00 293.33 143.00 286.00 143.00 Z" />
</g>
</svg>
