<svg version="1.1" id="Layer_1" xmlns="http://www.w3.org/2000/svg" xmlns:xlink="http://www.w3.org/1999/xlink" x="0px" y="0px"
	 viewBox="0 0 30 30" style="enable-background:new 0 0 30 30;" xml:space="preserve">
<style type="text/css">
	.st0{fill:#DA8F33;}
</style>
<path class="st0" d="M0,0h30C19.9,7.1,9.9,13.9,0,21V0z M18.7,3.9H4v10.3C8.4,10.7,13.7,7.3,18.7,3.9L18.7,3.9z M9.7,22.9
	c0.1-0.1,0.1-0.3,0.2-0.4c5.2-5.2,10.3-10.3,15.5-15.5c0,0,0.1-0.1,0.1-0.1l4.4,4.4c-0.9,0.9-1.8,1.8-2.7,2.7
	c-4.3,4.3-8.5,8.5-12.8,12.8c-0.2,0.2-0.4,0.3-0.6,0.4c-2.2,0.9-4.5,1.8-6.7,2.7c-0.1,0-0.1,0-0.2,0.1c0.1-0.3,0.2-0.6,0.3-0.9
	C8.1,27.1,8.9,25,9.7,22.9L9.7,22.9z M25.6,12.7c0.5-0.5,0.9-0.9,1.4-1.4c-0.4-0.5-0.9-0.9-1.4-1.4c-0.5,0.5-0.9,0.9-1.4,1.4
	C24.7,11.8,25.2,12.2,25.6,12.7L25.6,12.7z M10.8,26.3c0.9-0.4,1.7-0.9,2.6-1.3c0.1-0.1,0.2-0.1,0.3-0.2c3.4-3.4,6.9-6.9,10.3-10.3
	c0.1-0.1,0.1-0.1,0.2-0.2c-0.5-0.5-1-1-1.4-1.4c0,0-0.1,0.1-0.1,0.1c-3.5,3.5-6.9,6.9-10.4,10.4c-0.1,0.1-0.2,0.2-0.2,0.3
	c-0.4,0.8-0.8,1.7-1.3,2.5c0,0.1-0.1,0.1-0.1,0.2C10.7,26.3,10.7,26.3,10.8,26.3L10.8,26.3z"/>
</svg>
