<svg width="329pt" height="329pt" viewBox="0 0 329 329" version="1.1" xmlns="http://www.w3.org/2000/svg">
<g id="#50bb34ff">
<path fill="#50bb34" opacity="1.00" d=" M 312.38 77.50 C 316.63 74.95 320.92 81.08 317.48 84.42 C 297.80 114.13 278.16 143.86 258.48 173.56 C 257.20 176.18 253.33 176.94 251.39 174.65 C 249.72 172.95 250.16 170.29 251.54 168.57 C 270.41 140.07 289.27 111.56 308.12 83.05 C 309.47 81.16 310.47 78.90 312.38 77.50 Z" />
<path fill="#50bb34" opacity="1.00" d=" M 253.36 78.56 C 260.83 76.70 269.19 80.55 272.63 87.43 C 275.28 92.21 274.45 97.82 274.56 103.04 C 274.49 107.10 274.74 111.18 274.43 115.24 C 273.71 122.77 267.41 129.25 259.93 130.28 C 252.75 131.52 245.10 127.60 241.87 121.07 C 239.48 116.78 240.03 111.71 240.00 106.98 C 240.07 102.65 239.86 98.32 240.07 93.99 C 240.47 86.66 246.23 80.12 253.36 78.56 M 254.20 87.21 C 250.17 88.57 248.07 92.97 248.48 97.05 C 248.64 103.01 248.21 109.00 248.72 114.95 C 249.64 121.29 258.25 124.20 262.93 119.89 C 266.56 117.07 266.10 112.12 266.07 108.03 C 265.86 103.03 266.49 97.97 265.69 93.01 C 264.49 88.22 258.78 85.35 254.20 87.21 Z" />
<path fill="#50bb34" opacity="1.00" d=" M 148.44 106.55 C 159.27 104.30 171.27 105.13 180.82 111.10 C 189.13 116.24 194.78 124.75 198.28 133.71 C 203.12 146.19 204.60 159.68 204.97 172.98 C 205.17 188.17 204.52 203.60 200.20 218.27 C 197.36 227.82 192.48 237.21 184.39 243.32 C 176.08 249.72 165.14 251.64 154.88 250.77 C 146.99 250.15 139.22 247.13 133.31 241.80 C 125.77 235.09 121.28 225.66 118.55 216.09 C 114.80 202.74 113.99 188.77 114.14 174.96 C 114.30 162.20 115.38 149.30 119.11 137.03 C 121.77 128.40 126.09 119.96 133.09 114.06 C 137.48 110.34 142.83 107.81 148.44 106.55 M 152.50 114.79 C 146.22 115.95 140.43 119.46 136.54 124.53 C 131.74 130.74 129.23 138.37 127.55 145.94 C 124.49 160.38 124.25 175.26 124.94 189.95 C 125.72 202.01 127.19 214.39 132.61 225.35 C 136.10 232.47 142.15 238.64 149.91 240.88 C 160.41 243.91 173.06 241.93 180.62 233.55 C 188.33 224.98 191.00 213.25 192.69 202.17 C 194.68 186.87 194.73 171.31 192.96 155.99 C 191.35 144.42 188.77 132.16 180.88 123.10 C 173.98 115.14 162.51 112.84 152.50 114.79 Z" />
<path fill="#50bb34" opacity="1.00" d=" M 0.50 107.63 C 31.00 107.62 61.49 107.63 91.99 107.62 C 91.88 110.47 92.48 113.48 91.41 116.20 C 72.16 160.46 52.90 204.72 33.67 248.99 C 29.86 249.00 26.06 249.00 22.25 248.99 C 41.64 205.00 61.04 161.00 80.42 117.00 C 53.78 116.99 27.14 117.00 0.50 117.00 C 0.50 113.87 0.50 110.75 0.50 107.63 Z" />
<path fill="#50bb34" opacity="1.00" d=" M 294.52 138.37 C 294.97 129.53 303.25 122.12 312.08 122.51 C 320.70 122.49 328.36 129.77 329.00 138.33 L 329.00 159.19 C 328.26 168.49 319.19 176.04 309.90 174.78 C 301.49 174.08 294.41 166.42 294.46 157.97 C 294.44 151.44 294.32 144.90 294.52 138.37 M 308.49 131.66 C 305.16 132.92 302.88 136.38 302.98 139.94 C 302.98 146.31 302.73 152.71 303.13 159.07 C 303.81 164.89 311.11 168.28 316.07 165.21 C 319.75 163.27 320.85 158.89 320.52 155.03 C 320.35 149.37 320.80 143.68 320.28 138.04 C 319.45 132.84 313.30 129.58 308.49 131.66 Z" />
</g>
</svg>
