<svg width="245pt" height="245pt" viewBox="0 0 245 245" version="1.1" xmlns="http://www.w3.org/2000/svg">
<g id="#50bb34ff">
<path fill="#50bb34" opacity="1.00" d=" M 146.66 0.00 L 150.12 0.00 C 152.77 0.57 155.33 1.70 157.24 3.67 C 185.14 31.46 213.01 59.28 240.89 87.09 C 243.03 89.07 244.39 91.71 245.00 94.55 L 245.00 97.75 C 244.48 100.82 242.93 103.62 240.64 105.73 C 214.91 131.34 189.25 157.01 163.52 182.62 C 159.05 186.99 152.06 188.69 146.13 186.58 C 134.01 182.49 121.88 178.39 109.76 174.28 C 105.08 172.31 99.31 174.63 96.85 178.96 C 86.14 196.87 75.51 214.84 64.73 232.70 C 58.92 239.87 49.87 243.75 40.89 245.00 L 35.40 245.00 C 17.21 244.19 1.33 228.59 0.00 210.46 L 0.00 204.57 C 1.10 195.45 5.10 186.27 12.36 180.41 C 29.07 170.08 45.87 159.88 62.62 149.61 C 64.81 148.18 67.35 147.12 69.12 145.13 C 71.12 142.37 71.62 138.65 70.45 135.45 C 66.27 123.03 61.99 110.65 57.83 98.23 C 55.95 92.52 57.46 85.88 61.64 81.57 C 87.45 55.74 113.35 30.01 139.16 4.19 C 141.17 2.06 143.81 0.65 146.66 0.00 M 129.35 31.52 C 136.64 35.62 141.49 43.63 141.65 52.01 C 141.60 56.26 143.12 60.81 146.84 63.21 C 150.96 66.22 156.34 64.85 160.97 66.33 C 170.30 68.74 177.62 77.25 178.59 86.84 C 178.93 90.29 178.76 94.05 180.83 97.03 C 183.16 100.82 187.71 102.51 192.00 102.46 C 200.80 102.53 209.11 107.77 213.25 115.49 C 219.63 109.05 226.07 102.67 232.46 96.25 C 204.45 68.35 176.50 40.40 148.48 12.51 C 142.08 18.83 135.80 25.26 129.35 31.52 M 119.56 41.45 C 108.24 52.53 97.06 63.79 85.86 75.00 C 113.87 102.90 141.80 130.88 169.86 158.73 C 181.02 147.47 192.43 136.45 203.45 125.06 C 202.66 121.60 200.81 118.19 197.56 116.48 C 194.67 114.72 191.20 114.92 187.96 114.58 C 178.80 113.67 170.53 107.02 167.72 98.25 C 165.56 92.69 167.69 85.59 162.79 81.20 C 158.36 76.52 151.46 78.60 145.98 76.50 C 138.32 74.06 132.18 67.55 130.16 59.78 C 128.74 55.04 130.12 49.46 126.74 45.39 C 125.03 43.37 122.23 41.00 119.56 41.45 M 69.99 91.03 C 69.08 92.57 69.59 94.32 70.15 95.87 C 74.26 107.88 78.32 119.91 82.41 131.92 C 85.37 140.87 82.31 152.05 74.10 157.15 C 56.11 168.20 38.08 179.16 20.11 190.23 C 9.91 198.87 10.11 216.12 19.83 225.10 C 28.79 234.86 46.04 235.18 54.80 225.06 C 65.35 207.52 75.80 189.92 86.30 172.36 C 91.60 163.25 103.76 158.71 113.66 162.48 C 126.11 166.64 138.50 171.02 151.01 175.01 C 155.57 175.04 157.72 169.99 161.04 167.58 C 133.04 139.64 105.03 111.71 77.03 83.77 C 74.70 86.21 72.08 88.38 69.99 91.03 Z" />
<path fill="#50bb34" opacity="1.00" d=" M 32.43 195.59 C 38.49 193.51 46.09 196.55 48.13 202.84 C 50.69 209.27 47.09 217.58 40.16 219.24 C 34.05 221.13 26.62 217.85 24.75 211.54 C 22.51 205.29 25.85 197.44 32.43 195.59 Z" />
</g>
</svg>
