<svg width="240pt" height="240pt" viewBox="0 0 240 240" version="1.1" xmlns="http://www.w3.org/2000/svg">
<g id="#ffffffff">
<path fill="#ffffff" opacity="1.00" d=" M 3.26 3.22 C 4.95 1.37 7.54 0.82 9.95 0.87 C 20.63 0.88 31.32 0.83 42.00 0.89 C 48.89 1.00 56.28 1.79 62.00 6.02 C 66.59 9.37 68.91 14.81 70.62 20.04 C 72.46 32.93 74.12 45.85 75.82 58.76 C 79.36 57.22 83.25 57.84 86.99 57.73 C 135.01 57.72 183.03 57.76 231.05 57.71 C 233.17 57.90 235.23 55.86 237.24 56.71 C 240.52 59.62 237.97 63.76 236.86 67.05 C 226.57 95.36 216.35 123.70 206.03 152.00 C 204.58 155.39 202.40 160.08 198.03 159.80 C 163.66 159.79 129.29 159.83 94.93 159.78 C 92.54 159.88 90.57 158.42 88.91 156.89 C 90.14 164.94 91.00 173.04 92.25 181.08 C 93.26 185.09 94.16 189.62 97.60 192.30 C 103.14 190.76 109.10 191.31 114.34 193.62 C 116.05 192.51 117.90 191.38 120.04 191.55 C 134.69 191.50 149.34 191.57 164.00 191.52 C 167.21 191.34 170.58 191.52 173.21 193.62 C 184.17 188.31 198.56 192.89 204.25 203.70 C 208.78 211.63 208.09 222.15 202.56 229.42 C 197.48 236.40 188.43 240.19 179.90 238.81 C 170.72 237.56 162.74 230.44 160.40 221.49 C 159.05 216.84 159.48 211.90 160.81 207.30 C 149.41 207.37 138.02 207.33 126.62 207.32 C 128.75 213.96 128.19 221.50 124.50 227.49 C 119.82 235.53 110.10 240.28 100.87 238.85 C 91.49 237.64 83.36 230.24 81.16 221.07 C 79.40 214.30 80.93 206.91 84.92 201.21 C 80.35 195.76 78.07 188.81 76.72 181.94 C 69.77 130.96 62.85 79.97 55.92 28.99 C 55.39 25.06 55.19 20.65 52.38 17.55 C 51.03 16.04 48.86 16.07 47.01 16.09 C 35.01 16.46 23.00 16.17 11.00 16.28 C 8.23 16.39 5.14 16.04 3.19 13.84 C 0.32 11.03 0.35 5.98 3.26 3.22 M 77.76 73.26 C 81.16 98.50 84.57 123.73 87.85 148.98 C 89.23 146.32 91.71 144.00 94.90 144.11 C 127.93 144.00 160.98 144.10 194.01 144.07 C 202.85 120.51 211.67 96.96 220.51 73.41 C 172.93 73.30 125.34 73.59 77.76 73.26 M 102.19 206.18 C 95.41 207.39 92.48 216.75 97.43 221.57 C 101.81 226.78 111.17 224.60 112.96 218.08 C 115.33 211.66 108.83 204.41 102.19 206.18 M 179.47 206.84 C 173.16 209.49 172.27 219.19 178.11 222.83 C 183.52 227.06 192.36 222.86 192.64 216.05 C 193.52 209.25 185.59 203.63 179.47 206.84 Z" />
</g>
</svg>
