<svg width="512pt" height="512pt" viewBox="0 0 512 512" version="1.1" xmlns="http://www.w3.org/2000/svg">
<g id="#222222ff">
<path fill="#222222" opacity="1.00" d=" M 24.51 44.37 C 30.30 31.91 42.90 21.81 57.02 21.72 C 111.98 21.75 166.94 21.76 221.90 21.72 C 242.28 20.44 261.31 39.68 259.85 60.03 C 259.81 124.07 259.84 188.11 259.83 252.15 C 323.87 252.14 387.91 252.17 451.95 252.14 C 472.31 250.59 491.53 269.71 490.28 290.05 C 490.19 341.72 490.27 393.39 490.24 445.06 C 490.13 451.68 490.94 458.56 488.57 464.90 C 484.67 475.75 475.73 484.68 464.88 488.58 C 458.84 490.85 452.29 490.17 445.98 490.25 C 375.31 490.23 304.63 490.26 233.96 490.24 C 212.97 490.72 191.99 490.00 170.99 490.26 C 133.00 490.21 95.00 490.27 57.00 490.23 C 47.30 490.39 38.21 485.25 31.72 478.32 C 26.04 472.32 21.93 464.41 21.74 456.03 C 21.74 325.03 21.74 194.03 21.74 63.03 C 21.53 56.72 21.66 50.15 24.51 44.37 M 53.33 29.18 C 47.32 30.20 41.62 33.04 37.49 37.57 C 30.46 43.89 28.10 53.82 28.66 62.97 C 28.71 190.65 28.68 318.34 28.67 446.02 C 28.69 451.01 28.34 456.09 29.68 460.96 C 32.76 474.02 45.74 483.58 59.07 483.32 C 114.06 483.30 169.05 483.34 224.04 483.30 C 237.82 482.90 251.00 472.05 252.36 458.06 C 252.37 325.73 252.36 193.40 252.36 61.06 C 252.38 56.45 252.82 51.63 250.77 47.34 C 246.62 36.44 235.51 29.02 223.95 28.69 C 168.65 28.65 113.34 28.71 58.04 28.67 C 56.46 28.71 54.88 28.87 53.33 29.18 M 259.71 259.71 C 259.54 264.21 259.52 268.72 259.74 273.23 C 318.73 273.48 377.72 273.17 436.71 273.39 C 437.34 274.05 437.97 274.72 438.61 275.39 C 438.60 338.96 438.65 402.54 438.60 466.10 C 439.01 468.64 435.99 469.36 434.07 469.47 C 374.57 469.45 315.07 469.39 255.57 469.50 C 254.33 471.85 253.10 474.29 251.08 476.09 C 249.07 478.25 245.92 479.89 245.79 483.20 C 314.52 483.49 383.26 483.19 452.00 483.36 C 456.63 483.36 461.35 482.65 465.58 480.66 C 475.98 476.15 483.19 465.27 483.31 453.93 C 483.32 402.31 483.33 350.68 483.31 299.06 C 483.16 292.72 484.01 286.18 481.96 280.05 C 478.47 268.57 467.37 258.95 455.02 259.58 C 389.92 259.72 324.81 259.46 259.71 259.71 M 260.00 280.00 C 260.00 340.67 259.99 401.33 260.01 462.00 C 317.34 462.00 374.67 462.00 432.00 462.00 C 432.00 401.33 432.00 340.67 432.00 280.00 C 374.67 280.00 317.33 280.00 260.00 280.00 Z" />
<path fill="#222222" opacity="1.00" d=" M 277.79 51.14 C 277.67 48.94 279.77 47.14 281.92 47.39 C 304.53 47.43 327.54 49.42 348.93 57.19 C 365.07 62.99 379.92 72.99 390.22 86.83 C 400.57 100.56 406.40 117.16 409.63 133.91 C 412.11 147.47 413.36 161.26 413.31 175.05 C 420.81 175.83 428.38 174.98 435.90 175.47 C 438.93 175.82 440.14 179.97 437.92 182.03 C 420.83 198.90 403.95 216.01 386.91 232.92 C 385.40 234.78 382.54 234.67 381.05 232.85 C 364.04 215.89 347.02 198.92 330.10 181.88 C 327.84 179.96 329.11 175.80 332.04 175.47 C 339.51 175.12 347.00 175.56 354.48 175.25 C 354.00 157.32 350.17 138.03 337.23 124.73 C 324.33 111.26 304.94 106.92 286.94 106.35 C 283.55 106.36 277.42 106.99 277.71 101.92 C 277.82 85.00 277.64 68.06 277.79 51.14 M 285.43 55.09 C 285.38 69.56 285.37 84.04 285.45 98.51 C 298.15 99.20 311.05 100.93 322.73 106.27 C 335.75 111.89 346.71 122.17 353.01 134.90 C 359.92 148.50 362.10 163.98 362.18 179.08 C 362.23 180.85 360.90 182.79 359.03 182.85 C 353.35 183.13 347.65 182.79 341.95 182.94 C 355.93 197.00 369.99 210.97 383.99 225.00 C 398.00 210.97 412.07 197.00 426.03 182.93 C 420.09 182.79 414.13 183.26 408.21 182.73 C 406.17 182.10 405.72 179.79 405.76 177.94 C 405.55 153.71 403.59 128.74 393.53 106.38 C 386.45 90.31 373.77 76.79 358.01 68.99 C 335.64 57.78 310.10 55.32 285.43 55.09 Z" />
</g>
<g id="#000000ff">
<path fill="#000000" opacity="1.00" d=" M 53.33 29.18 C 54.88 28.87 56.46 28.71 58.04 28.67 C 113.34 28.71 168.65 28.65 223.95 28.69 C 235.51 29.02 246.62 36.44 250.77 47.34 C 252.82 51.63 252.38 56.45 252.36 61.06 C 252.36 193.40 252.37 325.73 252.36 458.06 C 251.00 472.05 237.82 482.90 224.04 483.30 C 169.05 483.34 114.06 483.30 59.07 483.32 C 45.74 483.58 32.76 474.02 29.68 460.96 C 28.34 456.09 28.69 451.01 28.67 446.02 C 28.68 318.34 28.71 190.65 28.66 62.97 C 28.10 53.82 30.46 43.89 37.49 37.57 C 41.62 33.04 47.32 30.20 53.33 29.18 M 115.56 48.36 C 113.11 50.53 114.65 54.72 117.94 54.67 C 131.30 54.75 144.67 54.66 158.04 54.70 C 160.97 54.62 164.17 55.25 166.73 53.40 C 166.66 51.59 167.57 48.58 165.00 48.20 C 158.36 47.51 151.65 48.06 144.98 47.90 C 135.17 48.12 125.32 47.37 115.56 48.36 M 49.00 79.00 C 49.00 193.00 49.00 307.00 49.00 421.00 C 110.00 421.00 171.00 421.00 232.00 421.00 C 232.00 307.00 232.00 193.00 232.00 79.00 C 171.00 79.00 110.00 79.00 49.00 79.00 M 124.10 463.74 C 128.41 472.99 140.93 477.56 149.78 471.88 C 152.62 470.06 155.07 467.62 156.89 464.79 C 162.35 456.67 158.78 445.16 150.83 440.10 C 147.08 437.60 142.44 436.29 137.95 437.18 C 126.44 439.05 117.91 453.09 124.10 463.74 Z" />
<path fill="#000000" opacity="1.00" d=" M 259.71 259.71 C 324.81 259.46 389.92 259.72 455.02 259.58 C 467.37 258.95 478.47 268.57 481.96 280.05 C 484.01 286.18 483.16 292.72 483.31 299.06 C 483.33 350.68 483.32 402.31 483.31 453.93 C 483.19 465.27 475.98 476.15 465.58 480.66 C 461.35 482.65 456.63 483.36 452.00 483.36 C 383.26 483.19 314.52 483.49 245.79 483.20 C 245.92 479.89 249.07 478.25 251.08 476.09 C 253.10 474.29 254.33 471.85 255.57 469.50 C 315.07 469.39 374.57 469.45 434.07 469.47 C 435.99 469.36 439.01 468.64 438.60 466.10 C 438.65 402.54 438.60 338.96 438.61 275.39 C 437.97 274.72 437.34 274.05 436.71 273.39 C 377.72 273.17 318.73 273.48 259.74 273.23 C 259.52 268.72 259.54 264.21 259.71 259.71 M 458.51 345.57 C 458.21 346.01 457.61 346.90 457.31 347.35 C 457.34 362.92 457.27 378.49 457.34 394.06 C 457.22 397.30 461.28 398.74 463.54 396.61 C 463.82 395.06 464.16 393.52 464.15 391.95 C 464.14 378.63 464.12 365.31 464.16 351.99 C 464.17 350.00 463.97 348.03 463.73 346.06 C 462.80 345.58 461.88 345.11 460.97 344.65 C 460.35 344.88 459.13 345.34 458.51 345.57 Z" />
<path fill="#000000" opacity="1.00" d=" M 130.57 448.50 C 134.35 443.53 142.03 442.23 147.27 445.46 C 147.59 445.41 148.22 445.32 148.54 445.28 L 148.45 446.19 C 150.60 446.86 151.08 449.25 152.02 451.00 C 153.62 456.13 152.72 463.03 147.57 465.84 L 147.62 466.38 C 144.13 467.46 140.49 467.93 136.87 467.27 C 136.02 466.88 135.17 466.49 134.31 466.12 C 133.50 465.44 132.63 464.83 131.73 464.30 C 128.31 459.82 128.19 453.47 130.57 448.50 Z" />
</g>
<g id="#ffffffff">
<path fill="#ffffff" opacity="1.00" d=" M 115.56 48.36 C 125.32 47.37 135.17 48.12 144.98 47.90 C 151.65 48.06 158.36 47.51 165.00 48.20 C 167.57 48.58 166.66 51.59 166.73 53.40 C 164.17 55.25 160.97 54.62 158.04 54.70 C 144.67 54.66 131.30 54.75 117.94 54.67 C 114.65 54.72 113.11 50.53 115.56 48.36 Z" />
<path fill="#ffffff" opacity="1.00" d=" M 458.51 345.57 C 459.13 345.34 460.35 344.88 460.97 344.65 C 461.88 345.11 462.80 345.58 463.73 346.06 C 463.97 348.03 464.17 350.00 464.16 351.99 C 464.12 365.31 464.14 378.63 464.15 391.95 C 464.16 393.52 463.82 395.06 463.54 396.61 C 461.28 398.74 457.22 397.30 457.34 394.06 C 457.27 378.49 457.34 362.92 457.31 347.35 C 457.61 346.90 458.21 346.01 458.51 345.57 Z" />
<path fill="#ffffff" opacity="1.00" d=" M 124.10 463.74 C 117.91 453.09 126.44 439.05 137.95 437.18 C 142.44 436.29 147.08 437.60 150.83 440.10 C 158.78 445.16 162.35 456.67 156.89 464.79 C 155.07 467.62 152.62 470.06 149.78 471.88 C 140.93 477.56 128.41 472.99 124.10 463.74 M 130.57 448.50 C 128.19 453.47 128.31 459.82 131.73 464.30 C 132.63 464.83 133.50 465.44 134.31 466.12 C 135.17 466.49 136.02 466.88 136.87 467.27 C 140.49 467.93 144.13 467.46 147.62 466.38 L 147.57 465.84 C 152.72 463.03 153.62 456.13 152.02 451.00 C 151.08 449.25 150.60 446.86 148.45 446.19 L 148.54 445.28 C 148.22 445.32 147.59 445.41 147.27 445.46 C 142.03 442.23 134.35 443.53 130.57 448.50 Z" />
</g>
</svg>
