<svg width="337pt" height="337pt" viewBox="0 0 337 337" version="1.1" xmlns="http://www.w3.org/2000/svg">
<g id="#ffffffff">
<path fill="#ffffff" opacity="1.00" d=" M 177.22 0.00 L 179.69 0.00 C 186.56 0.20 193.56 1.81 199.28 5.76 C 206.88 10.95 212.00 18.97 215.79 27.20 C 220.31 37.88 213.91 50.75 203.83 55.59 C 197.12 59.15 189.31 58.22 182.01 58.31 C 176.37 58.08 170.73 59.63 165.12 58.47 C 153.92 56.66 144.86 47.52 141.55 36.90 C 138.24 24.80 144.81 11.57 155.37 5.35 C 161.87 1.24 169.69 0.29 177.22 0.00 Z" />
<path fill="#ffffff" opacity="1.00" d=" M 123.56 75.23 C 131.69 71.64 138.73 64.98 148.01 64.57 C 157.35 63.91 165.60 68.90 174.16 71.75 C 180.84 74.16 188.39 76.27 192.73 82.34 C 196.99 88.34 196.31 96.13 195.58 103.05 C 193.42 124.98 192.17 146.98 190.22 168.93 C 189.34 177.28 192.01 186.08 198.19 191.92 C 211.10 204.28 223.21 217.48 236.68 229.25 C 244.98 236.50 247.73 247.65 249.45 258.07 C 252.68 275.34 256.10 292.57 259.08 309.89 C 260.15 316.08 260.83 322.91 257.60 328.61 C 255.38 333.29 250.71 336.50 245.56 337.00 L 242.56 337.00 C 238.34 336.57 234.01 335.12 231.15 331.85 C 227.83 328.33 226.91 323.44 225.67 318.94 C 221.80 304.85 218.47 290.62 215.84 276.26 C 213.01 262.10 204.11 250.01 193.63 240.45 C 176.84 225.21 157.58 213.10 139.73 199.22 C 133.91 194.72 132.49 186.88 133.06 179.95 C 134.44 157.67 137.85 135.58 138.97 113.28 C 134.67 113.04 130.08 112.21 125.98 113.96 C 122.08 115.91 121.43 120.70 120.76 124.54 C 118.58 140.35 116.51 156.18 114.18 171.97 C 113.29 178.09 112.97 184.79 108.80 189.76 C 103.45 196.86 91.47 198.47 85.11 191.91 C 80.10 186.26 79.82 178.13 80.14 170.97 C 81.22 158.44 82.69 145.95 84.15 133.46 C 85.49 122.75 86.46 111.92 89.45 101.51 C 91.23 95.36 95.36 90.06 100.59 86.45 C 107.69 81.66 116.03 79.23 123.56 75.23 Z" />
<path fill="#ffffff" opacity="1.00" d=" M 204.97 128.16 C 220.79 140.60 236.87 152.72 252.24 165.72 C 256.26 169.15 260.34 174.24 258.84 179.88 C 256.61 186.72 248.32 191.78 241.38 188.54 C 230.09 182.37 219.40 175.18 208.36 168.59 C 205.72 166.97 202.85 165.07 201.88 161.96 C 200.69 157.97 202.84 154.12 203.47 150.24 C 204.70 142.95 204.38 135.51 204.97 128.16 Z" />
<path fill="#ffffff" opacity="1.00" d=" M 133.01 209.59 C 141.98 216.42 151.20 222.98 159.71 230.38 C 161.00 232.77 160.27 235.81 159.20 238.17 C 144.47 265.38 129.27 292.33 114.31 319.41 C 111.42 324.32 108.68 330.09 103.07 332.39 C 96.98 334.82 90.38 332.12 85.04 329.08 C 78.49 325.29 75.79 316.20 79.49 309.53 C 97.00 276.04 115.20 242.92 133.01 209.59 Z" />
</g>
</svg>
