<svg width="128pt" height="128pt" viewBox="0 0 128 128" version="1.1" xmlns="http://www.w3.org/2000/svg">
<path fill="#000000" opacity="1.00" d=" M 105.91 22.87 C 107.05 21.89 108.20 20.27 109.92 20.60 C 113.19 22.79 115.64 25.93 118.50 28.60 C 119.67 29.81 121.20 30.99 121.34 32.81 C 120.88 34.09 119.92 35.06 118.98 35.99 C 95.95 58.79 73.32 82.01 50.14 104.65 C 48.64 104.51 47.41 103.75 46.44 102.63 C 33.08 89.29 19.67 76.00 6.32 62.65 C 5.16 61.65 3.85 59.72 5.29 58.37 C 8.14 55.20 11.32 52.33 14.26 49.25 C 15.26 47.80 17.72 47.63 18.82 49.03 C 29.00 59.21 39.31 69.27 49.43 79.52 C 68.18 60.56 87.11 41.78 105.91 22.87 Z" />
</svg>
