<svg version="1.1" id="Layer_1" xmlns="http://www.w3.org/2000/svg" xmlns:xlink="http://www.w3.org/1999/xlink" x="0px" y="0px"
	 viewBox="0 0 24 30" style="enable-background:new 0 0 24 30;" xml:space="preserve">
<style type="text/css">
	.st0{fill:#50AFDF;}
</style>
<path class="st0" d="M22,2v26H2V2H22 M24,0H0v30h24V0L24,0z M20,4H4v5h16V4z M8,12H4v4h4V12z M14,12h-4v4h4V12z M20,12h-4v4h4V12z
	 M8,17H4v4h4V17z M14,17h-4v4h4V17z M20,17h-4v4h4V17z M8,22H4v4h4V22z M14,22h-4v4h4V22z M20,22h-4v4h4V22z"/>
</svg>
