<svg width="472pt" height="472pt" viewBox="0 0 472 472" version="1.1" xmlns="http://www.w3.org/2000/svg">
<g id="#ffffffff">
<path fill="#ffffff" opacity="1.00" d=" M 233.42 80.55 C 237.28 79.17 241.53 78.15 245.55 79.58 C 317.42 101.37 389.28 123.19 461.15 144.99 C 467.26 146.64 472.02 152.57 471.83 158.98 C 471.88 164.57 468.25 169.90 463.13 172.08 C 391.38 203.63 319.61 235.14 247.86 266.68 C 243.69 268.67 238.70 268.53 234.59 266.47 C 177.48 240.56 120.35 214.71 63.24 188.80 C 63.27 211.54 63.32 234.28 63.35 257.02 C 63.30 261.94 63.61 266.91 62.67 271.78 C 68.31 273.88 73.77 276.66 78.33 280.64 C 85.71 286.88 90.56 295.67 93.12 304.90 C 95.23 313.04 94.98 321.57 94.43 329.89 C 93.07 348.08 85.56 365.77 73.09 379.13 C 67.11 385.54 60.24 392.26 51.19 393.68 C 42.84 395.08 34.87 390.63 29.02 385.03 C 15.88 373.09 5.56 357.51 1.92 339.96 C -0.93 326.71 -0.03 312.75 3.84 299.81 C 7.97 286.65 19.22 276.54 32.23 272.46 C 32.52 239.91 32.38 207.34 32.29 174.79 C 27.12 172.26 20.73 170.64 17.97 165.05 C 13.55 157.50 18.03 146.87 26.40 144.55 C 95.40 123.19 164.41 101.89 233.42 80.55 M 71.61 160.81 C 128.24 186.57 184.93 212.19 241.59 237.87 C 299.59 212.32 357.65 186.93 415.63 161.33 C 357.46 143.73 299.31 126.06 241.16 108.40 C 184.64 125.85 128.12 143.31 71.61 160.81 M 42.86 304.87 C 37.00 306.85 36.82 313.83 36.07 318.94 C 34.31 331.98 39.28 345.15 47.97 354.80 C 54.56 347.04 58.56 337.16 59.04 326.97 C 59.23 320.78 60.09 314.00 56.64 308.47 C 54.06 303.65 47.48 302.05 42.86 304.87 Z" />
<path fill="#ffffff" opacity="1.00" d=" M 359.14 237.04 C 368.20 233.76 377.32 242.37 377.54 251.28 C 377.78 275.84 377.21 300.41 377.94 324.97 C 378.28 336.04 374.97 347.30 368.04 356.02 C 360.63 365.35 350.20 371.75 339.49 376.68 C 326.55 382.28 312.86 386.03 299.02 388.62 C 266.79 394.72 233.62 395.21 201.10 391.21 C 181.64 388.56 162.14 384.14 144.39 375.52 C 133.25 369.71 122.48 361.87 116.17 350.76 C 111.99 343.58 110.57 335.15 110.54 326.94 C 110.52 303.29 110.53 279.64 110.53 255.99 C 110.24 248.41 116.26 240.87 124.04 240.50 C 132.10 239.81 139.14 247.15 139.24 255.00 C 139.37 279.01 139.25 303.03 139.30 327.04 C 139.26 330.96 140.03 335.18 143.02 337.97 C 153.33 348.53 167.95 352.87 181.82 356.52 C 202.44 361.68 223.80 363.05 245.00 363.13 C 263.07 363.04 281.14 361.12 298.86 357.53 C 311.48 354.62 324.27 351.29 335.58 344.77 C 342.12 340.94 349.55 335.41 349.20 326.93 C 348.52 302.31 348.92 277.67 348.83 253.05 C 348.62 246.32 352.63 239.30 359.14 237.04 Z" />
</g>
</svg>
