<svg width="245pt" height="245pt" viewBox="0 0 245 245" version="1.1" xmlns="http://www.w3.org/2000/svg">
<g id="#50bb34ff">
<path fill="#50bb34" opacity="1.00" d=" M 40.50 0.00 L 203.34 0.00 C 208.84 0.62 213.67 5.22 213.91 10.86 C 214.04 16.25 214.23 21.67 213.77 27.05 C 212.98 32.90 207.37 36.67 201.76 37.01 C 201.74 102.25 201.75 167.50 201.76 232.74 C 205.45 232.95 210.29 231.71 212.83 235.22 C 215.52 238.65 213.38 243.82 209.35 245.00 L 34.87 245.00 C 30.65 244.05 28.43 238.64 31.19 235.19 C 33.74 231.71 38.56 232.95 42.24 232.74 C 42.25 167.50 42.26 102.25 42.24 37.01 C 36.95 36.63 31.61 33.38 30.41 27.94 C 29.59 22.65 30.09 17.24 30.03 11.91 C 29.82 5.94 34.67 0.73 40.50 0.00 M 42.31 12.25 C 42.31 16.34 42.31 20.42 42.32 24.50 C 60.89 24.38 79.46 24.79 98.02 24.19 C 111.00 24.73 124.01 24.43 137.00 24.49 C 142.98 24.18 148.98 24.05 154.96 24.46 C 170.53 24.56 186.10 24.46 201.67 24.51 C 201.69 20.42 201.69 16.34 201.69 12.25 C 148.56 12.25 95.44 12.25 42.31 12.25 M 54.57 36.76 C 54.56 46.94 54.56 57.12 54.57 67.31 C 66.81 67.31 79.06 67.31 91.31 67.31 C 91.31 57.12 91.31 46.94 91.31 36.75 C 79.06 36.75 66.81 36.75 54.57 36.76 M 103.63 36.76 C 103.62 46.94 103.62 57.12 103.63 67.31 C 115.88 67.31 128.12 67.31 140.37 67.31 C 140.38 57.12 140.38 46.94 140.37 36.76 C 128.12 36.75 115.88 36.75 103.63 36.76 M 152.69 36.75 C 152.69 46.94 152.69 57.12 152.69 67.31 C 164.94 67.31 177.19 67.31 189.43 67.31 C 189.44 57.12 189.44 46.94 189.43 36.75 C 177.19 36.75 164.94 36.75 152.69 36.75 M 54.57 79.63 C 54.56 89.81 54.56 100.00 54.57 110.18 C 66.81 110.19 79.06 110.19 91.31 110.18 C 91.31 100.00 91.31 89.81 91.31 79.63 C 79.06 79.62 66.81 79.62 54.57 79.63 M 103.63 79.63 C 103.62 89.81 103.62 100.00 103.63 110.18 C 115.88 110.19 128.12 110.19 140.37 110.18 C 140.38 100.00 140.38 89.81 140.37 79.63 C 128.12 79.62 115.88 79.62 103.63 79.63 M 152.69 79.63 C 152.69 89.81 152.69 100.00 152.69 110.18 C 164.94 110.19 177.19 110.19 189.43 110.18 C 189.44 100.00 189.44 89.81 189.43 79.63 C 177.19 79.62 164.94 79.62 152.69 79.63 M 54.56 122.51 C 54.57 132.69 54.56 142.87 54.57 153.06 C 66.81 153.06 79.06 153.06 91.31 153.06 C 91.31 142.87 91.31 132.69 91.31 122.51 C 79.06 122.49 66.81 122.50 54.56 122.51 M 103.63 122.51 C 103.63 132.69 103.62 142.87 103.63 153.06 C 115.88 153.06 128.12 153.06 140.37 153.06 C 140.38 142.87 140.37 132.69 140.37 122.51 C 128.12 122.50 115.87 122.49 103.63 122.51 M 152.69 122.51 C 152.69 132.69 152.68 142.87 152.69 153.06 C 164.94 153.06 177.19 153.06 189.43 153.06 C 189.44 142.87 189.43 132.69 189.44 122.51 C 177.19 122.50 164.94 122.49 152.69 122.51 M 54.56 165.39 C 54.57 187.77 54.56 210.16 54.56 232.55 C 66.81 232.57 79.06 232.57 91.31 232.55 C 91.43 223.36 91.06 214.16 91.50 204.98 C 92.81 189.52 107.40 176.81 122.90 177.63 C 137.99 177.74 151.57 190.53 152.56 205.60 C 152.87 214.57 152.60 223.57 152.69 232.55 C 164.94 232.57 177.19 232.57 189.44 232.55 C 189.44 210.16 189.43 187.77 189.44 165.39 C 179.64 165.35 169.83 165.40 160.03 165.37 C 139.36 165.88 118.68 164.87 98.01 165.63 C 83.53 165.20 69.04 165.42 54.56 165.39 M 113.27 192.18 C 107.56 195.26 103.69 201.50 103.66 208.01 C 103.57 216.26 103.65 224.51 103.63 232.75 C 115.88 232.75 128.12 232.75 140.37 232.75 C 140.35 224.51 140.43 216.28 140.34 208.04 C 140.32 201.53 136.46 195.28 130.76 192.20 C 125.44 189.19 118.59 189.18 113.27 192.18 Z" />
</g>
</svg>
