<svg width="242pt" height="253pt" viewBox="0 0 242 253" version="1.1" xmlns="http://www.w3.org/2000/svg">
<g id="#00532dff">
<path fill="#00532d" opacity="1.00" d=" M 42.72 0.00 L 49.93 0.00 C 57.83 0.83 65.62 3.30 72.18 7.83 C 77.14 11.07 81.01 15.61 85.23 19.70 C 90.02 24.60 95.35 29.15 98.81 35.16 C 107.60 49.40 107.57 68.37 99.03 82.72 C 108.19 91.90 117.33 101.10 126.55 110.21 C 128.96 107.81 131.40 105.45 133.74 102.99 C 123.46 87.84 124.95 65.91 137.59 52.56 C 151.18 38.85 164.88 25.24 178.53 11.58 C 185.27 4.88 194.42 1.00 203.81 0.00 L 210.13 0.00 C 221.76 0.91 232.72 6.90 239.97 16.00 C 241.09 17.52 241.66 19.37 242.00 21.22 L 242.00 24.17 C 241.49 26.57 240.50 28.93 238.69 30.65 C 206.77 62.62 174.76 94.51 142.88 126.52 C 174.80 158.47 206.75 190.39 238.67 222.33 C 240.44 224.01 241.40 226.30 242.00 228.63 L 242.00 232.13 C 241.24 236.88 237.37 240.02 234.01 243.05 C 227.46 248.81 219.02 252.15 210.37 253.00 L 203.91 253.00 C 194.24 252.10 184.89 247.91 178.07 240.96 C 164.57 227.45 151.00 214.00 137.58 200.41 C 124.97 187.07 123.44 165.16 133.75 150.03 C 131.38 147.57 128.98 145.14 126.50 142.79 C 117.34 151.95 108.16 161.09 99.03 170.28 C 107.57 184.62 107.61 203.59 98.82 217.82 C 94.03 225.77 86.57 231.53 80.30 238.24 C 72.51 246.69 61.55 251.87 50.15 253.00 L 42.89 253.00 C 30.96 251.99 19.44 246.44 11.56 237.37 C 4.85 229.92 0.97 220.23 0.00 210.30 L 0.00 202.68 C 0.92 195.40 3.07 188.19 7.10 182.00 C 10.33 176.72 14.97 172.55 19.29 168.18 C 24.49 163.07 29.36 157.43 35.82 153.85 C 49.99 145.45 68.60 145.62 82.74 154.01 C 91.85 144.95 100.94 135.87 109.99 126.76 L 109.98 126.24 C 100.93 117.12 91.85 108.05 82.74 98.99 C 68.59 107.34 50.01 107.55 35.83 99.16 C 29.34 95.57 24.46 89.89 19.23 84.76 C 14.94 80.42 10.33 76.28 7.12 71.02 C 2.94 64.56 0.72 57.02 0.00 49.40 L 0.00 43.57 C 0.74 33.31 4.71 23.27 11.61 15.60 C 19.44 6.58 30.87 1.07 42.72 0.00 M 42.22 23.31 C 34.91 24.55 28.40 29.55 25.25 36.26 C 22.07 42.83 22.26 50.90 25.75 57.32 C 28.33 62.18 32.86 65.50 36.50 69.51 C 40.24 73.07 43.52 77.34 48.27 79.65 C 55.77 83.43 65.26 82.93 72.27 78.29 C 78.34 74.29 82.21 67.24 82.43 59.99 C 82.74 53.53 80.14 47.04 75.53 42.51 C 71.20 38.18 66.88 33.84 62.54 29.52 C 57.28 24.34 49.48 21.97 42.22 23.31 M 194.34 28.27 C 181.32 41.26 168.31 54.28 155.30 67.30 C 150.42 72.01 148.71 79.50 150.81 85.93 C 171.61 65.35 192.23 44.58 212.93 23.89 C 206.54 21.71 199.08 23.47 194.34 28.27 M 150.79 167.07 C 148.66 173.50 150.42 180.99 155.31 185.70 C 168.31 198.72 181.31 211.73 194.33 224.72 C 199.06 229.55 206.54 231.31 212.95 229.13 C 192.24 208.44 171.62 187.64 150.79 167.07 M 52.38 171.58 C 45.20 173.47 40.64 179.63 35.52 184.51 C 31.96 188.27 27.69 191.56 25.40 196.34 C 21.52 203.95 22.35 213.70 27.52 220.52 C 32.13 226.92 40.16 230.64 48.03 229.99 C 53.64 229.60 59.04 227.06 62.97 223.05 C 67.46 218.52 72.04 214.08 76.46 209.49 C 82.58 202.92 84.16 192.69 80.48 184.53 C 76.07 173.98 63.28 168.05 52.38 171.58 Z" />
</g>
</svg>
