<svg width="600pt" height="600pt" viewBox="0 0 600 600" version="1.1" xmlns="http://www.w3.org/2000/svg">
<g id="#ff0000ff">
<path fill="#ff0000" opacity="1.00" d=" M 292.54 0.00 L 302.68 0.00 C 344.66 0.38 386.58 9.56 424.71 27.16 C 490.87 57.30 545.18 112.36 574.45 178.90 C 590.49 214.89 598.98 254.10 600.00 293.47 L 600.00 306.54 C 598.98 345.92 590.47 385.15 574.42 421.16 C 549.86 476.79 507.93 524.53 456.00 556.15 C 421.62 577.18 382.96 591.22 343.04 596.90 C 331.24 598.67 319.31 599.46 307.40 600.00 L 292.66 600.00 C 252.99 598.84 213.52 590.09 177.32 573.75 C 143.04 558.32 111.70 536.38 85.45 509.47 C 48.36 471.59 21.51 423.76 8.81 372.27 C 3.42 350.79 0.65 328.70 0.00 306.57 L 0.00 295.31 C 0.72 251.20 11.18 207.25 30.77 167.70 C 57.38 113.57 100.72 67.87 153.32 38.37 C 195.66 14.40 243.95 1.35 292.54 0.00 M 290.28 23.34 C 267.50 24.15 244.81 27.72 222.95 34.18 C 177.26 47.45 135.23 72.89 102.07 106.99 C 63.21 146.63 36.59 198.16 27.20 252.90 C 19.70 296.16 22.67 341.23 36.00 383.08 C 51.13 430.99 79.73 474.47 117.45 507.62 C 148.09 534.64 184.73 554.86 224.01 566.13 C 269.22 579.20 317.82 580.29 363.60 569.39 C 398.98 561.02 432.62 545.46 462.01 524.07 C 514.63 486.05 553.36 429.14 568.79 366.03 C 579.96 321.02 579.47 273.17 567.36 228.41 C 557.40 191.32 539.48 156.42 515.33 126.58 C 488.11 92.82 452.94 65.49 413.41 47.62 C 374.98 30.14 332.46 21.82 290.28 23.34 Z" />
<path fill="#ff0000" opacity="1.00" d=" M 233.34 190.53 C 238.79 189.07 244.76 189.65 249.91 191.92 C 303.59 222.99 357.25 254.11 410.94 285.18 C 416.10 288.08 421.11 291.76 424.09 297.00 C 427.81 303.58 427.75 312.19 423.63 318.58 C 420.13 324.04 414.92 328.21 409.25 331.24 C 357.08 361.40 304.99 391.69 252.80 421.80 C 245.28 426.39 235.12 427.34 227.52 422.42 C 220.41 417.90 217.32 409.15 217.31 401.03 C 217.25 340.68 217.30 280.33 217.28 219.98 C 217.23 214.98 217.15 209.85 218.87 205.08 C 221.04 198.33 226.38 192.42 233.34 190.53 M 239.34 267.01 C 239.38 312.99 239.27 358.97 239.39 404.95 C 243.32 403.64 246.72 401.25 250.31 399.26 C 298.44 371.39 346.56 343.50 394.68 315.62 C 398.18 313.51 401.92 311.73 405.07 309.07 C 403.85 307.90 402.69 306.66 401.23 305.81 C 348.89 275.51 296.57 245.17 244.23 214.86 C 242.73 213.99 241.16 213.26 239.58 212.57 C 239.02 230.70 239.50 248.87 239.34 267.01 Z" />
</g>
</svg>
