<svg width="392pt" height="472pt" viewBox="0 0 392 472" version="1.1" xmlns="http://www.w3.org/2000/svg">
<g id="#ffffffff">
<path fill="#ffffff" opacity="1.00" d=" M 66.94 49.83 C 99.14 23.83 138.28 5.02 179.90 1.57 C 216.96 -1.76 254.32 7.70 287.06 24.88 C 314.46 38.90 339.26 58.66 357.09 83.91 C 377.55 112.45 388.29 147.15 390.70 181.98 C 393.20 213.78 387.37 246.33 372.98 274.86 C 360.46 299.91 342.10 321.77 320.82 339.84 C 294.36 362.24 261.40 376.51 227.17 381.55 C 224.72 382.07 221.82 381.94 219.88 383.79 C 218.35 385.47 218.73 387.94 218.65 390.04 C 219.03 403.03 218.71 416.02 218.75 429.01 C 218.41 431.99 221.40 433.56 224.00 433.24 C 254.67 433.18 285.35 433.08 316.02 433.15 C 322.30 433.09 328.88 435.12 333.16 439.90 C 339.61 446.90 339.26 458.86 332.71 465.67 C 328.99 469.70 323.51 471.41 318.21 472.00 L 65.15 472.00 C 61.40 471.70 57.43 471.09 54.40 468.68 C 50.48 465.73 48.81 460.68 48.71 455.93 C 48.66 451.18 49.15 446.05 52.17 442.18 C 56.53 436.41 63.86 433.54 70.92 433.25 C 103.63 433.07 136.35 433.16 169.06 433.12 C 171.73 433.09 172.50 430.13 172.30 427.97 C 172.12 414.30 172.38 400.63 172.43 386.96 C 172.61 384.45 170.52 382.46 168.13 382.27 C 159.82 381.01 151.52 379.58 143.39 377.39 C 111.07 369.08 81.74 351.24 57.48 328.56 C 36.10 308.56 19.50 283.36 10.39 255.49 C 4.11 236.61 1.30 216.74 0.49 196.91 C -0.31 174.20 2.50 151.25 9.89 129.72 C 20.47 98.18 41.18 70.64 66.94 49.83 M 180.53 27.82 C 145.50 30.89 111.42 44.74 84.52 67.45 C 58.94 88.73 39.89 117.87 31.11 150.00 C 22.41 181.31 23.35 215.26 33.99 245.98 C 44.74 277.38 65.41 305.17 92.00 324.98 C 117.17 343.85 147.60 355.57 178.91 358.55 C 208.13 361.41 238.10 356.83 264.99 344.99 C 291.86 333.33 315.61 314.57 333.16 291.12 C 351.79 266.28 363.36 236.10 365.54 205.09 C 368.12 173.51 360.80 141.31 345.21 113.75 C 327.35 81.98 298.88 56.39 265.55 41.68 C 239.02 29.85 209.44 25.18 180.53 27.82 Z" />
<path fill="#ffffff" opacity="1.00" d=" M 182.57 99.79 C 203.90 97.03 226.13 101.38 244.72 112.23 C 265.17 124.02 281.02 143.49 288.37 165.92 C 295.56 187.51 295.13 211.63 286.77 232.84 C 278.02 255.40 260.54 274.38 238.83 285.05 C 218.65 295.09 194.93 297.72 173.01 292.50 C 151.06 287.44 131.12 274.29 117.71 256.20 C 102.33 235.77 95.50 209.28 98.59 183.94 C 100.78 166.24 108.21 149.29 119.47 135.49 C 135.01 116.22 157.98 103.03 182.57 99.79 M 186.58 114.80 C 160.51 117.57 136.70 134.06 123.98 156.83 C 115.22 172.20 111.59 190.46 114.08 207.99 C 116.78 228.13 127.21 247.09 142.70 260.23 C 155.83 271.50 172.65 278.35 189.91 279.52 C 207.08 280.87 224.58 276.34 239.08 267.08 C 256.14 256.29 269.23 239.24 274.84 219.81 C 280.19 201.56 278.64 181.48 270.95 164.13 C 263.62 147.31 250.61 133.00 234.47 124.25 C 219.96 116.30 203.01 113.05 186.58 114.80 Z" />
<path fill="#ffffff" opacity="1.00" d=" M 176.87 141.63 C 185.00 138.66 194.15 137.23 202.53 140.05 C 198.58 149.14 195.03 158.93 195.98 169.01 C 197.19 180.51 205.94 190.05 216.07 194.89 C 228.37 200.23 241.88 195.15 253.39 190.12 C 255.16 203.97 252.01 218.50 244.18 230.12 C 236.51 241.74 224.52 250.38 211.14 254.19 C 194.44 258.86 175.79 255.33 161.75 245.23 C 151.09 237.69 143.22 226.40 139.60 213.88 C 135.22 199.00 137.05 182.42 144.61 168.87 C 151.53 156.22 163.45 146.66 176.87 141.63 Z" />
</g>
</svg>
