<svg width="396pt" height="396pt" viewBox="0 0 396 396" version="1.1" xmlns="http://www.w3.org/2000/svg">
<g id="#ffffffff">
<path fill="#ffffff" opacity="1.00" d=" M 0.00 0.00 L 396.00 0.00 L 396.00 396.00 L 369.59 396.00 C 369.59 272.80 369.59 149.60 369.59 26.40 C 356.40 26.38 343.21 26.43 330.03 26.38 C 329.96 83.59 330.02 140.79 330.00 198.00 C 334.39 198.00 338.78 198.00 343.17 198.00 C 343.17 215.60 343.18 233.20 343.17 250.80 C 299.17 250.80 255.18 250.80 211.18 250.80 C 211.17 233.20 211.18 215.60 211.17 198.01 C 215.58 197.99 220.00 198.00 224.41 198.00 C 224.42 140.80 224.41 83.61 224.42 26.41 C 206.80 26.39 189.19 26.39 171.58 26.41 C 171.59 105.61 171.58 184.80 171.59 264.00 C 176.00 264.00 180.41 263.99 184.83 264.01 C 184.82 281.60 184.83 299.20 184.82 316.80 C 140.82 316.80 96.83 316.80 52.83 316.80 C 52.82 299.20 52.83 281.60 52.83 264.00 C 57.22 264.00 61.61 264.00 66.00 264.00 C 65.99 184.80 66.02 105.59 65.99 26.39 C 52.80 26.41 39.60 26.39 26.41 26.40 C 26.41 149.60 26.41 272.80 26.41 396.00 L 0.00 396.00 L 0.00 0.00 M 92.41 26.40 C 92.37 105.57 92.49 184.75 92.36 263.92 C 109.96 264.10 127.57 263.95 145.17 264.00 C 145.22 184.84 145.09 105.68 145.24 26.52 C 127.64 26.25 110.02 26.48 92.41 26.40 M 250.75 26.53 C 250.92 83.68 250.77 140.84 250.83 198.00 C 268.43 197.94 286.04 198.11 303.65 197.92 C 303.51 140.74 303.63 83.57 303.59 26.40 C 285.97 26.48 268.35 26.23 250.75 26.53 Z" />
</g>
</svg>
