<svg version="1.1" id="Layer_1" xmlns="http://www.w3.org/2000/svg" xmlns:xlink="http://www.w3.org/1999/xlink" x="0px" y="0px"
	 viewBox="0 0 23.2 23.2" style="enable-background:new 0 0 23.2 23.2;" xml:space="preserve">
<style type="text/css">
	.st0{fill:#539C3C;}
</style>
<path class="st0" d="M18.3,23.2c-4.5,0-9.1-2.1-12.6-5.6l-0.1-0.1l0,0C1.9,13.8-0.1,9.1,0,4.6l0-0.3L0.2,4c0.3-0.4,0.6-0.8,1-1.1
	c1.2-1.2,2.6-2.1,4.2-2.8C5.6,0,5.8,0,6.1,0c0.5,0,1.8,0.3,2.1,1.1c0.5,1.5,1.2,3.5,1.7,5.4C10,7,9.9,8.3,9.1,8.8L7.4,9.9
	c0,0,0,0.3,0.2,0.6c0.7,0.9,1.5,1.9,2.4,2.8c0.9,0.9,1.8,1.7,2.7,2.3c0.2,0.1,0.4,0.2,0.6,0.2l0.6-0.9l0.6-0.9
	c0.5-0.8,1.7-0.8,1.9-0.8c0.1,0,0.3,0,0.4,0c2.3,0.5,3.7,1,5.5,1.8c0.8,0.4,1.3,1.8,0.9,2.7c-0.6,1.6-1.5,3-2.8,4.2
	c-0.3,0.3-0.7,0.7-1.1,1L19,23.2L18.3,23.2L18.3,23.2z M2,5c0,3.9,1.9,8,5,11.2l0.1,0.1c3.2,3.2,7.2,5,11.1,5
	c0.2-0.2,0.5-0.4,0.7-0.6c1-1,1.8-2.2,2.3-3.5c0,0-0.1-0.1-0.1-0.2c-1.5-0.7-2.8-1.1-4.9-1.6c-0.1,0-0.2,0-0.2,0l-1,1.6
	c-0.6,1-2.3,1.2-3.5,0.3c-1-0.7-2-1.6-3-2.5c-1-1-1.8-2-2.6-3C5.5,11,5.3,10.2,5.4,9.5c0.1-0.6,0.4-1,0.9-1.3l1.6-1
	c0-0.1,0-0.2,0-0.3C7.5,5.3,6.9,3.5,6.3,2.1C6.3,2,6.2,2,6.1,2C4.8,2.5,3.6,3.3,2.6,4.3C2.4,4.5,2.2,4.7,2,5L2,5z"/>
</svg>
