<svg width="128pt" height="128pt" viewBox="0 0 128 128" version="1.1" xmlns="http://www.w3.org/2000/svg">
<g id="#010101ff">
<path fill="#010101" opacity="1.00" d=" M 48.44 0.00 L 53.57 0.00 C 67.49 0.74 81.07 7.23 90.06 17.93 C 100.94 30.45 105.03 48.47 100.61 64.45 C 98.72 71.75 94.96 78.42 90.28 84.28 C 100.02 94.03 109.76 103.77 119.51 113.52 C 122.29 116.19 124.75 119.23 128.00 121.39 L 128.00 122.82 C 125.70 123.91 123.91 125.70 122.83 128.00 L 121.39 128.00 C 119.86 125.75 117.97 123.81 115.99 121.97 C 105.41 111.42 94.87 100.83 84.30 90.28 C 74.49 98.31 61.80 103.03 49.06 102.27 C 33.39 101.77 18.24 93.47 9.32 80.60 C 3.70 72.74 0.63 63.25 0.00 53.64 L 0.00 48.46 C 0.79 36.23 5.85 24.27 14.48 15.52 C 23.32 6.29 35.73 0.81 48.44 0.00 M 41.47 9.63 C 26.49 12.99 13.94 25.12 10.03 39.96 C 6.32 53.38 9.67 68.55 18.91 79.02 C 26.36 87.75 37.49 93.23 48.97 93.73 C 62.09 94.57 75.33 88.69 83.74 78.64 C 91.29 69.76 95.00 57.70 93.48 46.11 C 91.93 31.54 82.12 18.24 68.73 12.32 C 60.28 8.41 50.52 7.58 41.47 9.63 Z" />
<path fill="#010101" opacity="1.00" d=" M 46.90 29.83 C 49.74 29.80 52.58 29.81 55.43 29.86 C 55.43 35.54 55.45 41.21 55.46 46.89 C 61.17 46.97 66.88 46.85 72.58 46.96 C 72.53 49.78 72.51 52.60 72.50 55.42 C 66.81 55.48 61.12 55.44 55.43 55.43 C 55.44 61.12 55.48 66.80 55.42 72.48 C 52.56 72.53 49.69 72.52 46.83 72.44 C 46.99 66.79 46.90 61.13 46.91 55.48 C 41.22 55.42 35.53 55.47 29.83 55.40 C 29.81 52.56 29.80 49.73 29.83 46.90 C 35.53 46.83 41.22 46.97 46.91 46.91 C 46.97 41.21 46.83 35.52 46.90 29.83 Z" />
</g>
</svg>
