<svg version="1.1" id="Layer_1" xmlns="http://www.w3.org/2000/svg" xmlns:xlink="http://www.w3.org/1999/xlink" x="0px" y="0px"
	 viewBox="0 0 30 30" style="enable-background:new 0 0 30 30;" xml:space="preserve">
<style type="text/css">
	.st0{fill:#CC5E32;}
</style>
<path class="st0" d="M30,15.3l-5.2,6L24,20.7l5.2-6L30,15.3z M29.1,13.3l0.8,0.7l-0.7,0.8L28.5,14l-4.6,5.3L23,18.6v-2.8l4.5-5.2
	l0.8,0.7l0.7-0.8l0.8,0.7L29,11.9l0.8,0.7L29.1,13.3z M23.2,20.1L23,20.3v-0.4L23.2,20.1z M23,19.9v0.4l-2,2.3v-4.5L23,19.9z
	 M23,15.8v2.8l-1.4-1.2L23,15.8z M21,18.2v4.5L20,23.9l-3.8,2l1.5-4L21,18.2L21,18.2z M19,14v2H4v-2H19z M19,10v2H4v-2H19z M13,18v2
	H4v-2H13z M9.1,0H23v15.8l-1.4,1.6l1.4,1.2v1.3l-2-1.7V2H9.8L9,2.6L9.1,0L9.1,0z M9,0L9,0L4.6,3.5L8.1,0H9L9,0z M13.6,26.4
	c-0.3-0.4-0.5-0.9-0.4-1.4c0-0.2,0-0.4,0-0.6c-0.1-0.5-0.6-0.7-1-0.6c-0.2,0-0.3,0.1-0.4,0.3c-0.2,0.2-0.3,0.4-0.3,0.6
	c-0.1,0.3-0.3,0.6-0.4,0.8c-0.7,0.9-2,1-2.9,0.4c-0.3-0.3-0.6-0.6-0.7-1c-0.1-0.4-0.1-0.8-0.1-1.2c0-0.1,0-0.2,0-0.4
	c0.1-0.4-0.1-0.9-0.5-1c-0.4-0.1-0.8,0.1-1,0.4c-1,0.8-1.6,1.9-1.7,3.2l-1-0.1c0.1-1.5,0.9-2.9,2.1-3.9c0.6-0.6,1.6-0.8,2.4-0.3
	c0.5,0.4,0.8,1.1,0.7,1.7c0,0.1,0,0.3,0,0.4c0,0.3,0,0.6,0,0.9c0.1,0.4,0.4,0.6,0.8,0.7c0.4,0.1,0.8-0.1,1-0.4
	c0.1-0.2,0.2-0.4,0.3-0.6c0.1-0.3,0.3-0.6,0.5-0.9c0.7-0.8,1.9-0.8,2.6-0.1c0.3,0.2,0.5,0.6,0.6,0.9c0.1,0.3,0.1,0.5,0.1,0.8
	c0,0.3,0,0.5,0.1,0.7c0.2,0.1,0.4,0.1,0.6,0c0.1-0.1,0.2-0.1,0.3-0.2c0.2-0.2,0.5-0.4,0.7-0.4l0.2,0.9l0,0.1
	c-0.1,0.1-0.2,0.1-0.3,0.2c-0.2,0.2-0.4,0.3-0.6,0.4c-0.2,0.1-0.4,0.1-0.7,0.1C14.3,26.8,13.9,26.6,13.6,26.4L13.6,26.4z M2,8l7-5.3
	V8L2,8L2,8z M23,30H0V8.1L0.1,8H2v20h19v-5.3l2-2.3V30z M0.1,8l4.5-4.5L9,0.1v2.6L2,8v0H0.1L0.1,8z M4.6,3.5L0.1,8H0V7.1L4.6,3.5z
	 M0.1,8L0.1,8L0.1,8L0.1,8z"/>
</svg>
