<svg width="260pt" height="260pt" viewBox="0 0 260 260" version="1.1" xmlns="http://www.w3.org/2000/svg">
<g id="#ffffffff">
<path fill="#ffffff" opacity="1.00" d=" M 54.84 0.00 L 203.14 0.00 C 222.15 86.56 240.94 173.17 260.00 259.72 L 260.00 260.00 L 0.00 260.00 L 0.00 259.95 C 18.33 173.31 36.54 86.65 54.84 0.00 M 68.62 17.34 C 52.80 92.46 36.94 167.56 21.13 242.67 C 54.50 242.65 87.87 242.69 121.24 242.65 C 121.23 239.77 121.24 236.89 121.23 234.01 C 127.02 234.06 132.81 233.85 138.60 234.12 C 138.49 236.96 138.53 239.81 138.52 242.65 C 171.72 242.69 204.92 242.66 238.12 242.67 C 221.70 167.55 205.30 92.43 188.84 17.33 C 172.07 17.35 155.30 17.31 138.52 17.35 C 138.53 20.21 138.51 23.07 138.57 25.93 C 132.79 26.08 127.01 25.97 121.23 25.99 C 121.24 23.11 121.23 20.23 121.24 17.35 C 103.70 17.32 86.16 17.33 68.62 17.34 Z" />
<path fill="#ffffff" opacity="1.00" d=" M 121.23 60.67 C 126.99 60.66 132.76 60.67 138.52 60.67 C 138.55 78.00 138.52 95.33 138.53 112.66 C 132.77 112.68 127.00 112.66 121.24 112.67 C 121.23 95.34 121.24 78.01 121.23 60.67 Z" />
<path fill="#ffffff" opacity="1.00" d=" M 121.24 147.33 C 127.00 147.34 132.77 147.32 138.53 147.34 C 138.52 164.67 138.55 182.00 138.52 199.33 C 132.75 199.33 126.99 199.35 121.23 199.32 C 121.25 181.99 121.22 164.66 121.24 147.33 Z" />
</g>
</svg>
