<?xml version="1.0" encoding="UTF-8" ?>
<!DOCTYPE svg PUBLIC "-//W3C//DTD SVG 1.1//EN" "http://www.w3.org/Graphics/SVG/1.1/DTD/svg11.dtd">
<svg width="600pt" height="684pt" viewBox="0 0 600 684" version="1.1" xmlns="http://www.w3.org/2000/svg">
<g id="#ff0000ff">
<path fill="#ff0000" opacity="1.00" d=" M 295.43 0.00 L 316.58 0.00 C 383.10 2.02 449.45 11.92 513.28 30.88 C 523.42 33.99 533.84 36.61 543.16 41.85 C 569.20 56.13 589.75 80.94 597.40 109.79 C 598.97 115.88 599.81 122.15 600.00 128.44 L 600.00 396.25 C 599.49 414.69 595.17 432.83 589.10 450.18 C 582.29 469.28 573.14 487.66 561.07 504.01 C 553.59 514.41 544.03 523.01 535.18 532.20 C 506.90 560.62 478.12 588.60 447.41 614.40 C 422.40 635.14 396.00 654.74 366.37 668.42 C 346.06 677.79 323.97 683.74 301.52 684.00 L 297.09 684.00 C 274.58 683.46 252.50 677.28 232.20 667.73 C 201.67 653.35 174.53 632.84 148.80 611.21 C 118.82 585.66 90.58 558.15 62.86 530.18 C 55.67 522.69 47.92 515.70 41.57 507.45 C 26.16 487.70 15.21 464.72 7.82 440.86 C 3.45 426.41 0.40 411.47 0.00 396.34 L 0.00 126.58 C 1.83 90.29 25.63 56.79 57.98 40.93 C 65.95 36.88 74.65 34.67 83.10 31.91 C 151.82 10.97 223.61 0.38 295.43 0.00 M 285.30 52.36 C 220.53 53.66 155.78 63.83 94.21 84.18 C 87.94 86.46 81.27 87.89 75.57 91.49 C 62.43 99.54 53.60 114.48 53.58 129.97 C 53.55 217.30 53.58 304.64 53.56 391.97 C 53.35 407.38 57.02 422.58 62.14 437.03 C 67.84 452.57 75.46 467.89 87.42 479.60 C 109.00 501.66 130.83 523.50 153.47 544.49 C 179.22 568.02 205.69 591.19 235.69 609.22 C 253.28 619.60 272.49 628.31 293.06 630.14 C 312.11 631.84 331.00 626.19 347.93 617.82 C 378.84 602.39 405.42 579.87 431.28 557.28 C 459.61 532.03 486.65 505.38 513.53 478.62 C 522.33 469.83 528.59 458.87 533.62 447.59 C 540.90 430.68 546.17 412.54 546.43 394.02 C 546.44 306.36 546.42 218.69 546.43 131.02 C 546.56 122.03 542.70 113.53 537.70 106.26 C 531.62 97.70 523.52 89.93 513.31 86.71 C 439.60 64.09 362.58 50.53 285.30 52.36 Z" />
<path fill="#ff0000" opacity="1.00" d=" M 283.43 94.56 C 354.85 92.90 426.54 102.95 494.73 124.26 C 500.26 126.24 503.63 132.21 503.55 137.94 C 503.59 217.63 503.56 297.33 503.57 377.02 C 503.35 387.57 504.54 398.37 501.39 408.63 C 497.21 423.60 491.53 438.57 482.09 451.06 C 457.48 475.81 432.75 500.46 407.02 524.06 C 390.02 539.52 372.54 554.53 353.68 567.70 C 340.10 576.90 325.69 585.71 309.48 589.25 C 298.83 591.69 287.78 589.40 277.82 585.40 C 260.13 578.29 244.43 567.20 229.32 555.75 C 197.82 531.19 169.19 503.21 141.05 474.93 C 131.88 465.43 122.51 456.11 113.47 446.49 C 104.66 435.40 99.63 421.81 95.85 408.30 C 94.52 403.33 93.66 398.20 93.74 393.04 C 93.77 308.03 93.72 223.01 93.76 138.00 C 93.64 132.11 97.24 125.93 103.02 124.11 C 161.42 106.03 222.30 95.95 283.43 94.56 M 120.54 145.90 C 120.53 227.60 120.53 309.30 120.53 391.00 C 120.69 398.16 122.97 405.05 125.19 411.79 C 127.55 418.05 129.72 424.67 134.12 429.84 C 162.58 458.39 191.02 487.02 221.30 513.68 C 237.12 527.38 253.21 540.94 270.99 552.06 C 279.90 557.38 289.38 562.98 300.00 563.49 C 310.62 563.02 320.04 557.36 328.98 552.12 C 347.29 540.54 363.88 526.49 380.09 512.18 C 409.12 486.19 436.41 458.34 463.11 429.98 C 467.17 425.28 469.24 419.28 471.48 413.59 C 474.19 405.65 477.02 397.48 476.80 388.98 C 476.77 307.95 476.80 226.93 476.78 145.91 C 361.45 111.07 235.88 111.14 120.54 145.90 Z" />
<path fill="#ff0000" opacity="1.00" d=" M 354.53 244.47 C 361.08 239.43 369.89 236.72 378.05 238.92 C 386.18 241.06 392.21 247.94 395.55 255.39 C 399.02 263.06 398.73 272.68 393.52 279.51 C 362.68 317.03 331.98 354.66 301.20 392.24 C 297.78 396.09 295.07 400.75 290.55 403.47 C 283.99 407.59 275.86 408.99 268.24 407.84 C 262.49 406.97 257.51 403.53 253.64 399.34 C 239.42 384.23 225.19 369.13 210.97 354.03 C 205.93 348.75 203.03 341.37 203.66 334.04 C 204.59 321.16 215.99 309.93 228.90 309.26 C 236.30 308.77 243.67 311.86 248.90 317.04 C 257.03 325.10 265.10 333.21 273.20 341.30 C 297.29 312.39 321.25 283.35 345.30 254.40 C 348.22 250.96 350.83 247.15 354.53 244.47 Z" />
</g>
</svg>
