<svg width="353pt" height="353pt" viewBox="0 0 353 353" version="1.1" xmlns="http://www.w3.org/2000/svg">
<g id="#ffffffff">
<path fill="#ffffff" opacity="1.00" d=" M 62.32 0.00 L 292.01 0.00 C 306.02 0.65 319.69 6.45 329.84 16.14 C 342.07 27.59 349.12 44.25 349.00 60.99 C 349.00 138.00 349.00 215.01 349.00 292.03 C 349.11 308.30 342.46 324.50 330.83 335.90 C 320.64 346.10 306.63 352.26 292.24 353.00 L 62.36 353.00 C 47.61 352.77 33.12 346.63 22.60 336.32 C 10.70 324.90 3.88 308.49 4.00 292.01 C 4.00 215.01 4.00 138.00 4.00 61.00 C 3.88 44.27 10.92 27.61 23.14 16.16 C 33.61 6.17 47.84 0.25 62.32 0.00 M 54.50 24.67 C 38.80 28.56 27.12 43.85 27.04 59.96 C 26.96 137.30 27.01 214.64 27.01 291.99 C 26.93 302.18 31.15 312.33 38.55 319.36 C 45.05 325.67 53.96 329.40 63.04 329.46 C 138.67 329.47 214.31 329.47 289.95 329.46 C 299.70 329.42 309.26 325.08 315.86 317.93 C 322.43 311.02 326.04 301.49 326.00 291.99 C 326.00 214.99 326.00 137.98 326.00 60.98 C 326.05 50.54 321.63 40.12 313.87 33.09 C 307.21 26.88 298.15 23.39 289.04 23.54 C 214.34 23.52 139.65 23.54 64.95 23.53 C 61.44 23.52 57.91 23.80 54.50 24.67 Z" />
<path fill="#ffffff" opacity="1.00" d=" M 150.06 82.64 C 168.33 82.15 187.04 81.72 204.71 87.16 C 217.45 91.02 229.43 98.70 236.60 110.12 C 246.51 125.48 247.85 145.12 243.25 162.51 C 239.80 175.72 231.64 187.80 219.98 195.09 C 200.45 207.69 176.19 209.98 153.52 208.28 C 153.54 229.07 153.53 249.87 153.53 270.66 C 138.19 270.67 122.86 270.67 107.53 270.66 C 107.53 209.29 107.53 147.93 107.53 86.56 C 121.56 84.00 135.83 83.14 150.06 82.64 M 153.56 121.33 C 153.51 137.48 153.51 153.62 153.56 169.76 C 164.62 170.58 176.91 171.06 186.37 164.28 C 198.92 155.82 200.24 134.23 187.44 125.42 C 177.48 118.85 164.82 120.15 153.56 121.33 Z" />
</g>
</svg>
