<svg version="1.2" baseProfile="tiny" id="Слой_1"
	 xmlns="http://www.w3.org/2000/svg" xmlns:xlink="http://www.w3.org/1999/xlink" x="0px" y="0px" viewBox="0 0 775 992"
	 xml:space="preserve">
<g>
	<g>
		<polygon fill="#015532" points="323.8,543.7 323.8,502 352.8,502 381.4,414 306.6,359.6 231.7,414 260.3,502 291.1,502 
			291.1,543.7 		"/>
		<polygon fill="#015532" points="628.5,580.5 628.5,516.8 739.6,401.8 629.6,276.8 513,311.8 480.6,450.9 586.8,513.5 586.8,580.5 
					"/>
		<polygon fill="#F7941E" points="446,40.3 303,192.2 303,222.5 446,104.9 628.1,204.1 628.1,171.4 		"/>
		<polygon fill="#F7941E" points="446,133.1 303,242.4 303,272.7 446,190 628.1,255.7 628.1,223.1 		"/>
		<g>
			<polygon fill="#C59E2D" points="305.5,340 163.6,297.4 97.6,353.4 97.6,381.4 163.6,345 275.1,362 			"/>
		</g>
		<g>
			<polygon fill="#589E44" points="221.4,401 258.6,374 163.6,361 97.6,394 97.6,419.6 164.8,402.8 214.6,406 			"/>
		</g>
		<g>
			<polygon fill="#589E44" points="217.5,421.9 168.7,417.3 97.6,433.3 97.6,461.3 230.3,461.3 			"/>
		</g>
		<g>
			<polygon fill="#0F763C" points="234.2,473.2 97.6,473.2 97.6,501.2 163.6,501.2 243.3,501.2 			"/>
		</g>
		<g>
			<polygon fill="#C59E2D" points="598.1,265.9 446,215.4 303,292.3 303,322.6 446,264.5 529.7,287.9 			"/>
		</g>
		<g>
			<polygon fill="#C59E2D" points="491.5,307.1 492.7,301.8 448,286.3 307.7,339.9 334.7,359.6 447.2,333.8 484.4,336.7 			"/>
		</g>
		<g>
			<polygon fill="#589E44" points="480.6,352.4 352.3,372.3 390.2,399.9 471.9,389.1 			"/>
		</g>
		<g>
			<polygon fill="#589E44" points="458.5,445.2 466.4,412.1 396.5,419.4 385,454.8 457.7,448.8 			"/>
		</g>
		<g>
			<polygon fill="#0F763C" points="473.7,465.3 380.1,469.6 369.9,501.2 536.8,501.2 			"/>
		</g>
	</g>
	<g>
		<g>
			<path fill="#015532" d="M126.6,852.8V925H97v-142h29.6V852.8l49.3-72.2l24.9,12.6l-44,59.2l49.7,61.7l-25.8,13.4L126.6,852.8z"/>
			<path fill="#015532" d="M276.7,810.2l-3,39.1c-1.4,18-4.4,33.3-9.1,45.9c-4.7,12.7-11.7,23.4-20.9,32.2l-26.8-11.4
				c15.8-16.8,24.7-38.5,26.6-65.1l5.1-67.9h96.3v142h-29.6V810.2H276.7z"/>
			<path fill="#015532" d="M402,783.1v86l77.7-88.4l13.2,2.8V925h-29.6v-85.8l-77.7,88.2l-13.2-2.6V783.1H402z"/>
			<path fill="#015532" d="M598.5,783.1h29.6v142h-29.6v-62.7h-46.9V925h-29.6v-142h29.6v52.1h46.9V783.1z"/>
		</g>
		<path fill="#589E44" d="M151.5,645.4h21.1v101.3h-21.1v-44.7h-33.4v44.7H97V645.4h21.1v37.2h33.4V645.4z"/>
		<path fill="#589E44" d="M288.2,733.3c-10.5,10-23.1,15-37.9,15s-27.4-5-38-15c-10.6-10-15.8-22.5-15.8-37.3s5.3-27.3,15.8-37.3
			c10.6-10,23.2-15,38-15s27.4,5,38,15c10.6,10,15.8,22.5,15.8,37.3S298.8,723.3,288.2,733.3z M227,719.6c6.4,6.3,14.1,9.4,23.3,9.4
			c9.2,0,16.9-3.2,23.2-9.5c6.3-6.3,9.5-14.2,9.5-23.5s-3.2-17.2-9.5-23.5c-6.3-6.3-14-9.5-23.2-9.5c-9.2,0-16.9,3.2-23.2,9.5
			c-6.3,6.3-9.5,14.1-9.5,23.5S220.8,713.2,227,719.6z"/>
		<path fill="#589E44" d="M356.3,746.6h-28.1V645.4h26c10.6,0,18.9,2.5,24.9,7.4c6,5,9,11.2,9,18.6c0,4.7-1.2,8.9-3.5,12.6
			c-2.3,3.7-5.5,6.5-9.7,8.5c5.9,1.8,10.4,5,13.6,9.6c3.2,4.5,4.8,9.8,4.8,15.9c0,8.4-3.2,15.3-9.8,20.6
			C377.2,744,368.1,746.6,356.3,746.6z M349.4,663.5v20.7h5.9c4.2,0,7.5-0.9,9.6-2.8c2.2-1.9,3.2-4.4,3.2-7.6c0-3.2-1.1-5.7-3.2-7.5
			c-2.2-1.9-5.4-2.8-9.6-2.8H349.4z M349.4,701.6v26.9h6.5c5.3,0,9.4-1.2,12.2-3.5c2.8-2.4,4.3-5.7,4.3-9.9c0-4.3-1.4-7.7-4.3-10
			c-2.8-2.3-6.9-3.5-12.2-3.5H349.4z"/>
		<path fill="#589E44" d="M433.7,681.2h6.1c11.4,0,20.4,3.1,27,9.3c6.7,6.2,10,14,10,23.4c0,9.4-3.3,17.1-10,23.4
			c-6.7,6.2-15.7,9.3-27,9.3h-27.2V645.4h21.1V681.2z M433.7,700.6v26.6h5.9c5,0,9-1.1,11.9-3.3c2.9-2.2,4.3-5.5,4.3-10
			c0-4.4-1.4-7.8-4.3-10c-2.9-2.2-6.8-3.3-11.9-3.3H433.7z M488.7,645.4h21.1v101.3h-21.1V645.4z"/>
		<path fill="#589E44" d="M563.3,645.4v61.3l55.4-63.1l9.4,2v101H607v-61.2l-55.4,62.9l-9.4-1.9V645.4H563.3z M563.3,612h13.6
			c0,2.6,0.7,4.9,2.2,6.8c1.5,1.9,3.5,2.9,6,2.9c2.5,0,4.5-1,6-2.9c1.5-1.9,2.2-4.2,2.2-6.8H607c0,6.6-2.1,12-6.3,16.4
			c-4.2,4.4-9.4,6.6-15.6,6.6s-11.3-2.2-15.5-6.6C565.4,624,563.3,618.5,563.3,612z"/>
	</g>
</g>
</svg>
