<svg class="select-house__svg" version="1.1" xmlns="http://www.w3.org/2000/svg" xmlns:xlink="http://www.w3.org/1999/xlink" x="0px" y="0px"
	 viewBox="0 0 1920 1080" style="enable-background:new 0 0 1920 1080;" xml:space="preserve">
<a xlink:href="building-1.html">
	<path class="select-house__building-hover select-house__building-gp1" fill="ff0000" d="M222,600l17-18v-4l15-16l3,1l5-4l53,13l2,5l14,4l3-3l46,12l2,4l16,5l3-3h2l46,12l1,3c0,0,17.2,4.5,17,5s3-3,3-3
		l57,15l24,70l-7,10l4,2v1l-6,9h-5l-18,24l-3-1l-2,3l-18-4l-5,4c0,0-19.8-5.5-20-6s2-3,2-3l-4-2v-2l-8-4l-7,6l-2-1l-2-4l-9-1l-2,1
		l-4-1l-1-3l-4-1v-4c0,0-5.7-0.8-6-1s-5,5-5,5l-3-1l-3-2v-3l-8-1l-3,2h-1l-2-4c0,0-4.8-2.7-5-2s-3,3-3,3l-2-1l-2-1l-2-3l-7-2l-2,3
		l-3-2v-2l-7-2v-3h-3c0,0,0.6,2.8,0,3s-3-1-3-1l-2-1l-3-1l-4-2l-5,2v-2l-1-1l-5-2l-1-1l-1-2l1-1l3-4l-9-2l-8,9c0,0-3.4-1.4-3-2
		c0.2-0.6,0.2-1.4,0-2l-10-2l-3,2l-1-1c-0.4-1-0.7-2-1-3l-4-2l-1-2l3-5l3-3l-5-2l-3,2h-4l-6,8l-2-1l-3-2l-7-2l-2,3l-2-1l-2-3l-4-2v-3
		l-7-1l-4-3l1-1l1-2l1-1L222,600z"/>
</a>
<a xlink:href="building-2.html">
	<path class="select-house__building-hover select-house__building-gp2" fill="ffffff" d="M594,622l37-45l45,11l3-4l27,8l1,6l51,16l4,24l32,11l4-7l28,9v6l52,16l2,23l12,4l4-4l20,6l1,7l69,20l-2,66l-1,6
		l-5,13l4,2v2l-5,12l-6-1l-1,1h-2l-7,18l-1,1l-27-8l-2,1l-8-3l-3,6l-4-1l-16-6v4h-3l-1-6h-3l-1-3l4-6l-30-9l-5,7l-15-4l-1,2h-2l-2-1
		l-1-3l-3-2l-1-2l4-6l-48-15l-3,8l-3-2l-14-4l-1,2l-3-1v-3l-2-1l-1-1l3-7l-44-13l-7,8l-2-4l-13-3l-2,3l-1-1l-1-4l-2-1l-1-1v-1l3-6
		l-24-7l-5,10l-1-1l-3-4l-12-4l-3,3l-2-4l-1-1l-1-1v-7l-19-5l-1-7l-1-3L594,622z"/>
</a>
<a xlink:href="building-3.html">
	<path class="select-house__building-hover select-house__building-gp3" fill="ffffff" d="M742,439l29-39l40,10l4-5l24,6v7l47,11v24l30,8l3-5l24,6v5l50,13v24c0,0,6.5,2.3,7,2s3-5,3-5l19,4v7l61,15
		l-4,37v19l-2,4v12l-9,22l-2-1l-8,20l-23-6v-3l-10-3l-5,7l-2-4l-11-4l-2,4l-3-1l-1-4h-2l-1-3l3-2l-21-5l-5,7l-3-1v-4l-11-3l-3,3l-2-1
		l1-3l-3-2v-2l3-5l-4-1l-2,3l-20-5l-2,3l-25-7l-3,4l-2-1l-1-2l-1-2l-9-3l-3,3h-2v-5l-3-1v-2l3-4l-33-10l-2,2h-4l-5,7l-1-1l-1-3l-10-4
		l-3,4l-2-1v-4l-3-1l-1-2l1-2l-9-2l-2,1c0,0-9.6-1.9-10-2s-5,6-5,6l-2-1l-1-3l-8-3l-2,3l-2-1l-1-3l-4-1v-4l-15-4l1-6l-1-1L742,439z"
		/>
</a>
</svg>
