<?xml version="1.0" encoding="utf-8"?>
<!-- Generator: Adobe Illustrator 19.2.1, SVG Export Plug-In . SVG Version: 6.00 Build 0)  -->
<svg version="1.1" id="Layer_1" xmlns="http://www.w3.org/2000/svg" xmlns:xlink="http://www.w3.org/1999/xlink" x="0px" y="0px"
	 viewBox="0 0 30 22" style="enable-background:new 0 0 30 22;" xml:space="preserve">
<style type="text/css">
	.st0{fill:#95A5A6;}
</style>
<path class="st0" d="M27.9,8.8H7.3l4.9-5.1c0.4-0.4,0.6-1,0.6-1.5C12.9,1.1,12,0,10.7,0c-0.6,0-1.1,0.2-1.5,0.6L0.7,9.4
	C0.4,9.8,0,10.2,0,11s0.3,1.2,0.7,1.6l8.5,8.8c0.4,0.4,0.9,0.6,1.5,0.6c1.3,0,2.1-1.1,2.1-2.2c0-0.6-0.2-1.1-0.6-1.5l-4.9-5.1h20.6
	c1.2,0,2.1-1,2.1-2.2S29,8.8,27.9,8.8z"/>
</svg>
