<?xml version="1.0" encoding="utf-8"?>
<!-- Generator: Adobe Illustrator 19.2.1, SVG Export Plug-In . SVG Version: 6.00 Build 0)  -->
<svg version="1.1" id="Layer_1" xmlns="http://www.w3.org/2000/svg" xmlns:xlink="http://www.w3.org/1999/xlink" x="0px" y="0px"
	 viewBox="0 0 82 80" style="enable-background:new 0 0 82 80;" xml:space="preserve">
<style type="text/css">
	.st0{fill-rule:evenodd;clip-rule:evenodd;fill:none;}
</style>
<path class="st0" d="M20,11H9v2h11V11z M9,25h11v-2H9V25z M9,36h11v-2H9V36z M36,11H25v2h11V11z M25,25h11v-2H25V25z M25,36h11v-2
	H25V36z M25,49h11v-2H25V49z M59,38H49v2h10V38z M49,52h10v-2H49V52z M65,52h10v-2H65V52z M75,38H65v2h10V38z M25,60h11v-2H25V60z
	 M81.9,78L82,26H43v2h37l0,50H70V60H54v18H43l0-78H2l0,40h2L4,2h37l0,76H11v-8.3c3.6-1,8.6-4,9-10.6c0.5-7.5-8.9-18.8-9.3-19.2
	L10,39l-0.7,0.9C8.9,40.4-0.5,51.6,0,59.1c0.4,6.6,5.4,9.7,9,10.6V78H1v2h8v0h2v0h30v0h2v0h11v0h2v0h12v0h2v0h12L81.9,78L81.9,78z
	 M9,57v10.6c-2.4-0.8-6.7-2.9-7-8.6c-0.4-5.5,5.9-14,8-16.8c2.2,2.8,8.4,11.3,8,16.8c-0.4,5.7-4.7,7.8-7,8.6V57H9z M68,78H56V62h12
	V78z"/>
</svg>
