<?xml version="1.0" encoding="utf-8"?>
<!-- Generator: Adobe Illustrator 19.2.1, SVG Export Plug-In . SVG Version: 6.00 Build 0)  -->
<svg version="1.1" id="Layer_1" xmlns="http://www.w3.org/2000/svg" xmlns:xlink="http://www.w3.org/1999/xlink" x="0px" y="0px"
	 viewBox="0 0 80 79" style="enable-background:new 0 0 80 79;" xml:space="preserve">
<style type="text/css">
	.st0{fill:none;}
</style>
<path class="st0" d="M33.1,9.3C32.7,9,32,9.1,31.7,9.6l-5.2,8c-0.1,0.2-0.2,0.4-0.3,0.5c-0.4,1.2,0.3,2.5,1.5,2.9
	c1.2,0.4,2.5-0.3,2.9-1.5l3-9.1C33.6,10,33.5,9.5,33.1,9.3z M33.1,9.3C32.7,9,32,9.1,31.7,9.6l-5.2,8c-0.1,0.2-0.2,0.4-0.3,0.5
	c-0.4,1.2,0.3,2.5,1.5,2.9c1.2,0.4,2.5-0.3,2.9-1.5l3-9.1C33.6,10,33.5,9.5,33.1,9.3z M33.1,9.3C32.7,9,32,9.1,31.7,9.6l-5.2,8
	c-0.1,0.2-0.2,0.4-0.3,0.5c-0.4,1.2,0.3,2.5,1.5,2.9c1.2,0.4,2.5-0.3,2.9-1.5l3-9.1C33.6,10,33.5,9.5,33.1,9.3z M33.1,9.3
	C32.7,9,32,9.1,31.7,9.6l-5.2,8c-0.1,0.2-0.2,0.4-0.3,0.5c-0.4,1.2,0.3,2.5,1.5,2.9c1.2,0.4,2.5-0.3,2.9-1.5l3-9.1
	C33.6,10,33.5,9.5,33.1,9.3z M28.5,4C20.5,4,14,10.5,14,18.5c0,3.7,1.4,7.3,3.9,10l0.3,0.5h20.6l0.3-0.5c2.5-2.7,3.9-6.3,3.9-9.9
	C43,10.6,36.5,4,28.5,4z M37.9,27H19.1c-2-3-3.1-5.3-3.1-8.3C16,11.8,21.6,6,28.5,6C35.4,6,41,11.8,41,18.7C41,21.7,39.9,24,37.9,27
	z M33.1,9.3C32.7,9,32,9.1,31.7,9.6l-5.2,8c-0.1,0.2-0.2,0.4-0.3,0.5c-0.4,1.2,0.3,2.5,1.5,2.9c1.2,0.4,2.5-0.3,2.9-1.5l3-9.1
	C33.6,10,33.5,9.5,33.1,9.3z M33.1,9.3C32.7,9,32,9.1,31.7,9.6l-5.2,8c-0.1,0.2-0.2,0.4-0.3,0.5c-0.4,1.2,0.3,2.5,1.5,2.9
	c1.2,0.4,2.5-0.3,2.9-1.5l3-9.1C33.6,10,33.5,9.5,33.1,9.3z M33.1,9.3C32.7,9,32,9.1,31.7,9.6l-5.2,8c-0.1,0.2-0.2,0.4-0.3,0.5
	c-0.4,1.2,0.3,2.5,1.5,2.9c1.2,0.4,2.5-0.3,2.9-1.5l3-9.1C33.6,10,33.5,9.5,33.1,9.3z M33.1,9.3C32.7,9,32,9.1,31.7,9.6l-5.2,8
	c-0.1,0.2-0.2,0.4-0.3,0.5c-0.4,1.2,0.3,2.5,1.5,2.9c1.2,0.4,2.5-0.3,2.9-1.5l3-9.1C33.6,10,33.5,9.5,33.1,9.3z M33.1,9.3
	C32.7,9,32,9.1,31.7,9.6l-5.2,8c-0.1,0.2-0.2,0.4-0.3,0.5c-0.4,1.2,0.3,2.5,1.5,2.9c1.2,0.4,2.5-0.3,2.9-1.5l3-9.1
	C33.6,10,33.5,9.5,33.1,9.3z M28.5,4C20.5,4,14,10.5,14,18.5c0,3.7,1.4,7.3,3.9,10l0.3,0.5h20.6l0.3-0.5c2.5-2.7,3.9-6.3,3.9-9.9
	C43,10.6,36.5,4,28.5,4z M37.9,27H19.1c-2-3-3.1-5.3-3.1-8.3C16,11.8,21.6,6,28.5,6C35.4,6,41,11.8,41,18.7C41,21.7,39.9,24,37.9,27
	z M33.1,9.3C32.7,9,32,9.1,31.7,9.6l-5.2,8c-0.1,0.2-0.2,0.4-0.3,0.5c-0.4,1.2,0.3,2.5,1.5,2.9c1.2,0.4,2.5-0.3,2.9-1.5l3-9.1
	C33.6,10,33.5,9.5,33.1,9.3z M33.1,9.3C32.7,9,32,9.1,31.7,9.6l-5.2,8c-0.1,0.2-0.2,0.4-0.3,0.5c-0.4,1.2,0.3,2.5,1.5,2.9
	c1.2,0.4,2.5-0.3,2.9-1.5l3-9.1C33.6,10,33.5,9.5,33.1,9.3z M33.1,9.3C32.7,9,32,9.1,31.7,9.6l-5.2,8c-0.1,0.2-0.2,0.4-0.3,0.5
	c-0.4,1.2,0.3,2.5,1.5,2.9c1.2,0.4,2.5-0.3,2.9-1.5l3-9.1C33.6,10,33.5,9.5,33.1,9.3z M33.1,9.3C32.7,9,32,9.1,31.7,9.6l-5.2,8
	c-0.1,0.2-0.2,0.4-0.3,0.5c-0.4,1.2,0.3,2.5,1.5,2.9c1.2,0.4,2.5-0.3,2.9-1.5l3-9.1C33.6,10,33.5,9.5,33.1,9.3z M33.1,9.3
	C32.7,9,32,9.1,31.7,9.6l-5.2,8c-0.1,0.2-0.2,0.4-0.3,0.5c-0.4,1.2,0.3,2.5,1.5,2.9c1.2,0.4,2.5-0.3,2.9-1.5l3-9.1
	C33.6,10,33.5,9.5,33.1,9.3z M28.5,4C20.5,4,14,10.5,14,18.5c0,3.7,1.4,7.3,3.9,10l0.3,0.5h20.6l0.3-0.5c2.5-2.7,3.9-6.3,3.9-9.9
	C43,10.6,36.5,4,28.5,4z M37.9,27H19.1c-2-3-3.1-5.3-3.1-8.3C16,11.8,21.6,6,28.5,6C35.4,6,41,11.8,41,18.7C41,21.7,39.9,24,37.9,27
	z M33.1,9.3C32.7,9,32,9.1,31.7,9.6l-5.2,8c-0.1,0.2-0.2,0.4-0.3,0.5c-0.4,1.2,0.3,2.5,1.5,2.9c1.2,0.4,2.5-0.3,2.9-1.5l3-9.1
	C33.6,10,33.5,9.5,33.1,9.3z M28.5,4C20.5,4,14,10.5,14,18.5c0,3.7,1.4,7.3,3.9,10l0.3,0.5h20.6l0.3-0.5c2.5-2.7,3.9-6.3,3.9-9.9
	C43,10.6,36.5,4,28.5,4z M37.9,27H19.1c-2-3-3.1-5.3-3.1-8.3C16,11.8,21.6,6,28.5,6C35.4,6,41,11.8,41,18.7C41,21.7,39.9,24,37.9,27
	z M33.1,9.3C32.7,9,32,9.1,31.7,9.6l-5.2,8c-0.1,0.2-0.2,0.4-0.3,0.5c-0.4,1.2,0.3,2.5,1.5,2.9c1.2,0.4,2.5-0.3,2.9-1.5l3-9.1
	C33.6,10,33.5,9.5,33.1,9.3z M80,15v-2H52v-3h-7.1C41.8,4.1,35.6,0,28.5,0c-7.1,0-13.3,4.1-16.4,10H5v3H0v2h5v7H0v2h5v3h7.1
	c3.1,5.9,9.3,10,16.4,10c7.1,0,13.3-4.1,16.4-10H52v-3h28v-2H52v-7H80z M7,15h3.3c-0.2,1.1-0.3,2.3-0.3,3.5c0,1.2,0.1,2.4,0.3,3.5H7
	V15z M7,25v-1h3.8c0.1,0.3,0.2,0.7,0.4,1H7z M10.8,13H7v-1h4.2C11.1,12.3,10.9,12.7,10.8,13z M28.5,35C19.4,35,12,27.6,12,18.5
	C12,9.4,19.4,2,28.5,2S45,9.4,45,18.5C45,27.6,37.6,35,28.5,35z M50,25h-4.2c0.1-0.3,0.3-0.7,0.4-1H50V25z M50,22h-3.3
	c0.2-1.1,0.3-2.3,0.3-3.5c0-1.2-0.1-2.4-0.3-3.5H50V22z M50,13h-3.8c-0.1-0.3-0.2-0.7-0.4-1H50V13z M28.5,4C20.5,4,14,10.5,14,18.5
	c0,3.7,1.4,7.3,3.9,10l0.3,0.5h20.6l0.3-0.5c2.5-2.7,3.9-6.3,3.9-9.9C43,10.6,36.5,4,28.5,4z M37.9,27H19.1c-2-3-3.1-5.3-3.1-8.3
	C16,11.8,21.6,6,28.5,6C35.4,6,41,11.8,41,18.7C41,21.7,39.9,24,37.9,27z M33.1,9.3C32.7,9,32,9.1,31.7,9.6l-5.2,8
	c-0.1,0.2-0.2,0.4-0.3,0.5c-0.4,1.2,0.3,2.5,1.5,2.9c1.2,0.4,2.5-0.3,2.9-1.5l3-9.1C33.6,10,33.5,9.5,33.1,9.3z M33.1,9.3
	C32.7,9,32,9.1,31.7,9.6l-5.2,8c-0.1,0.2-0.2,0.4-0.3,0.5c-0.4,1.2,0.3,2.5,1.5,2.9c1.2,0.4,2.5-0.3,2.9-1.5l3-9.1
	C33.6,10,33.5,9.5,33.1,9.3z M33.1,9.3C32.7,9,32,9.1,31.7,9.6l-5.2,8c-0.1,0.2-0.2,0.4-0.3,0.5c-0.4,1.2,0.3,2.5,1.5,2.9
	c1.2,0.4,2.5-0.3,2.9-1.5l3-9.1C33.6,10,33.5,9.5,33.1,9.3z M28.5,4C20.5,4,14,10.5,14,18.5c0,3.7,1.4,7.3,3.9,10l0.3,0.5h20.6
	l0.3-0.5c2.5-2.7,3.9-6.3,3.9-9.9C43,10.6,36.5,4,28.5,4z M37.9,27H19.1c-2-3-3.1-5.3-3.1-8.3C16,11.8,21.6,6,28.5,6
	C35.4,6,41,11.8,41,18.7C41,21.7,39.9,24,37.9,27z M33.1,9.3C32.7,9,32,9.1,31.7,9.6l-5.2,8c-0.1,0.2-0.2,0.4-0.3,0.5
	c-0.4,1.2,0.3,2.5,1.5,2.9c1.2,0.4,2.5-0.3,2.9-1.5l3-9.1C33.6,10,33.5,9.5,33.1,9.3z M33.1,9.3C32.7,9,32,9.1,31.7,9.6l-5.2,8
	c-0.1,0.2-0.2,0.4-0.3,0.5c-0.4,1.2,0.3,2.5,1.5,2.9c1.2,0.4,2.5-0.3,2.9-1.5l3-9.1C33.6,10,33.5,9.5,33.1,9.3z M33.1,9.3
	C32.7,9,32,9.1,31.7,9.6l-5.2,8c-0.1,0.2-0.2,0.4-0.3,0.5c-0.4,1.2,0.3,2.5,1.5,2.9c1.2,0.4,2.5-0.3,2.9-1.5l3-9.1
	C33.6,10,33.5,9.5,33.1,9.3z M28.5,4C20.5,4,14,10.5,14,18.5c0,3.7,1.4,7.3,3.9,10l0.3,0.5h20.6l0.3-0.5c2.5-2.7,3.9-6.3,3.9-9.9
	C43,10.6,36.5,4,28.5,4z M37.9,27H19.1c-2-3-3.1-5.3-3.1-8.3C16,11.8,21.6,6,28.5,6C35.4,6,41,11.8,41,18.7C41,21.7,39.9,24,37.9,27
	z M33.1,9.3C32.7,9,32,9.1,31.7,9.6l-5.2,8c-0.1,0.2-0.2,0.4-0.3,0.5c-0.4,1.2,0.3,2.5,1.5,2.9c1.2,0.4,2.5-0.3,2.9-1.5l3-9.1
	C33.6,10,33.5,9.5,33.1,9.3z M33.1,9.3C32.7,9,32,9.1,31.7,9.6l-5.2,8c-0.1,0.2-0.2,0.4-0.3,0.5c-0.4,1.2,0.3,2.5,1.5,2.9
	c1.2,0.4,2.5-0.3,2.9-1.5l3-9.1C33.6,10,33.5,9.5,33.1,9.3z M33.1,9.3C32.7,9,32,9.1,31.7,9.6l-5.2,8c-0.1,0.2-0.2,0.4-0.3,0.5
	c-0.4,1.2,0.3,2.5,1.5,2.9c1.2,0.4,2.5-0.3,2.9-1.5l3-9.1C33.6,10,33.5,9.5,33.1,9.3z M33.1,9.3C32.7,9,32,9.1,31.7,9.6l-5.2,8
	c-0.1,0.2-0.2,0.4-0.3,0.5c-0.4,1.2,0.3,2.5,1.5,2.9c1.2,0.4,2.5-0.3,2.9-1.5l3-9.1C33.6,10,33.5,9.5,33.1,9.3z M33.1,9.3
	C32.7,9,32,9.1,31.7,9.6l-5.2,8c-0.1,0.2-0.2,0.4-0.3,0.5c-0.4,1.2,0.3,2.5,1.5,2.9c1.2,0.4,2.5-0.3,2.9-1.5l3-9.1
	C33.6,10,33.5,9.5,33.1,9.3z M33.1,9.3C32.7,9,32,9.1,31.7,9.6l-5.2,8c-0.1,0.2-0.2,0.4-0.3,0.5c-0.4,1.2,0.3,2.5,1.5,2.9
	c1.2,0.4,2.5-0.3,2.9-1.5l3-9.1C33.6,10,33.5,9.5,33.1,9.3z M33.1,9.3C32.7,9,32,9.1,31.7,9.6l-5.2,8c-0.1,0.2-0.2,0.4-0.3,0.5
	c-0.4,1.2,0.3,2.5,1.5,2.9c1.2,0.4,2.5-0.3,2.9-1.5l3-9.1C33.6,10,33.5,9.5,33.1,9.3z M28.5,4C20.5,4,14,10.5,14,18.5
	c0,3.7,1.4,7.3,3.9,10l0.3,0.5h20.6l0.3-0.5c2.5-2.7,3.9-6.3,3.9-9.9C43,10.6,36.5,4,28.5,4z M37.9,27H19.1c-2-3-3.1-5.3-3.1-8.3
	C16,11.8,21.6,6,28.5,6C35.4,6,41,11.8,41,18.7C41,21.7,39.9,24,37.9,27z M33.1,9.3C32.7,9,32,9.1,31.7,9.6l-5.2,8
	c-0.1,0.2-0.2,0.4-0.3,0.5c-0.4,1.2,0.3,2.5,1.5,2.9c1.2,0.4,2.5-0.3,2.9-1.5l3-9.1C33.6,10,33.5,9.5,33.1,9.3z M33.1,9.3
	C32.7,9,32,9.1,31.7,9.6l-5.2,8c-0.1,0.2-0.2,0.4-0.3,0.5c-0.4,1.2,0.3,2.5,1.5,2.9c1.2,0.4,2.5-0.3,2.9-1.5l3-9.1
	C33.6,10,33.5,9.5,33.1,9.3z M33.1,9.3C32.7,9,32,9.1,31.7,9.6l-5.2,8c-0.1,0.2-0.2,0.4-0.3,0.5c-0.4,1.2,0.3,2.5,1.5,2.9
	c1.2,0.4,2.5-0.3,2.9-1.5l3-9.1C33.6,10,33.5,9.5,33.1,9.3z M33.1,9.3C32.7,9,32,9.1,31.7,9.6l-5.2,8c-0.1,0.2-0.2,0.4-0.3,0.5
	c-0.4,1.2,0.3,2.5,1.5,2.9c1.2,0.4,2.5-0.3,2.9-1.5l3-9.1C33.6,10,33.5,9.5,33.1,9.3z M33.1,9.3C32.7,9,32,9.1,31.7,9.6l-5.2,8
	c-0.1,0.2-0.2,0.4-0.3,0.5c-0.4,1.2,0.3,2.5,1.5,2.9c1.2,0.4,2.5-0.3,2.9-1.5l3-9.1C33.6,10,33.5,9.5,33.1,9.3z M33.1,9.3
	C32.7,9,32,9.1,31.7,9.6l-5.2,8c-0.1,0.2-0.2,0.4-0.3,0.5c-0.4,1.2,0.3,2.5,1.5,2.9c1.2,0.4,2.5-0.3,2.9-1.5l3-9.1
	C33.6,10,33.5,9.5,33.1,9.3z M33.1,9.3C32.7,9,32,9.1,31.7,9.6l-5.2,8c-0.1,0.2-0.2,0.4-0.3,0.5c-0.4,1.2,0.3,2.5,1.5,2.9
	c1.2,0.4,2.5-0.3,2.9-1.5l3-9.1C33.6,10,33.5,9.5,33.1,9.3z M28.5,4C20.5,4,14,10.5,14,18.5c0,3.7,1.4,7.3,3.9,10l0.3,0.5h20.6
	l0.3-0.5c2.5-2.7,3.9-6.3,3.9-9.9C43,10.6,36.5,4,28.5,4z M37.9,27H19.1c-2-3-3.1-5.3-3.1-8.3C16,11.8,21.6,6,28.5,6
	C35.4,6,41,11.8,41,18.7C41,21.7,39.9,24,37.9,27z M33.1,9.3C32.7,9,32,9.1,31.7,9.6l-5.2,8c-0.1,0.2-0.2,0.4-0.3,0.5
	c-0.4,1.2,0.3,2.5,1.5,2.9c1.2,0.4,2.5-0.3,2.9-1.5l3-9.1C33.6,10,33.5,9.5,33.1,9.3z M33.1,9.3C32.7,9,32,9.1,31.7,9.6l-5.2,8
	c-0.1,0.2-0.2,0.4-0.3,0.5c-0.4,1.2,0.3,2.5,1.5,2.9c1.2,0.4,2.5-0.3,2.9-1.5l3-9.1C33.6,10,33.5,9.5,33.1,9.3z M33.1,9.3
	C32.7,9,32,9.1,31.7,9.6l-5.2,8c-0.1,0.2-0.2,0.4-0.3,0.5c-0.4,1.2,0.3,2.5,1.5,2.9c1.2,0.4,2.5-0.3,2.9-1.5l3-9.1
	C33.6,10,33.5,9.5,33.1,9.3z M33.1,9.3C32.7,9,32,9.1,31.7,9.6l-5.2,8c-0.1,0.2-0.2,0.4-0.3,0.5c-0.4,1.2,0.3,2.5,1.5,2.9
	c1.2,0.4,2.5-0.3,2.9-1.5l3-9.1C33.6,10,33.5,9.5,33.1,9.3z M33.1,9.3C32.7,9,32,9.1,31.7,9.6l-5.2,8c-0.1,0.2-0.2,0.4-0.3,0.5
	c-0.4,1.2,0.3,2.5,1.5,2.9c1.2,0.4,2.5-0.3,2.9-1.5l3-9.1C33.6,10,33.5,9.5,33.1,9.3z M53.4,58.3l-7-6.5c-0.3-0.3-0.8-0.4-1.2-0.1
	c-0.5,0.3-0.6,0.9-0.3,1.4l5.1,8.1c0.1,0.2,0.2,0.3,0.4,0.5c0.9,0.9,2.4,0.8,3.2-0.1C54.4,60.6,54.3,59.2,53.4,58.3z M53.4,58.3
	l-7-6.5c-0.3-0.3-0.8-0.4-1.2-0.1c-0.5,0.3-0.6,0.9-0.3,1.4l5.1,8.1c0.1,0.2,0.2,0.3,0.4,0.5c0.9,0.9,2.4,0.8,3.2-0.1
	C54.4,60.6,54.3,59.2,53.4,58.3z M53.4,58.3l-7-6.5c-0.3-0.3-0.8-0.4-1.2-0.1c-0.5,0.3-0.6,0.9-0.3,1.4l5.1,8.1
	c0.1,0.2,0.2,0.3,0.4,0.5c0.9,0.9,2.4,0.8,3.2-0.1C54.4,60.6,54.3,59.2,53.4,58.3z M53.4,58.3l-7-6.5c-0.3-0.3-0.8-0.4-1.2-0.1
	c-0.5,0.3-0.6,0.9-0.3,1.4l5.1,8.1c0.1,0.2,0.2,0.3,0.4,0.5c0.9,0.9,2.4,0.8,3.2-0.1C54.4,60.6,54.3,59.2,53.4,58.3z M51.5,46
	c-8,0-14.5,6.5-14.5,14.5c0,3.7,1.4,7.3,3.9,10l0.3,0.5h20.6l0.3-0.5c2.5-2.7,3.9-6.3,3.9-10C66,52.6,59.5,46,51.5,46z M60.9,69
	H42.1c-2-3-3.1-5.3-3.1-8.3c0-6.9,5.6-12.6,12.5-12.6c6.9,0,12.5,5.7,12.5,12.6C64,63.7,62.9,66,60.9,69z M46.4,51.8
	c-0.3-0.3-0.8-0.4-1.2-0.1c-0.5,0.3-0.6,0.9-0.3,1.4l5.1,8.1c0.1,0.2,0.2,0.3,0.4,0.5c0.9,0.9,2.4,0.8,3.2-0.1
	c0.9-0.9,0.8-2.4-0.1-3.2L46.4,51.8z M53.4,58.3l-7-6.5c-0.3-0.3-0.8-0.4-1.2-0.1c-0.5,0.3-0.6,0.9-0.3,1.4l5.1,8.1
	c0.1,0.2,0.2,0.3,0.4,0.5c0.9,0.9,2.4,0.8,3.2-0.1C54.4,60.6,54.3,59.2,53.4,58.3z M53.4,58.3l-7-6.5c-0.3-0.3-0.8-0.4-1.2-0.1
	c-0.5,0.3-0.6,0.9-0.3,1.4l5.1,8.1c0.1,0.2,0.2,0.3,0.4,0.5c0.9,0.9,2.4,0.8,3.2-0.1C54.4,60.6,54.3,59.2,53.4,58.3z M53.4,58.3
	l-7-6.5c-0.3-0.3-0.8-0.4-1.2-0.1c-0.5,0.3-0.6,0.9-0.3,1.4l5.1,8.1c0.1,0.2,0.2,0.3,0.4,0.5c0.9,0.9,2.4,0.8,3.2-0.1
	C54.4,60.6,54.3,59.2,53.4,58.3z M53.4,58.3l-7-6.5c-0.3-0.3-0.8-0.4-1.2-0.1c-0.5,0.3-0.6,0.9-0.3,1.4l5.1,8.1
	c0.1,0.2,0.2,0.3,0.4,0.5c0.9,0.9,2.4,0.8,3.2-0.1C54.4,60.6,54.3,59.2,53.4,58.3z M51.5,46c-8,0-14.5,6.5-14.5,14.5
	c0,3.7,1.4,7.3,3.9,10l0.3,0.5h20.6l0.3-0.5c2.5-2.7,3.9-6.3,3.9-10C66,52.6,59.5,46,51.5,46z M60.9,69H42.1c-2-3-3.1-5.3-3.1-8.3
	c0-6.9,5.6-12.6,12.5-12.6c6.9,0,12.5,5.7,12.5,12.6C64,63.7,62.9,66,60.9,69z M46.4,51.8c-0.3-0.3-0.8-0.4-1.2-0.1
	c-0.5,0.3-0.6,0.9-0.3,1.4l5.1,8.1c0.1,0.2,0.2,0.3,0.4,0.5c0.9,0.9,2.4,0.8,3.2-0.1c0.9-0.9,0.8-2.4-0.1-3.2L46.4,51.8z M53.4,58.3
	l-7-6.5c-0.3-0.3-0.8-0.4-1.2-0.1c-0.5,0.3-0.6,0.9-0.3,1.4l5.1,8.1c0.1,0.2,0.2,0.3,0.4,0.5c0.9,0.9,2.4,0.8,3.2-0.1
	C54.4,60.6,54.3,59.2,53.4,58.3z M53.4,58.3l-7-6.5c-0.3-0.3-0.8-0.4-1.2-0.1c-0.5,0.3-0.6,0.9-0.3,1.4l5.1,8.1
	c0.1,0.2,0.2,0.3,0.4,0.5c0.9,0.9,2.4,0.8,3.2-0.1C54.4,60.6,54.3,59.2,53.4,58.3z M53.4,58.3l-7-6.5c-0.3-0.3-0.8-0.4-1.2-0.1
	c-0.5,0.3-0.6,0.9-0.3,1.4l5.1,8.1c0.1,0.2,0.2,0.3,0.4,0.5c0.9,0.9,2.4,0.8,3.2-0.1C54.4,60.6,54.3,59.2,53.4,58.3z M53.4,58.3
	l-7-6.5c-0.3-0.3-0.8-0.4-1.2-0.1c-0.5,0.3-0.6,0.9-0.3,1.4l5.1,8.1c0.1,0.2,0.2,0.3,0.4,0.5c0.9,0.9,2.4,0.8,3.2-0.1
	C54.4,60.6,54.3,59.2,53.4,58.3z M51.5,46c-8,0-14.5,6.5-14.5,14.5c0,3.7,1.4,7.3,3.9,10l0.3,0.5h20.6l0.3-0.5
	c2.5-2.7,3.9-6.3,3.9-10C66,52.6,59.5,46,51.5,46z M60.9,69H42.1c-2-3-3.1-5.3-3.1-8.3c0-6.9,5.6-12.6,12.5-12.6
	c6.9,0,12.5,5.7,12.5,12.6C64,63.7,62.9,66,60.9,69z M46.4,51.8c-0.3-0.3-0.8-0.4-1.2-0.1c-0.5,0.3-0.6,0.9-0.3,1.4l5.1,8.1
	c0.1,0.2,0.2,0.3,0.4,0.5c0.9,0.9,2.4,0.8,3.2-0.1c0.9-0.9,0.8-2.4-0.1-3.2L46.4,51.8z M51.5,46c-8,0-14.5,6.5-14.5,14.5
	c0,3.7,1.4,7.3,3.9,10l0.3,0.5h20.6l0.3-0.5c2.5-2.7,3.9-6.3,3.9-10C66,52.6,59.5,46,51.5,46z M60.9,69H42.1c-2-3-3.1-5.3-3.1-8.3
	c0-6.9,5.6-12.6,12.5-12.6c6.9,0,12.5,5.7,12.5,12.6C64,63.7,62.9,66,60.9,69z M46.4,51.8c-0.3-0.3-0.8-0.4-1.2-0.1
	c-0.5,0.3-0.6,0.9-0.3,1.4l5.1,8.1c0.1,0.2,0.2,0.3,0.4,0.5c0.9,0.9,2.4,0.8,3.2-0.1c0.9-0.9,0.8-2.4-0.1-3.2L46.4,51.8z M80,57v-2
	h-5v-3h-7.1c-3.1-5.9-9.3-10-16.4-10c-7.1,0-13.3,4.1-16.4,10H28v3H0v2h28v7H0v2h28v3h7.1c3.1,5.9,9.3,10,16.4,10
	c7.1,0,13.3-4.1,16.4-10H75v-3h5v-2h-5v-7H80z M30,57h3.3c-0.2,1.1-0.3,2.3-0.3,3.5c0,1.2,0.1,2.4,0.3,3.5H30V57z M30,67v-1h3.8
	c0.1,0.3,0.2,0.7,0.4,1H30z M33.8,55H30v-1h4.2C34.1,54.3,33.9,54.7,33.8,55z M51.5,77C42.4,77,35,69.6,35,60.5S42.4,44,51.5,44
	S68,51.4,68,60.5S60.6,77,51.5,77z M73,67h-4.2c0.1-0.3,0.3-0.7,0.4-1H73V67z M73,64h-3.3c0.2-1.1,0.3-2.3,0.3-3.5
	c0-1.2-0.1-2.4-0.3-3.5H73V64z M73,55h-3.8c-0.1-0.3-0.3-0.7-0.4-1H73V55z M51.5,46c-8,0-14.5,6.5-14.5,14.5c0,3.7,1.4,7.3,3.9,10
	l0.3,0.5h20.6l0.3-0.5c2.5-2.7,3.9-6.3,3.9-10C66,52.6,59.5,46,51.5,46z M60.9,69H42.1c-2-3-3.1-5.3-3.1-8.3
	c0-6.9,5.6-12.6,12.5-12.6c6.9,0,12.5,5.7,12.5,12.6C64,63.7,62.9,66,60.9,69z M46.4,51.8c-0.3-0.3-0.8-0.4-1.2-0.1
	c-0.5,0.3-0.6,0.9-0.3,1.4l5.1,8.1c0.1,0.2,0.2,0.3,0.4,0.5c0.9,0.9,2.4,0.8,3.2-0.1c0.9-0.9,0.8-2.4-0.1-3.2L46.4,51.8z M53.4,58.3
	l-7-6.5c-0.3-0.3-0.8-0.4-1.2-0.1c-0.5,0.3-0.6,0.9-0.3,1.4l5.1,8.1c0.1,0.2,0.2,0.3,0.4,0.5c0.9,0.9,2.4,0.8,3.2-0.1
	C54.4,60.6,54.3,59.2,53.4,58.3z M53.4,58.3l-7-6.5c-0.3-0.3-0.8-0.4-1.2-0.1c-0.5,0.3-0.6,0.9-0.3,1.4l5.1,8.1
	c0.1,0.2,0.2,0.3,0.4,0.5c0.9,0.9,2.4,0.8,3.2-0.1C54.4,60.6,54.3,59.2,53.4,58.3z M51.5,46c-8,0-14.5,6.5-14.5,14.5
	c0,3.7,1.4,7.3,3.9,10l0.3,0.5h20.6l0.3-0.5c2.5-2.7,3.9-6.3,3.9-10C66,52.6,59.5,46,51.5,46z M60.9,69H42.1c-2-3-3.1-5.3-3.1-8.3
	c0-6.9,5.6-12.6,12.5-12.6c6.9,0,12.5,5.7,12.5,12.6C64,63.7,62.9,66,60.9,69z M46.4,51.8c-0.3-0.3-0.8-0.4-1.2-0.1
	c-0.5,0.3-0.6,0.9-0.3,1.4l5.1,8.1c0.1,0.2,0.2,0.3,0.4,0.5c0.9,0.9,2.4,0.8,3.2-0.1c0.9-0.9,0.8-2.4-0.1-3.2L46.4,51.8z M53.4,58.3
	l-7-6.5c-0.3-0.3-0.8-0.4-1.2-0.1c-0.5,0.3-0.6,0.9-0.3,1.4l5.1,8.1c0.1,0.2,0.2,0.3,0.4,0.5c0.9,0.9,2.4,0.8,3.2-0.1
	C54.4,60.6,54.3,59.2,53.4,58.3z M53.4,58.3l-7-6.5c-0.3-0.3-0.8-0.4-1.2-0.1c-0.5,0.3-0.6,0.9-0.3,1.4l5.1,8.1
	c0.1,0.2,0.2,0.3,0.4,0.5c0.9,0.9,2.4,0.8,3.2-0.1C54.4,60.6,54.3,59.2,53.4,58.3z M51.5,46c-8,0-14.5,6.5-14.5,14.5
	c0,3.7,1.4,7.3,3.9,10l0.3,0.5h20.6l0.3-0.5c2.5-2.7,3.9-6.3,3.9-10C66,52.6,59.5,46,51.5,46z M60.9,69H42.1c-2-3-3.1-5.3-3.1-8.3
	c0-6.9,5.6-12.6,12.5-12.6c6.9,0,12.5,5.7,12.5,12.6C64,63.7,62.9,66,60.9,69z M46.4,51.8c-0.3-0.3-0.8-0.4-1.2-0.1
	c-0.5,0.3-0.6,0.9-0.3,1.4l5.1,8.1c0.1,0.2,0.2,0.3,0.4,0.5c0.9,0.9,2.4,0.8,3.2-0.1c0.9-0.9,0.8-2.4-0.1-3.2L46.4,51.8z M53.4,58.3
	l-7-6.5c-0.3-0.3-0.8-0.4-1.2-0.1c-0.5,0.3-0.6,0.9-0.3,1.4l5.1,8.1c0.1,0.2,0.2,0.3,0.4,0.5c0.9,0.9,2.4,0.8,3.2-0.1
	C54.4,60.6,54.3,59.2,53.4,58.3z M53.4,58.3l-7-6.5c-0.3-0.3-0.8-0.4-1.2-0.1c-0.5,0.3-0.6,0.9-0.3,1.4l5.1,8.1
	c0.1,0.2,0.2,0.3,0.4,0.5c0.9,0.9,2.4,0.8,3.2-0.1C54.4,60.6,54.3,59.2,53.4,58.3z M53.4,58.3l-7-6.5c-0.3-0.3-0.8-0.4-1.2-0.1
	c-0.5,0.3-0.6,0.9-0.3,1.4l5.1,8.1c0.1,0.2,0.2,0.3,0.4,0.5c0.9,0.9,2.4,0.8,3.2-0.1C54.4,60.6,54.3,59.2,53.4,58.3z M53.4,58.3
	l-7-6.5c-0.3-0.3-0.8-0.4-1.2-0.1c-0.5,0.3-0.6,0.9-0.3,1.4l5.1,8.1c0.1,0.2,0.2,0.3,0.4,0.5c0.9,0.9,2.4,0.8,3.2-0.1
	C54.4,60.6,54.3,59.2,53.4,58.3z M53.4,58.3l-7-6.5c-0.3-0.3-0.8-0.4-1.2-0.1c-0.5,0.3-0.6,0.9-0.3,1.4l5.1,8.1
	c0.1,0.2,0.2,0.3,0.4,0.5c0.9,0.9,2.4,0.8,3.2-0.1C54.4,60.6,54.3,59.2,53.4,58.3z M53.4,58.3l-7-6.5c-0.3-0.3-0.8-0.4-1.2-0.1
	c-0.5,0.3-0.6,0.9-0.3,1.4l5.1,8.1c0.1,0.2,0.2,0.3,0.4,0.5c0.9,0.9,2.4,0.8,3.2-0.1C54.4,60.6,54.3,59.2,53.4,58.3z M51.5,46
	c-8,0-14.5,6.5-14.5,14.5c0,3.7,1.4,7.3,3.9,10l0.3,0.5h20.6l0.3-0.5c2.5-2.7,3.9-6.3,3.9-10C66,52.6,59.5,46,51.5,46z M60.9,69
	H42.1c-2-3-3.1-5.3-3.1-8.3c0-6.9,5.6-12.6,12.5-12.6c6.9,0,12.5,5.7,12.5,12.6C64,63.7,62.9,66,60.9,69z M46.4,51.8
	c-0.3-0.3-0.8-0.4-1.2-0.1c-0.5,0.3-0.6,0.9-0.3,1.4l5.1,8.1c0.1,0.2,0.2,0.3,0.4,0.5c0.9,0.9,2.4,0.8,3.2-0.1
	c0.9-0.9,0.8-2.4-0.1-3.2L46.4,51.8z M53.4,58.3l-7-6.5c-0.3-0.3-0.8-0.4-1.2-0.1c-0.5,0.3-0.6,0.9-0.3,1.4l5.1,8.1
	c0.1,0.2,0.2,0.3,0.4,0.5c0.9,0.9,2.4,0.8,3.2-0.1C54.4,60.6,54.3,59.2,53.4,58.3z M53.4,58.3l-7-6.5c-0.3-0.3-0.8-0.4-1.2-0.1
	c-0.5,0.3-0.6,0.9-0.3,1.4l5.1,8.1c0.1,0.2,0.2,0.3,0.4,0.5c0.9,0.9,2.4,0.8,3.2-0.1C54.4,60.6,54.3,59.2,53.4,58.3z M53.4,58.3
	l-7-6.5c-0.3-0.3-0.8-0.4-1.2-0.1c-0.5,0.3-0.6,0.9-0.3,1.4l5.1,8.1c0.1,0.2,0.2,0.3,0.4,0.5c0.9,0.9,2.4,0.8,3.2-0.1
	C54.4,60.6,54.3,59.2,53.4,58.3z M53.4,58.3l-7-6.5c-0.3-0.3-0.8-0.4-1.2-0.1c-0.5,0.3-0.6,0.9-0.3,1.4l5.1,8.1
	c0.1,0.2,0.2,0.3,0.4,0.5c0.9,0.9,2.4,0.8,3.2-0.1C54.4,60.6,54.3,59.2,53.4,58.3z M53.4,58.3l-7-6.5c-0.3-0.3-0.8-0.4-1.2-0.1
	c-0.5,0.3-0.6,0.9-0.3,1.4l5.1,8.1c0.1,0.2,0.2,0.3,0.4,0.5c0.9,0.9,2.4,0.8,3.2-0.1C54.4,60.6,54.3,59.2,53.4,58.3z M53.4,58.3
	l-7-6.5c-0.3-0.3-0.8-0.4-1.2-0.1c-0.5,0.3-0.6,0.9-0.3,1.4l5.1,8.1c0.1,0.2,0.2,0.3,0.4,0.5c0.9,0.9,2.4,0.8,3.2-0.1
	C54.4,60.6,54.3,59.2,53.4,58.3z M51.5,46c-8,0-14.5,6.5-14.5,14.5c0,3.7,1.4,7.3,3.9,10l0.3,0.5h20.6l0.3-0.5
	c2.5-2.7,3.9-6.3,3.9-10C66,52.6,59.5,46,51.5,46z M60.9,69H42.1c-2-3-3.1-5.3-3.1-8.3c0-6.9,5.6-12.6,12.5-12.6
	c6.9,0,12.5,5.7,12.5,12.6C64,63.7,62.9,66,60.9,69z M46.4,51.8c-0.3-0.3-0.8-0.4-1.2-0.1c-0.5,0.3-0.6,0.9-0.3,1.4l5.1,8.1
	c0.1,0.2,0.2,0.3,0.4,0.5c0.9,0.9,2.4,0.8,3.2-0.1c0.9-0.9,0.8-2.4-0.1-3.2L46.4,51.8z M53.4,58.3l-7-6.5c-0.3-0.3-0.8-0.4-1.2-0.1
	c-0.5,0.3-0.6,0.9-0.3,1.4l5.1,8.1c0.1,0.2,0.2,0.3,0.4,0.5c0.9,0.9,2.4,0.8,3.2-0.1C54.4,60.6,54.3,59.2,53.4,58.3z M53.4,58.3
	l-7-6.5c-0.3-0.3-0.8-0.4-1.2-0.1c-0.5,0.3-0.6,0.9-0.3,1.4l5.1,8.1c0.1,0.2,0.2,0.3,0.4,0.5c0.9,0.9,2.4,0.8,3.2-0.1
	C54.4,60.6,54.3,59.2,53.4,58.3z M53.4,58.3l-7-6.5c-0.3-0.3-0.8-0.4-1.2-0.1c-0.5,0.3-0.6,0.9-0.3,1.4l5.1,8.1
	c0.1,0.2,0.2,0.3,0.4,0.5c0.9,0.9,2.4,0.8,3.2-0.1C54.4,60.6,54.3,59.2,53.4,58.3z M53.4,58.3l-7-6.5c-0.3-0.3-0.8-0.4-1.2-0.1
	c-0.5,0.3-0.6,0.9-0.3,1.4l5.1,8.1c0.1,0.2,0.2,0.3,0.4,0.5c0.9,0.9,2.4,0.8,3.2-0.1C54.4,60.6,54.3,59.2,53.4,58.3z"/>
</svg>
