<?xml version="1.0" encoding="utf-8"?>
<!-- Generator: Adobe Illustrator 19.2.1, SVG Export Plug-In . SVG Version: 6.00 Build 0)  -->
<svg version="1.1" id="Layer_1" xmlns="http://www.w3.org/2000/svg" xmlns:xlink="http://www.w3.org/1999/xlink" x="0px" y="0px"
	 viewBox="0 0 80 62" style="enable-background:new 0 0 80 62;" xml:space="preserve">
<style type="text/css">
	.st0{fill:none;}
</style>
<path class="st0" d="M0,47.7l0.5,2.2l2.8-1.4h0v12.6h2.8V45.9H3.7L0,47.7z M16.9,61.1h2.9V47.7h6.1v-2.4h-9V61.1z M32.6,49.7
	c-1.6,0-3.1,0.9-3.8,2.3h-0.1c0.1-1,0.5-2.4,1.2-3.2c0.8-1,2.1-1.5,3.8-1.8c0.8-0.1,1.9-0.3,2.5-0.5l0.2-2.3
	c-0.8,0.2-2.1,0.4-3.1,0.5c-2.2,0.3-3.7,1-4.8,2.4c-1.5,1.6-2.2,3.8-2.2,6.6c0,4.1,1.7,7.5,5.7,7.5c3.3,0,5.6-2.3,5.6-6
	C37.6,51.9,35.6,49.7,32.6,49.7z M32,59.3c-1.9,0-2.7-2.3-2.7-4c0-0.9,0.2-1.7,0.6-2.3c0.4-0.7,1.1-1.2,2.1-1.2
	c2.1,0,2.7,2.1,2.7,3.8C34.7,57.3,34,59.3,32,59.3z M44.2,55c-0.6,1.2-0.9,2-1.5,3.4h-0.1c0.1-1.6,0.2-2.8,0.2-4.6v-4.1H40v11.4h3.4
	c1-1.9,2-3.9,2.9-5.6c0.6-1.1,0.9-1.9,1.5-3.3h0.1c-0.1,2.1-0.2,3-0.2,4.8v4.1h2.7V49.7H47L44.2,55z M52.2,51.9h3.4v9.1h2.9v-9.1
	h3.4v-2.2h-9.7V51.9z M62.3,62h2l5.7-16.9h-2L62.3,62z M77.3,51.7c1,0,1.7,0.2,2.2,0.4L80,50c-0.7-0.3-1.7-0.5-2.8-0.5
	c-4,0-6.3,2.7-6.3,6.1c0,3.5,2.3,5.8,5.9,5.8c1.4,0,2.6-0.3,3.2-0.6l-0.4-2.1C79,58.8,78.3,59,77.3,59c-2,0-3.5-1.3-3.5-3.7
	C73.8,53.3,75.1,51.7,77.3,51.7z M35.3,41c-0.1,0-0.2-0.7-0.2-1.3c0-2.7,2.2-4.8,4.9-4.8c2.7,0,4.9,2,4.9,4.8c0,0.5-0.1,1.3-0.2,1.3
	H80c0,0,0-0.8,0-1.3C80,17.7,62.1,0,40,0C17.9,0,0,17.7,0,39.7C0,40.2,0,41,0,41H35.3z M40,1.9c20.7,0,37.6,16.1,38,37.1H46.9
	c-0.1-1.3-0.8-2.7-1.8-3.8l4.3-5.3c0,0,0,0,0,0s0,0,0,0l5.5-6.8c0,0,0,0,0,0s0,0,0,0l5.5-6.8c0.1-0.1,0.1-0.2,0.1-0.3
	c0,0,0-0.1,0-0.1c0,0,0,0,0-0.1c0.1-0.4,0-0.7-0.3-1C54.5,10.4,47.3,7.8,40,7.8c-8.6,0-16.7,3.3-22.8,9.4c-0.4,0.4-0.4,1,0,1.4
	c0.2,0.2,0.5,0.3,0.7,0.3c0.3,0,0.5-0.1,0.7-0.3C24.3,13,31.9,9.8,40,9.8c6.5,0,13,2.2,18.2,6.1l-4.2,5.2c-4-3-8.9-4.6-13.9-4.6
	c-6.3,0-12.2,2.4-16.6,6.9c-0.4,0.4-0.4,1,0,1.4c0.2,0.2,0.5,0.3,0.7,0.3s0.5-0.1,0.7-0.3c4.1-4,9.4-6.3,15.2-6.3
	c4.6,0,9,1.5,12.7,4.2l-4.2,5.2C46,26.2,43,25.3,40,25.3c-3.9,0-7.6,1.5-10.4,4.3c-0.4,0.4-0.4,1,0,1.4c0.2,0.2,0.5,0.3,0.7,0.3
	c0.3,0,0.5-0.1,0.7-0.3c2.4-2.4,5.6-3.7,9-3.7c2.6,0,5.1,0.8,7.2,2.2l-3.6,4.4c-1-0.7-2.3-1.1-3.6-1.1c-3.6,0-6.5,3.1-6.9,6.1H2
	C2.4,18.1,19.3,1.9,40,1.9z"/>
</svg>
