<?xml version="1.0" encoding="utf-8"?>
<!-- Generator: Adobe Illustrator 19.2.1, SVG Export Plug-In . SVG Version: 6.00 Build 0)  -->
<svg version="1.1" id="Layer_1" xmlns="http://www.w3.org/2000/svg" xmlns:xlink="http://www.w3.org/1999/xlink" x="0px" y="0px"
	 viewBox="0 0 47 47" style="enable-background:new 0 0 47 47;" xml:space="preserve">
<style type="text/css">
	.st0{fill:#6DA857;}
</style>
<path id="Shape_10_copy_7" class="st0" d="M23.5,0C10.5,0,0,10.5,0,23.5C0,36.5,10.5,47,23.5,47C36.5,47,47,36.5,47,23.5
	C47,10.5,36.5,0,23.5,0z M33.5,35.6l-5.4-5.4c-4.7,3.5-11.3,2.5-14.7-2.1c-3.5-4.7-2.5-11.3,2.1-14.7s11.3-2.5,14.7,2.1
	c2.8,3.7,2.8,8.9,0,12.6l5.4,5.4L33.5,35.6z M21.8,14.3c-4.1,0-7.5,3.4-7.5,7.5c0,4.1,3.4,7.5,7.5,7.5c4.1,0,7.5-3.4,7.5-7.5
	C29.3,17.7,26,14.3,21.8,14.3z"/>
</svg>
