<?xml version="1.0" encoding="utf-8"?>
<!-- Generator: Adobe Illustrator 19.2.1, SVG Export Plug-In . SVG Version: 6.00 Build 0)  -->
<svg version="1.1" id="Layer_1" xmlns="http://www.w3.org/2000/svg" xmlns:xlink="http://www.w3.org/1999/xlink" x="0px" y="0px"
	 viewBox="0 0 20 20" style="enable-background:new 0 0 20 20;" xml:space="preserve">
<style type="text/css">
	.st0{fill:#A0A0A0;}
</style>
<path class="st0" d="M9.9,5h-2v3H5v2h3v3h2v-3h3v-2h-3V5z M15.9,14.5l-0.7,0.7c1.6-1.6,2.6-3.8,2.6-6.3c0-4.9-4-8.9-8.9-8.9
	C4,0,0,4,0,8.9c0,4.9,4,8.9,8.9,8.9c2.5,0,4.7-1,6.3-2.6l-0.7,0.7l4.1,4.1l1.4-1.4L15.9,14.5z M8.9,15.8C5.1,15.8,2,12.7,2,8.9
	C2,5.1,5.1,2,8.9,2c3.8,0,6.9,3.1,6.9,6.9C15.8,12.7,12.7,15.8,8.9,15.8z"/>
</svg>
