<?xml version="1.0" encoding="utf-8"?>
<!-- Generator: Adobe Illustrator 19.2.1, SVG Export Plug-In . SVG Version: 6.00 Build 0)  -->
<svg version="1.1" id="Layer_1" xmlns="http://www.w3.org/2000/svg" xmlns:xlink="http://www.w3.org/1999/xlink" x="0px" y="0px"
	 viewBox="0 0 80 81" style="enable-background:new 0 0 80 81;" xml:space="preserve">
<style type="text/css">
	.st0{fill:none;}
</style>
<path class="st0" d="M12,13V0h-1C6.3,0,2,2.7,0.1,7L0,7.2v66.6L0.1,74c2,4.2,6.2,7,10.9,7h69V13H12z M2,7.6c1.5-3.1,4.6-5.2,8-5.6
	v55c-3.1,0.3-6,1.7-8,4V7.6z M78,79H11c-3.8,0-7.3-2.2-9-5.6v-8.7c1.7-3.4,5.2-5.6,9-5.6h1V15h66V79z M27,69h-2v1h-3V38h11v1h2v-4
	h-2v1H22V25h23v20h-1v2h4v-2h-1v-7h20v32H47v-7h1v-2h-4v2h1v7h-3v-1h-2v3h29V36H47V23H20v49h7V69z"/>
</svg>
