<?xml version="1.0" encoding="utf-8"?>
<!-- Generator: Adobe Illustrator 19.2.1, SVG Export Plug-In . SVG Version: 6.00 Build 0)  -->
<svg version="1.1" id="Layer_1" xmlns="http://www.w3.org/2000/svg" xmlns:xlink="http://www.w3.org/1999/xlink" x="0px" y="0px"
	 viewBox="0 0 29 30" style="enable-background:new 0 0 29 30;" xml:space="preserve">
<style type="text/css">
	.st0{fill:none;}
</style>
<path class="st0" d="M6,5.3V1.5C6,0.7,5.3,0,4.5,0C3.7,0,3,0.7,3,1.5v3.8C1.2,5.9,0,7.5,0,9.5s1.2,3.6,3,4.2v14.8
	C3,29.3,3.7,30,4.5,30C5.3,30,6,29.3,6,28.5V13.7c1.7-0.6,3-2.3,3-4.2S7.7,5.9,6,5.3z M6,11.5C5.6,11.8,5.1,12,4.5,12
	c-0.6,0-1.1-0.2-1.5-0.5c-0.6-0.5-1-1.2-1-2c0-0.8,0.4-1.5,1-2C3.4,7.2,3.9,7,4.5,7C5.1,7,5.6,7.2,6,7.5c0.6,0.5,1,1.2,1,2
	C7,10.3,6.6,11,6,11.5z M16,17.3V1.5C16,0.7,15.3,0,14.5,0C13.7,0,13,0.7,13,1.5v15.8c-1.8,0.6-3,2.3-3,4.2s1.3,3.6,3,4.2v2.8
	c0,0.8,0.7,1.5,1.5,1.5c0.8,0,1.5-0.7,1.5-1.5v-2.8c1.8-0.6,3-2.3,3-4.2S17.8,17.9,16,17.3z M16,23.5c-0.4,0.3-0.9,0.5-1.5,0.5
	c-0.6,0-1.1-0.2-1.5-0.5c-0.6-0.5-1-1.2-1-2c0-0.8,0.4-1.5,1-2c0.4-0.3,0.9-0.5,1.5-0.5c0.6,0,1.1,0.2,1.5,0.5c0.6,0.5,1,1.2,1,2
	C17,22.3,16.6,23,16,23.5z M26,8.3V1.5C26,0.7,25.3,0,24.5,0C23.7,0,23,0.7,23,1.5v6.8c-1.8,0.6-3,2.3-3,4.2c0,2,1.3,3.6,3,4.2v11.8
	c0,0.8,0.7,1.5,1.5,1.5c0.8,0,1.5-0.7,1.5-1.5V16.7c1.8-0.6,3-2.3,3-4.2C29,10.5,27.7,8.9,26,8.3z M26,14.5
	c-0.4,0.3-0.9,0.5-1.5,0.5c-0.6,0-1.1-0.2-1.5-0.5c-0.6-0.5-1-1.2-1-2c0-0.8,0.4-1.5,1-2c0.4-0.3,0.9-0.5,1.5-0.5
	c0.6,0,1.1,0.2,1.5,0.5c0.6,0.5,1,1.2,1,2C27,13.3,26.6,14,26,14.5z"/>
</svg>
